<svg width="321" height="321" viewBox="0 0 321 321" fill="none" xmlns="http://www.w3.org/2000/svg">
<path d="M175.297 153.34C174.998 150.01 174.465 146.654 173.71 143.363L181.32 141.62C182.153 145.262 182.751 148.969 183.076 152.65L175.297 153.34Z" fill="#AED6BC"/>
<path d="M138.68 178.38C137.847 174.738 137.249 171.031 136.924 167.35L144.702 166.66C145.002 169.99 145.535 173.346 146.289 176.637L138.68 178.38Z" fill="#AED6BC"/>
<path d="M143.363 146.289L141.62 138.68C145.262 137.847 148.982 137.249 152.651 136.924L153.34 144.702C150.01 145.002 146.654 145.535 143.363 146.289Z" fill="#CE0134"/>
<path d="M121.691 184.781C119.571 183.805 117.528 182.777 115.616 181.711L119.402 174.881C121.145 175.844 123.018 176.794 124.956 177.691L121.691 184.781Z" fill="#CE0134"/>
<path d="M136.923 167.35C136.806 165.997 136.715 164.735 136.663 163.473L144.468 163.148C144.52 164.332 144.598 165.489 144.702 166.66L136.923 167.35Z" fill="#AED6BC"/>
<path d="M119.506 182.088C118.933 179.538 118.478 177.015 118.127 174.595L125.854 173.476C126.179 175.701 126.608 178.029 127.128 180.397L119.506 182.088Z" fill="#AED6BC"/>
<path d="M128.052 174.907C127.688 172.67 127.402 170.342 127.194 167.974L134.972 167.298C135.155 169.457 135.428 171.59 135.753 173.633L128.052 174.894V174.907Z" fill="#AED6BC"/>
<path d="M147.005 169.652C146.615 166.738 146.406 163.785 146.367 160.872L154.172 160.781C154.198 163.382 154.393 166.023 154.745 168.624L147.005 169.652Z" fill="#AED6BC"/>
<path d="M142.309 124.956L135.219 121.691C136.195 119.558 137.236 117.515 138.289 115.616L145.119 119.402C144.156 121.132 143.219 123.005 142.309 124.956Z" fill="#AED6BC"/>
<path d="M139.603 127.128L137.912 119.506C140.462 118.933 142.985 118.478 145.405 118.127L146.523 125.854C144.299 126.179 141.971 126.608 139.603 127.128Z" fill="#CE0134"/>
<path d="M146.355 135.753L145.093 128.052C147.33 127.688 149.659 127.402 152.013 127.193L152.69 134.972C150.53 135.154 148.397 135.428 146.355 135.753Z" fill="#CE0134"/>
<path d="M153.34 144.702L152.65 136.924C153.977 136.807 155.278 136.715 156.527 136.663L156.852 144.455C155.72 144.507 154.55 144.585 153.353 144.689L153.34 144.702Z" fill="#CE0134"/>
<path d="M151.389 154.732L150.361 146.992C153.288 146.602 156.241 146.394 159.142 146.354L159.233 154.159C156.644 154.185 154.003 154.381 151.389 154.732Z" fill="#CE0134"/>
<path d="M150.907 164.67L149.62 156.969C153.093 156.384 156.579 156.098 160 156.098V163.902C157.008 163.902 153.951 164.163 150.907 164.67Z" fill="#CE0134"/>
<path d="M76.4358 211.226L68.657 210.55C70.0619 194.328 75.7854 178.732 85.2293 165.463L91.5903 169.99C82.9529 182.14 77.7106 196.397 76.4358 211.226Z" fill="#CE0134"/>
<path d="M67.3172 205.06L59.5903 203.942C62.0098 187.2 68.657 171.187 78.8294 157.659L85.0733 162.342C75.6944 174.829 69.5546 189.607 67.3172 205.06Z" fill="#CE0134"/>
<path d="M70.6212 214.283C67.1871 212.332 63.922 210.042 60.9302 207.467L66.0033 201.535C68.631 203.785 71.4798 205.789 74.4846 207.493L70.6212 214.27V214.283Z" fill="#AED6BC"/>
<path d="M85.9316 215.389L78.1267 215.063C78.7641 199.779 83.6552 185.028 92.2535 172.423L98.7056 176.819C90.9267 188.228 86.5169 201.561 85.9316 215.389Z" fill="#CE0134"/>
<path d="M105.366 218.537H97.561C97.561 206.127 101.203 194.12 108.098 183.831L114.589 188.176C108.566 197.177 105.379 207.675 105.379 218.537H105.366Z" fill="#CE0134"/>
<path d="M95.6357 217.756L87.8308 217.665C87.9999 203.668 92.1625 190.14 99.8894 178.55L106.38 182.881C99.4861 193.223 95.7788 205.281 95.6227 217.756H95.6357Z" fill="#CE0134"/>
<path d="M203.941 260.41C187.2 257.99 171.187 251.343 157.646 241.171L162.328 234.927C174.816 244.306 189.593 250.446 205.047 252.67L203.928 260.397L203.941 260.41Z" fill="#AED6BC"/>
<path d="M210.55 251.343C194.328 249.938 178.732 244.215 165.463 234.771L169.99 228.41C182.14 237.047 196.397 242.289 211.226 243.564L210.55 251.343Z" fill="#AED6BC"/>
<path d="M200.598 145.106C198.855 144.143 196.995 143.194 195.044 142.296L198.309 135.207C200.429 136.182 202.472 137.21 204.384 138.276L200.598 145.106Z" fill="#CE0134"/>
<path d="M194.146 146.524C193.821 144.286 193.392 141.971 192.872 139.616L200.494 137.925C201.054 140.475 201.522 142.998 201.873 145.418L194.146 146.537V146.524Z" fill="#AED6BC"/>
<path d="M185.028 152.689C184.845 150.53 184.572 148.397 184.247 146.354L191.948 145.093C192.312 147.33 192.598 149.659 192.806 152.013L185.028 152.689Z" fill="#AED6BC"/>
<path d="M175.532 156.852C175.48 155.733 175.415 154.589 175.298 153.34L183.076 152.65C183.194 154.016 183.285 155.278 183.337 156.527L175.532 156.852Z" fill="#AED6BC"/>
<path d="M165.828 159.233C165.802 156.631 165.607 153.99 165.255 151.389L172.995 150.361C173.385 153.275 173.594 156.228 173.633 159.141L165.828 159.233Z" fill="#AED6BC"/>
<path d="M241.171 162.341L234.927 157.659C244.306 145.171 250.445 130.393 252.67 114.94L260.397 116.059C257.99 132.8 251.33 148.813 241.158 162.354L241.171 162.341Z" fill="#CE0134"/>
<path d="M227.746 147.59L221.294 143.193C229.073 131.785 233.483 118.452 234.068 104.624L241.873 104.95C241.236 120.234 236.345 134.985 227.746 147.59Z" fill="#CE0134"/>
<path d="M234.771 154.537L228.41 150.01C237.047 137.86 242.289 123.603 243.564 108.774L251.343 109.45C249.938 125.671 244.215 141.268 234.771 154.537Z" fill="#CE0134"/>
<path d="M211.902 136.169L205.411 131.824C211.434 122.823 214.621 112.325 214.621 101.463H222.426C222.426 113.886 218.784 125.88 211.889 136.169H211.902Z" fill="#CE0134"/>
<path d="M220.111 141.45L213.62 137.119C220.514 126.777 224.221 114.719 224.377 102.244L232.182 102.335C232.013 116.332 227.851 129.86 220.124 141.45H220.111Z" fill="#CE0134"/>
<path d="M213.789 149.607L207.974 144.403C210.016 142.114 211.915 139.668 213.619 137.132L220.11 141.463C218.211 144.312 216.078 147.057 213.789 149.62V149.607Z" fill="#CE0134"/>
<path d="M207.467 259.083L201.535 254.01C203.785 251.382 205.789 248.533 207.493 245.528L214.27 249.392C212.319 252.826 210.029 256.078 207.454 259.083H207.467Z" fill="#CE0134"/>
<path d="M215.063 241.86C199.779 241.223 185.028 236.332 172.423 227.733L176.82 221.281C188.215 229.06 201.561 233.47 215.389 234.055L215.063 241.847V241.86Z" fill="#AED6BC"/>
<path d="M218.536 222.439C206.127 222.439 194.12 218.797 183.831 211.902L188.176 205.424C197.177 211.447 207.675 214.634 218.536 214.634V222.439Z" fill="#AED6BC"/>
<path d="M217.665 232.169C203.668 232 190.14 227.837 178.55 220.098L182.881 213.607C193.223 220.488 205.281 224.208 217.769 224.364L217.678 232.169H217.665Z" fill="#AED6BC"/>
<path d="M7.80488 160H0C0 117.424 26.8878 79.0765 66.9138 64.5724L69.5675 71.909C32.6244 85.2943 7.80488 120.689 7.80488 160Z" fill="#AED6BC"/>
<path d="M17.561 160H9.7561C9.7561 124.332 30.7122 91.6163 63.1545 76.683L66.4195 83.7724C36.735 97.444 17.561 127.363 17.561 160Z" fill="#AED6BC"/>
<path d="M27.3171 160H19.5122C19.5122 130.628 35.3951 103.337 60.9561 88.7675L64.8195 95.5447C41.6781 108.722 27.3171 133.424 27.3171 160Z" fill="#AED6BC"/>
<path d="M37.0732 160H29.2683C29.2683 136.39 40.8586 114.237 60.2667 100.722L64.7285 107.122C47.4146 119.18 37.0732 138.94 37.0732 160Z" fill="#AED6BC"/>
<path d="M46.8293 160H39.0244C39.0244 141.724 47.0114 124.423 60.9171 112.533L65.9903 118.465C53.8147 128.872 46.8293 144.013 46.8293 160Z" fill="#AED6BC"/>
<path d="M157.659 85.0732C145.171 75.6943 130.394 69.5545 114.94 67.3301L116.059 59.6033C132.8 62.0228 148.813 68.6699 162.342 78.8423L157.659 85.0862V85.0732Z" fill="#AED6BC"/>
<path d="M143.18 98.7057C131.785 90.9269 118.439 86.5171 104.611 85.9318L104.937 78.1399C120.221 78.7773 134.972 83.6683 147.577 92.2667L143.18 98.7188V98.7057Z" fill="#AED6BC"/>
<path d="M150.01 91.5902C137.86 82.9528 123.603 77.7105 108.774 76.4357L109.45 68.6569C125.671 70.0617 141.268 75.7853 154.537 85.2292L150.01 91.5902Z" fill="#AED6BC"/>
<path d="M131.824 114.576C122.823 108.553 112.325 105.366 101.463 105.366V97.561C113.886 97.561 125.88 101.203 136.169 108.098L131.824 114.576Z" fill="#AED6BC"/>
<path d="M137.119 106.38C126.777 99.4992 114.719 95.7788 102.244 95.6227L102.335 87.8179C116.332 87.987 129.86 92.1496 141.45 99.8894L137.119 106.38Z" fill="#AED6BC"/>
<path d="M139.018 120.338C136.755 118.192 134.335 116.254 131.824 114.576L136.169 108.085C139.044 110.01 141.802 112.221 144.39 114.667L139.018 120.338Z" fill="#AED6BC"/>
<path d="M248.078 69.5805C234.706 32.6374 199.298 7.80488 160 7.80488V0C202.576 0 240.924 26.8878 255.428 66.9138L248.091 69.5675L248.078 69.5805Z" fill="#CE0134"/>
<path d="M236.228 66.4195C222.556 36.735 192.637 17.561 160 17.561V9.7561C195.668 9.7561 228.384 30.7122 243.317 63.1545L236.228 66.4195Z" fill="#CE0134"/>
<path d="M224.455 64.8195C211.278 41.6781 186.576 27.3171 160 27.3171V19.5122C189.372 19.5122 216.663 35.3951 231.233 60.9561L224.455 64.8195Z" fill="#CE0134"/>
<path d="M212.878 64.7285C200.82 47.4146 181.06 37.0732 160 37.0732V29.2683C183.61 29.2683 205.763 40.8586 219.278 60.2667L212.878 64.7285Z" fill="#CE0134"/>
<path d="M201.535 65.9903C191.128 53.8147 175.987 46.8293 160 46.8293V39.0244C178.276 39.0244 195.577 47.0114 207.467 60.9171L201.535 65.9903Z" fill="#CE0134"/>
<path d="M320 160H312.195C312.195 120.689 287.376 85.2943 250.419 71.9219L253.073 64.5853C293.099 79.0764 319.987 117.424 319.987 160.013L320 160Z" fill="#AED6BC"/>
<path d="M253.086 255.428L250.433 248.091C287.376 234.719 312.208 199.311 312.208 160.013H320.013C320.013 202.602 293.125 240.937 253.099 255.441L253.086 255.428Z" fill="#AED6BC"/>
<path d="M256.846 243.317L253.581 236.228C283.265 222.556 302.439 192.637 302.439 160H310.244C310.244 195.668 289.288 228.384 256.846 243.317Z" fill="#AED6BC"/>
<path d="M310.244 160H302.439C302.439 127.363 283.265 97.444 253.581 83.7724L256.846 76.683C289.288 91.6163 310.244 124.319 310.244 160Z" fill="#AED6BC"/>
<path d="M300.488 160H292.683C292.683 133.424 278.309 108.735 255.18 95.5447L259.044 88.7675C284.605 103.337 300.488 130.628 300.488 160Z" fill="#AED6BC"/>
<path d="M259.044 231.233L255.18 224.455C278.309 211.278 292.683 186.576 292.683 160H300.488C300.488 189.372 284.605 216.663 259.044 231.233Z" fill="#AED6BC"/>
<path d="M259.733 219.278L255.271 212.878C272.585 200.82 282.927 181.06 282.927 160H290.732C290.732 183.61 279.141 205.763 259.733 219.278Z" fill="#AED6BC"/>
<path d="M290.732 160H282.927C282.927 138.953 272.585 119.18 255.271 107.122L259.733 100.722C279.141 114.237 290.732 136.39 290.732 160Z" fill="#AED6BC"/>
<path d="M280.976 160H273.171C273.171 144.013 266.185 128.872 254.01 118.465L259.083 112.533C273.002 124.436 280.976 141.737 280.976 160Z" fill="#AED6BC"/>
<path d="M259.083 207.467L254.01 201.535C266.185 191.128 273.171 175.987 273.171 160H280.976C280.976 178.276 272.989 195.577 259.083 207.467Z" fill="#AED6BC"/>
<path d="M250.42 71.922C246.777 70.5952 242.901 69.4765 238.92 68.6049L240.611 60.9822C244.917 61.9448 249.106 63.1545 253.073 64.5854L250.42 71.922Z" fill="#AED6BC"/>
<path d="M253.581 83.7723C250.081 82.1593 246.491 80.7935 242.901 79.7008L245.164 72.2341C249.093 73.4309 253.021 74.9268 256.846 76.6829L253.581 83.7723Z" fill="#AED6BC"/>
<path d="M255.18 95.5447C251.993 93.7236 248.637 92.1366 245.229 90.8228L248.039 83.5382C251.811 84.9951 255.519 86.7512 259.044 88.7675L255.18 95.5447Z" fill="#AED6BC"/>
<path d="M255.272 107.122C252.345 105.08 249.236 103.285 246.062 101.776L249.405 94.7252C252.982 96.4163 256.455 98.4325 259.733 100.722L255.272 107.122Z" fill="#AED6BC"/>
<path d="M254.01 118.465C251.382 116.228 248.533 114.211 245.529 112.507L249.392 105.73C252.826 107.681 256.091 109.971 259.083 112.546L254.01 118.478V118.465Z" fill="#AED6BC"/>
<path d="M238.933 68.5919C235.122 67.7463 231.272 67.135 227.473 66.7707L228.215 59.0049C232.325 59.3951 236.501 60.0585 240.624 60.9691L238.933 68.5919Z" fill="#AED6BC"/>
<path d="M242.901 79.7007C239.428 78.6471 235.824 77.8146 232.182 77.2162L233.444 69.5154C237.424 70.1658 241.366 71.0764 245.164 72.2341L242.901 79.7007Z" fill="#AED6BC"/>
<path d="M245.229 90.8227C241.99 89.574 238.608 88.5333 235.187 87.7528L236.93 80.1431C240.715 81.0146 244.449 82.1593 248.039 83.5382L245.229 90.8227Z" fill="#AED6BC"/>
<path d="M246.049 101.776C243.044 100.358 239.87 99.148 236.618 98.1984L238.803 90.7057C242.446 91.7724 246.01 93.1252 249.379 94.7122L246.036 101.763L246.049 101.776Z" fill="#AED6BC"/>
<path d="M245.528 112.507C242.706 110.894 239.727 109.542 236.67 108.462L239.259 101.099C242.745 102.322 246.153 103.883 249.379 105.717L245.515 112.494L245.528 112.507Z" fill="#AED6BC"/>
<path d="M227.473 66.7708C224.416 66.4846 221.411 66.3415 218.537 66.3415V58.5366C221.659 58.5366 224.911 58.6927 228.215 59.0049L227.486 66.7708H227.473Z" fill="#AED6BC"/>
<path d="M216.169 66.4065L215.974 58.6017L216.767 58.5756C217.353 58.5496 217.938 58.5366 218.523 58.5366V66.3415C218.029 66.3415 217.522 66.3545 217.028 66.3805L216.156 66.4065H216.169Z" fill="#AED6BC"/>
<path d="M232.182 77.2163C228.735 76.6569 225.171 76.3057 221.606 76.1756L221.88 68.3707C225.769 68.5138 229.658 68.891 233.444 69.5154L232.182 77.2163Z" fill="#AED6BC"/>
<path d="M235.174 87.7528C231.87 86.9983 228.514 86.465 225.197 86.1658L225.886 78.387C229.568 78.7122 233.275 79.2975 236.917 80.1431L235.174 87.7528Z" fill="#AED6BC"/>
<path d="M236.631 98.1984C233.548 97.3008 230.361 96.6244 227.161 96.1952L228.189 88.4553C231.779 88.9366 235.356 89.6911 238.816 90.7057L236.631 98.1984Z" fill="#AED6BC"/>
<path d="M236.67 108.462C233.743 107.434 230.699 106.654 227.629 106.133L228.917 98.4325C232.442 99.0179 235.916 99.9154 239.259 101.099L236.67 108.462Z" fill="#AED6BC"/>
<path d="M205.06 67.317L203.941 59.5902C207.818 59.0308 211.876 58.6926 215.974 58.6016L216.169 66.4064C212.371 66.4975 208.637 66.8097 205.06 67.33V67.317Z" fill="#AED6BC"/>
<path d="M221.607 76.1757H221.424C220.462 76.1366 219.512 76.0976 218.537 76.0976V68.2927C219.603 68.2927 220.657 68.3318 221.711 68.3708H221.893L221.607 76.1757Z" fill="#AED6BC"/>
<path d="M211.226 76.4358L210.562 68.657C213.424 68.4098 216.039 68.2927 218.549 68.2927V76.0976C216.26 76.0976 213.88 76.2017 211.239 76.4358H211.226Z" fill="#AED6BC"/>
<path d="M215.389 85.9318L215.063 78.1399C216.221 78.0879 217.379 78.0488 218.537 78.0488V85.8537C217.483 85.8537 216.429 85.8927 215.389 85.9318Z" fill="#AED6BC"/>
<path d="M225.197 86.1659C222.829 85.9578 220.657 85.8537 218.537 85.8537V78.0488C220.878 78.0488 223.285 78.1659 225.886 78.387L225.197 86.1659Z" fill="#AED6BC"/>
<path d="M227.148 96.1952C224.208 95.8049 221.307 95.6098 218.537 95.6098V87.8049C221.659 87.8049 224.911 88.0261 228.189 88.4683L227.161 96.2082L227.148 96.1952Z" fill="#AED6BC"/>
<path d="M217.756 95.6358L217.678 87.8309H217.951C218.146 87.8179 218.341 87.8049 218.524 87.8049V95.6098L217.743 95.6358H217.756Z" fill="#AED6BC"/>
<path d="M227.629 106.133C224.585 105.626 221.528 105.366 218.537 105.366V97.561C221.958 97.561 225.444 97.8602 228.917 98.4326L227.629 106.133Z" fill="#AED6BC"/>
<path d="M162.341 85.0731L157.658 78.8292C171.2 68.6569 187.2 62.0097 203.954 59.5902L205.073 67.317C189.619 69.5414 174.855 75.6813 162.354 85.0601L162.341 85.0731Z" fill="#AED6BC"/>
<path d="M176.82 98.7057L172.423 92.2537C185.028 83.6553 199.779 78.7772 215.063 78.1268L215.389 85.9187C201.561 86.5041 188.215 90.9138 176.82 98.6927V98.7057Z" fill="#AED6BC"/>
<path d="M169.99 91.5902L165.463 85.2292C178.745 75.7853 194.328 70.0487 210.55 68.6569L211.226 76.4357C196.397 77.7105 182.127 82.9528 169.99 91.5902Z" fill="#AED6BC"/>
<path d="M188.176 114.576L183.831 108.098C194.12 101.203 206.114 97.561 218.536 97.561V105.366C207.675 105.366 197.177 108.553 188.176 114.576Z" fill="#AED6BC"/>
<path d="M182.881 106.38L178.55 99.8894C190.14 92.1626 203.668 87.987 217.665 87.8179L217.756 95.6227C205.268 95.7658 193.21 99.4862 182.868 106.38H182.881Z" fill="#AED6BC"/>
<path d="M206.712 137.379C201.925 134.621 196.93 132.28 191.883 130.459L194.536 123.122C200.013 125.099 205.424 127.623 210.615 130.615L206.712 137.379Z" fill="#CE0134"/>
<path d="M261.463 218.537H253.659C253.659 218.042 253.646 217.535 253.62 217.041L253.594 216.169L261.398 215.974L261.424 216.78C261.45 217.366 261.463 217.951 261.463 218.537Z" fill="#CE0134"/>
<path d="M255.428 253.086L248.091 250.433C249.418 246.79 250.537 242.914 251.408 238.933L259.031 240.624C258.081 244.93 256.859 249.119 255.428 253.086Z" fill="#CE0134"/>
<path d="M260.995 228.215L253.229 227.486C253.515 224.429 253.659 221.424 253.659 218.55H261.463C261.463 221.672 261.307 224.924 260.995 228.228V228.215Z" fill="#CE0134"/>
<path d="M252.683 205.06C250.459 189.607 244.319 174.842 234.94 162.342L241.184 157.659C251.356 171.2 258.003 187.2 260.423 203.942L252.696 205.06H252.683Z" fill="#CE0134"/>
<path d="M160 320V312.195C199.311 312.195 234.706 287.376 248.078 250.42L255.415 253.073C240.924 293.099 202.576 319.987 159.987 319.987L160 320Z" fill="#CE0134"/>
<path d="M160 320C117.424 320 79.0765 293.112 64.5854 253.086L71.922 250.432C85.2944 287.376 120.703 312.208 160 312.208V320.013V320Z" fill="#CE0134"/>
<path d="M160 310.244C124.332 310.244 91.6162 289.288 76.6829 256.845L83.7723 253.58C97.4438 283.265 127.363 302.439 160 302.439V310.244Z" fill="#CE0134"/>
<path d="M160 310.244V302.439C192.637 302.439 222.556 283.265 236.228 253.58L243.317 256.845C228.384 289.288 195.668 310.244 160 310.244Z" fill="#CE0134"/>
<path d="M259.031 240.624L251.408 238.933C252.254 235.122 252.865 231.259 253.229 227.473L260.995 228.215C260.605 232.325 259.942 236.501 259.031 240.624Z" fill="#CE0134"/>
<path d="M247.766 245.164L240.299 242.901C241.353 239.428 242.185 235.824 242.784 232.182L250.484 233.444C249.834 237.424 248.923 241.366 247.766 245.164Z" fill="#CE0134"/>
<path d="M253.593 216.169C253.502 212.371 253.19 208.624 252.67 205.06L260.397 203.941C260.956 207.818 261.294 211.863 261.398 215.974L253.593 216.169Z" fill="#CE0134"/>
<path d="M251.629 221.893L243.824 221.619V221.32C243.863 220.397 243.903 219.473 243.903 218.55H251.707C251.707 219.577 251.668 220.592 251.629 221.606V221.906V221.893Z" fill="#CE0134"/>
<path d="M251.707 218.537H243.902C243.902 216.247 243.798 213.854 243.564 211.226L251.343 210.55C251.59 213.398 251.707 216.013 251.707 218.537Z" fill="#CE0134"/>
<path d="M231.233 259.044L224.455 255.18C226.276 251.993 227.863 248.637 229.177 245.229L236.462 248.039C235.005 251.811 233.249 255.519 231.233 259.044Z" fill="#CE0134"/>
<path d="M243.317 256.845L236.228 253.58C237.841 250.081 239.206 246.478 240.299 242.901L247.766 245.164C246.582 249.093 245.086 253.021 243.317 256.845Z" fill="#CE0134"/>
<path d="M250.485 233.444L242.784 232.182C243.343 228.735 243.694 225.171 243.824 221.606L251.629 221.893C251.486 225.795 251.109 229.685 250.485 233.444Z" fill="#CE0134"/>
<path d="M239.857 236.917L232.247 235.174C233.002 231.883 233.535 228.527 233.834 225.197L241.613 225.886C241.288 229.568 240.689 233.288 239.857 236.917Z" fill="#CE0134"/>
<path d="M234.068 215.389C233.496 201.561 229.073 188.228 221.294 176.819L227.746 172.423C236.345 185.028 241.223 199.779 241.873 215.063L234.068 215.389Z" fill="#CE0134"/>
<path d="M243.564 211.226C242.289 196.397 237.047 182.127 228.41 169.99L234.771 165.463C244.215 178.745 249.951 194.341 251.343 210.55L243.564 211.226Z" fill="#CE0134"/>
<path d="M160 300.488V292.683C186.576 292.683 211.265 278.309 224.455 255.181L231.233 259.044C216.663 284.605 189.372 300.488 160 300.488Z" fill="#CE0134"/>
<path d="M160 300.488C130.628 300.488 103.337 284.605 88.7676 259.044L95.5448 255.181C108.722 278.322 133.424 292.683 160 292.683V300.488Z" fill="#CE0134"/>
<path d="M160 290.732C136.39 290.732 114.237 279.142 100.722 259.733L107.122 255.272C119.18 272.585 138.94 282.927 160 282.927V290.732Z" fill="#CE0134"/>
<path d="M160 290.732V282.927C181.047 282.927 200.82 272.585 212.878 255.272L219.278 259.733C205.763 279.142 183.61 290.732 160 290.732Z" fill="#CE0134"/>
<path d="M225.275 249.392L218.224 246.049C219.642 243.044 220.852 239.87 221.802 236.618L229.294 238.803C228.228 242.446 226.875 246.01 225.288 249.379L225.275 249.392Z" fill="#CE0134"/>
<path d="M236.462 248.039L229.177 245.229C230.426 241.977 231.467 238.608 232.247 235.187L239.857 236.93C238.985 240.715 237.841 244.449 236.462 248.039Z" fill="#CE0134"/>
<path d="M241.951 218.537H234.146C234.146 217.483 234.107 216.429 234.068 215.389L241.873 215.063C241.925 216.221 241.964 217.379 241.964 218.537H241.951Z" fill="#CE0134"/>
<path d="M241.613 225.886L233.834 225.197C234.042 222.829 234.146 220.644 234.146 218.537H241.951C241.951 220.878 241.834 223.285 241.613 225.886Z" fill="#CE0134"/>
<path d="M231.532 228.189L223.792 227.161C224.182 224.234 224.377 221.333 224.377 218.55H232.182C232.182 221.685 231.961 224.924 231.519 228.202L231.532 228.189Z" fill="#CE0134"/>
<path d="M232.195 218.537H224.39L224.364 217.756L232.169 217.665V217.938C232.182 218.133 232.195 218.328 232.195 218.524V218.537Z" fill="#CE0134"/>
<path d="M219.278 259.733L212.878 255.272C214.92 252.332 216.728 249.236 218.224 246.062L225.275 249.405C223.584 252.969 221.567 256.455 219.278 259.733Z" fill="#CE0134"/>
<path d="M218.901 239.259L211.538 236.67C212.566 233.743 213.346 230.712 213.867 227.629L221.567 228.917C220.982 232.442 220.084 235.915 218.901 239.259Z" fill="#CE0134"/>
<path d="M229.281 238.816L221.789 236.631C222.686 233.548 223.363 230.361 223.792 227.161L231.532 228.189C231.05 231.779 230.296 235.356 229.281 238.816Z" fill="#CE0134"/>
<path d="M222.439 218.537H214.634C214.634 207.675 211.447 197.177 205.424 188.176L211.915 183.831C218.81 194.12 222.452 206.114 222.452 218.537H222.439Z" fill="#CE0134"/>
<path d="M224.364 217.756C224.221 205.268 220.501 193.21 213.606 182.881L220.097 178.55C227.824 190.14 232 203.668 232.156 217.665L224.351 217.756H224.364Z" fill="#CE0134"/>
<path d="M160 280.976C141.724 280.976 124.423 272.989 112.533 259.083L118.465 254.01C128.872 266.185 144.013 273.171 160 273.171V280.976Z" fill="#CE0134"/>
<path d="M160 280.976V273.171C175.987 273.171 191.128 266.185 201.535 254.01L207.467 259.083C195.564 273.002 178.263 280.976 160 280.976Z" fill="#CE0134"/>
<path d="M214.283 249.379L207.506 245.515C209.119 242.68 210.484 239.701 211.551 236.67L218.914 239.259C217.691 242.732 216.13 246.14 214.296 249.379H214.283Z" fill="#CE0134"/>
<path d="M221.568 228.917L213.867 227.629C214.374 224.585 214.634 221.528 214.634 218.537H222.439C222.439 221.958 222.14 225.457 221.568 228.917Z" fill="#CE0134"/>
<path d="M181.711 204.384L174.881 200.598C175.844 198.855 176.794 196.982 177.691 195.044L184.781 198.309C183.805 200.429 182.777 202.472 181.711 204.384Z" fill="#AED6BC"/>
<path d="M189.385 210.615L182.621 206.712C185.379 201.925 187.72 196.93 189.541 191.883L196.878 194.537C194.901 200.013 192.377 205.424 189.385 210.615Z" fill="#AED6BC"/>
<path d="M173.659 160H165.854L165.828 159.219L173.633 159.128V159.402C173.646 159.597 173.659 159.792 173.659 159.987V160Z" fill="#0B1517"/>
<path d="M228.332 162.602L222.517 157.398C224.559 155.109 226.537 152.624 228.397 150.01L234.758 154.537C232.728 157.385 230.569 160.104 228.332 162.602Z" fill="#CE0134"/>
<path d="M234.445 170.381L228.722 165.073C230.959 162.667 233.041 160.169 234.927 157.659L241.171 162.342C239.128 165.06 236.865 167.766 234.445 170.368V170.381Z" fill="#CE0134"/>
<path d="M221.437 155.668L215.584 150.504C217.665 148.15 219.59 145.678 221.294 143.18L227.746 147.577C225.86 150.348 223.74 153.067 221.437 155.668Z" fill="#CE0134"/>
<path d="M205.333 144.377L199.662 139.018C201.808 136.754 203.746 134.335 205.424 131.824L211.916 136.169C209.99 139.044 207.779 141.802 205.333 144.39V144.377Z" fill="#CE0134"/>
<path d="M227.096 177.535L221.932 171.681C224.325 169.574 226.602 167.35 228.722 165.06L234.445 170.368C232.156 172.839 229.684 175.246 227.096 177.535Z" fill="#CE0134"/>
<path d="M221.112 169.821L215.909 164.006C218.224 161.938 220.449 159.714 222.517 157.398L228.332 162.602C226.068 165.125 223.636 167.558 221.112 169.821Z" fill="#CE0134"/>
<path d="M214.179 162.927L209.015 157.073C211.33 155.031 213.541 152.819 215.584 150.504L221.437 155.668C219.174 158.231 216.741 160.663 214.179 162.927Z" fill="#CE0134"/>
<path d="M206.244 156.891L201.236 150.894C203.616 148.904 205.88 146.719 207.961 144.39L213.776 149.594C211.447 152.195 208.911 154.654 206.231 156.878L206.244 156.891Z" fill="#CE0134"/>
<path d="M200.546 148.93L195.473 142.998C196.93 141.763 198.335 140.423 199.662 139.018L205.32 144.39C203.798 145.99 202.185 147.525 200.533 148.943L200.546 148.93Z" fill="#CE0134"/>
<path d="M213.151 176.182L208.625 169.821C211.2 167.987 213.659 166.023 215.922 164.006L221.125 169.821C218.654 172.032 215.974 174.179 213.151 176.182Z" fill="#CE0134"/>
<path d="M219.135 183.883L214.582 177.548C217.132 175.714 219.603 173.75 221.932 171.694L227.096 177.548C224.572 179.772 221.893 181.906 219.135 183.896V183.883Z" fill="#CE0134"/>
<path d="M201.197 160.741L196.735 154.341C198.335 153.236 199.844 152.078 201.249 150.907L206.257 156.904C204.683 158.218 202.979 159.519 201.197 160.755V160.741Z" fill="#CE0134"/>
<path d="M205.932 169.34L201.548 162.875C204.071 161.158 206.582 159.206 209.002 157.073L214.166 162.927C211.499 165.281 208.728 167.441 205.932 169.34Z" fill="#CE0134"/>
<path d="M210.615 189.385L206.712 182.621C209.418 181.06 212.072 179.356 214.582 177.548L219.135 183.883C216.403 185.847 213.541 187.694 210.615 189.385Z" fill="#CE0134"/>
<path d="M204.384 181.711L200.598 174.881C203.291 173.385 205.984 171.681 208.611 169.808L213.138 176.169C210.276 178.211 207.324 180.072 204.371 181.711H204.384Z" fill="#CE0134"/>
<path d="M200.507 172.696L196.644 165.919C198.465 164.878 200.078 163.876 201.561 162.875L205.945 169.34C204.293 170.458 202.51 171.564 200.507 172.696Z" fill="#CE0134"/>
<path d="M194.55 196.891L191.896 189.554C196.943 187.733 201.925 185.405 206.725 182.634L210.628 189.398C205.437 192.39 200.026 194.914 194.563 196.891H194.55Z" fill="#CE0134"/>
<path d="M198.309 184.781L195.044 177.691C196.995 176.794 198.855 175.857 200.598 174.881L204.384 181.711C202.472 182.764 200.429 183.805 198.309 184.781Z" fill="#CE0134"/>
<path d="M196.995 151.753L192.364 145.47C193.379 144.715 194.433 143.883 195.473 142.998L200.546 148.93C199.363 149.945 198.166 150.894 196.995 151.753Z" fill="#CE0134"/>
<path d="M197.203 163.343L193.171 156.657C194.315 155.967 195.473 155.213 196.735 154.341L201.197 160.741C199.805 161.717 198.491 162.563 197.203 163.343Z" fill="#CE0134"/>
<path d="M190.842 155.746L186.979 148.969C188.865 147.889 190.673 146.719 192.364 145.483L196.995 151.766C195.07 153.184 193.002 154.524 190.855 155.746H190.842Z" fill="#CE0134"/>
<path d="M190.855 166.738L187.512 159.688C189.463 158.764 191.363 157.737 193.171 156.657L197.203 163.343C195.187 164.566 193.054 165.698 190.868 166.738H190.855Z" fill="#CE0134"/>
<path d="M196.423 174.881L192.95 167.896C194.146 167.298 195.395 166.634 196.644 165.919L200.507 172.696C199.116 173.489 197.75 174.218 196.423 174.881Z" fill="#CE0134"/>
<path d="M182.088 200.481L180.397 192.859C184.377 191.974 188.241 190.855 191.896 189.542L194.55 196.878C190.582 198.309 186.393 199.532 182.088 200.481Z" fill="#CE0134"/>
<path d="M189.502 177.925L186.693 170.641C188.839 169.808 190.933 168.884 192.95 167.896L196.423 174.881C194.198 175.987 191.87 177.015 189.502 177.925Z" fill="#CE0134"/>
<path d="M186.628 189.229L184.364 181.763C187.955 180.67 191.545 179.304 195.044 177.691L198.309 184.78C194.485 186.537 190.556 188.032 186.628 189.229Z" fill="#CE0134"/>
<path d="M185.925 158.257L182.686 151.154C184.143 150.491 185.587 149.75 186.992 148.956L190.855 155.733C189.255 156.644 187.603 157.489 185.938 158.257H185.925Z" fill="#CE0134"/>
<path d="M185.691 168.937L182.92 161.639C184.507 161.028 186.055 160.377 187.525 159.688L190.868 166.738C189.229 167.519 187.486 168.26 185.704 168.937H185.691Z" fill="#CE0134"/>
<path d="M180.722 160.364L178.133 153.002C179.655 152.468 181.19 151.844 182.686 151.154L185.925 158.257C184.221 159.037 182.465 159.74 180.722 160.364Z" fill="#CE0134"/>
<path d="M174.907 191.948L173.646 184.247C177.275 183.649 180.891 182.816 184.364 181.763L186.628 189.229C182.829 190.387 178.888 191.298 174.907 191.948Z" fill="#CE0134"/>
<path d="M174.595 201.873L173.476 194.146C175.714 193.821 178.042 193.392 180.384 192.872L182.075 200.494C179.538 201.054 177.015 201.522 174.582 201.873H174.595Z" fill="#CE0134"/>
<path d="M180.28 170.745L178.094 163.252C179.733 162.771 181.359 162.224 182.92 161.639L185.704 168.937C183.948 169.6 182.127 170.211 180.28 170.758V170.745Z" fill="#CE0134"/>
<path d="M178.381 181.32L176.637 173.711C180.059 172.93 183.441 171.889 186.68 170.641L189.489 177.925C185.899 179.317 182.153 180.462 178.381 181.32Z" fill="#CE0134"/>
<path d="M170.381 163.031L169.093 155.33C172.176 154.81 175.207 154.029 178.133 153.002L180.722 160.364C177.379 161.535 173.893 162.432 170.381 163.031Z" fill="#CE0134"/>
<path d="M167.987 192.807L167.311 185.028C169.47 184.846 171.603 184.572 173.646 184.247L174.907 191.948C172.67 192.312 170.341 192.598 167.987 192.807Z" fill="#CE0134"/>
<path d="M167.35 183.076L166.66 175.298C170.003 174.998 173.359 174.465 176.637 173.711L178.38 181.32C174.751 182.153 171.031 182.738 167.35 183.076Z" fill="#CE0134"/>
<path d="M169.652 172.995L168.625 165.255C171.838 164.826 175.025 164.15 178.094 163.252L180.28 170.745C176.833 171.759 173.255 172.514 169.652 172.995Z" fill="#CE0134"/>
<path d="M160 163.902V156.098C162.992 156.098 166.049 155.837 169.093 155.33L170.38 163.031C166.907 163.616 163.421 163.902 160 163.902Z" fill="#CE0134"/>
<path d="M163.486 183.323L163.161 175.532C164.293 175.48 165.463 175.402 166.66 175.297L167.349 183.076C166.023 183.193 164.722 183.284 163.473 183.337L163.486 183.323Z" fill="#CE0134"/>
<path d="M160.872 173.632L160.781 165.828C163.382 165.802 166.023 165.606 168.624 165.255L169.665 172.995C166.764 173.385 163.798 173.593 160.885 173.632H160.872Z" fill="#CE0134"/>
<path d="M71.922 69.5805L64.5854 66.9268C79.0765 26.8878 117.424 0 160 0V7.80488C120.69 7.80488 85.2944 32.6244 71.922 69.5805Z" fill="#CE0134"/>
<path d="M83.7723 66.4195L76.6829 63.1545C91.6162 30.7122 124.332 9.7561 160 9.7561V17.561C127.363 17.561 97.4438 36.735 83.7723 66.4195Z" fill="#CE0134"/>
<path d="M95.5448 64.8195L88.7676 60.9561C103.337 35.3951 130.628 19.5122 160 19.5122V27.3171C133.424 27.3171 108.735 41.6911 95.5448 64.8195Z" fill="#CE0134"/>
<path d="M107.122 64.7285L100.722 60.2667C114.237 40.8586 136.39 29.2683 160 29.2683V37.0732C138.953 37.0732 119.18 47.4146 107.122 64.7285Z" fill="#CE0134"/>
<path d="M118.465 65.9903L112.533 60.9171C124.436 46.9984 141.737 39.0244 160 39.0244V46.8293C144.013 46.8293 128.872 53.8147 118.465 65.9903Z" fill="#CE0134"/>
<path d="M68.5918 81.0667L60.969 79.3756C61.9316 75.0699 63.1414 70.8813 64.5722 66.9138L71.9088 69.5675C70.582 73.2098 69.4633 77.0862 68.5918 81.0667Z" fill="#CE0134"/>
<path d="M79.7008 77.0991L72.2341 74.8357C73.4309 70.9073 74.9268 66.9788 76.6829 63.1544L83.7723 66.4195C82.1593 69.9186 80.7935 73.5089 79.7008 77.0991Z" fill="#CE0134"/>
<path d="M90.8229 74.7707L83.5383 71.9609C84.9952 68.1886 86.7513 64.4813 88.7676 60.9561L95.5448 64.8195C93.7237 68.0065 92.1367 71.3495 90.8229 74.7707Z" fill="#CE0134"/>
<path d="M101.776 73.9512L94.7251 70.6081C96.4162 67.0439 98.4324 63.5577 100.722 60.2797L107.122 64.7415C105.08 67.6813 103.284 70.7772 101.776 73.9512Z" fill="#CE0134"/>
<path d="M112.507 74.4716L105.73 70.6082C107.681 67.174 109.971 63.922 112.546 60.9171L118.478 65.9903C116.228 68.6179 114.224 71.4667 112.52 74.4716H112.507Z" fill="#CE0134"/>
<path d="M77.2162 87.8179L69.5154 86.5561C70.1658 82.5757 71.0764 78.6342 72.2341 74.8358L79.7007 77.0992C78.6471 80.5724 77.8146 84.1757 77.2162 87.8179Z" fill="#CE0134"/>
<path d="M66.7707 92.5268L59.0049 91.7854C59.3951 87.6878 60.0585 83.5122 60.9691 79.3756L68.5919 81.0667C67.7463 84.878 67.135 88.7415 66.7707 92.5268Z" fill="#CE0134"/>
<path d="M98.2114 83.3691L90.7188 81.1838C91.7854 77.5285 93.1383 73.9643 94.7253 70.6082L101.776 73.9512C100.358 76.9431 99.148 80.1171 98.1984 83.3821L98.2114 83.3691Z" fill="#CE0134"/>
<path d="M87.7528 84.826L80.1431 83.0829C81.0146 79.2976 82.1593 75.5642 83.5382 71.974L90.8227 74.7838C89.574 78.0358 88.5333 81.4049 87.7528 84.826Z" fill="#CE0134"/>
<path d="M108.462 83.33L101.099 80.7414C102.322 77.2552 103.883 73.8471 105.717 70.6211L112.494 74.4845C110.881 77.3073 109.528 80.2861 108.449 83.33H108.462Z" fill="#CE0134"/>
<path d="M66.3415 101.463H58.5366C58.5366 98.3415 58.6927 95.0895 59.0049 91.7854L66.7708 92.5139C66.4846 95.5708 66.3415 98.5756 66.3415 101.45V101.463Z" fill="#CE0134"/>
<path d="M58.6017 104.026L58.5756 103.246C58.5496 102.66 58.5366 102.062 58.5366 101.476H66.3415C66.3415 101.984 66.3545 102.478 66.3805 102.985L66.4065 103.844L58.6017 104.039V104.026Z" fill="#CE0134"/>
<path d="M76.1757 98.3936L68.3708 98.1074C68.5139 94.2049 68.8912 90.3155 69.5156 86.5562L77.2164 87.8179C76.657 91.2651 76.3058 94.8163 76.1757 98.3936Z" fill="#CE0134"/>
<path d="M86.1658 94.8032L78.387 94.1138C78.7122 90.4325 79.3105 86.7122 80.1431 83.0829L87.7528 84.826C86.9983 88.117 86.465 91.4731 86.1658 94.8032Z" fill="#CE0134"/>
<path d="M106.133 92.3707L98.4326 91.0829C99.018 87.5707 99.9155 84.0845 101.099 80.7415L108.462 83.3301C107.434 86.2569 106.654 89.3008 106.133 92.3707Z" fill="#CE0134"/>
<path d="M96.1952 92.8521L88.4553 91.8244C88.9366 88.2342 89.6911 84.6569 90.7057 81.1968L98.1984 83.3821C97.3008 86.4651 96.6244 89.6521 96.1952 92.8521Z" fill="#CE0134"/>
<path d="M59.5902 116.059C59.0309 112.182 58.6927 108.137 58.5886 104.026L66.3935 103.831C66.4846 107.629 66.7968 111.376 67.3171 114.94L59.5902 116.059Z" fill="#CE0134"/>
<path d="M76.0976 101.463H68.2927C68.2927 100.449 68.3318 99.4471 68.3708 98.4455V98.1073L76.1887 98.3805V98.7187C76.1496 99.6293 76.1106 100.54 76.1106 101.45L76.0976 101.463Z" fill="#CE0134"/>
<path d="M68.657 109.45C68.4098 106.589 68.2927 103.987 68.2927 101.463H76.0976C76.0976 103.753 76.2017 106.146 76.4358 108.774L68.657 109.45Z" fill="#CE0134"/>
<path d="M78.1399 104.937C78.0879 103.779 78.0488 102.621 78.0488 101.463H85.8537C85.8537 102.517 85.8927 103.571 85.9318 104.611L78.1269 104.937H78.1399Z" fill="#CE0134"/>
<path d="M85.8537 101.463H78.0488C78.0488 99.1219 78.1659 96.7154 78.387 94.1138L86.1659 94.8032C85.9578 97.1837 85.8537 99.356 85.8537 101.463Z" fill="#CE0134"/>
<path d="M95.6098 101.463H87.8049C87.8049 98.3415 88.0261 95.0894 88.4683 91.8114L96.2082 92.839C95.8179 95.7789 95.6228 98.6667 95.6228 101.45L95.6098 101.463Z" fill="#CE0134"/>
<path d="M87.8309 102.335V102.062C87.8179 101.867 87.8049 101.672 87.8049 101.476H95.6098L95.6358 102.257L87.8309 102.348V102.335Z" fill="#CE0134"/>
<path d="M105.366 101.463H97.561C97.561 98.0422 97.8602 94.5561 98.4326 91.0829L106.133 92.3707C105.626 95.4146 105.366 98.4715 105.366 101.463Z" fill="#CE0134"/>
<path d="M78.8294 162.342C68.657 148.8 62.0098 132.8 59.5903 116.046L67.3172 114.927C69.5416 130.381 75.6814 145.145 85.0733 157.646L78.8294 162.329V162.342Z" fill="#CE0134"/>
<path d="M92.2535 147.59C83.6552 134.985 78.7771 120.234 78.1267 104.95L85.9316 104.624C86.5039 118.452 90.9267 131.785 98.7056 143.193L92.2535 147.59Z" fill="#CE0134"/>
<path d="M85.2293 154.537C75.7854 141.255 70.0489 125.658 68.657 109.45L76.4358 108.774C77.7106 123.603 82.9529 137.873 91.5903 150.01L85.2293 154.537Z" fill="#CE0134"/>
<path d="M108.098 136.169C101.203 125.88 97.561 113.886 97.561 101.463H105.366C105.366 112.325 108.553 122.823 114.576 131.824L108.085 136.169H108.098Z" fill="#CE0134"/>
<path d="M99.8894 141.45C92.1625 129.86 87.9869 116.332 87.8308 102.335L95.6357 102.244C95.7788 114.732 99.4991 126.79 106.393 137.119L99.9024 141.45H99.8894Z" fill="#CE0134"/>
<path d="M130.459 128.117L123.122 125.463C125.099 119.987 127.623 114.576 130.615 109.398L137.379 113.301C134.608 118.088 132.28 123.083 130.459 128.13V128.117Z" fill="#AED6BC"/>
<path d="M171.694 98.0683C169.587 95.6748 167.363 93.3983 165.073 91.278L170.381 85.5544C172.852 87.8439 175.259 90.3154 177.548 92.904L171.694 98.0683Z" fill="#AED6BC"/>
<path d="M182.621 113.288C181.073 110.595 179.356 107.941 177.548 105.418L183.883 100.865C185.847 103.597 187.707 106.471 189.385 109.385L182.621 113.288Z" fill="#AED6BC"/>
<path d="M192.872 139.603C191.987 135.623 190.868 131.759 189.554 128.104L196.891 125.45C198.322 129.418 199.545 133.607 200.494 137.912L192.872 139.603Z" fill="#AED6BC"/>
<path d="M157.398 97.483C155.109 95.4407 152.624 93.4634 150.023 91.6033L154.55 85.2423C157.398 87.2716 160.117 89.4309 162.615 91.6683L157.411 97.483H157.398Z" fill="#AED6BC"/>
<path d="M165.073 91.278C162.654 89.0406 160.169 86.9593 157.658 85.0731L162.341 78.8292C165.06 80.8715 167.766 83.1349 170.367 85.5544L165.06 91.278H165.073Z" fill="#AED6BC"/>
<path d="M169.821 111.376C167.987 108.8 166.023 106.341 164.007 104.078L169.821 98.8748C172.033 101.359 174.179 104.039 176.182 106.836L169.821 111.363V111.376Z" fill="#AED6BC"/>
<path d="M177.548 105.418C175.714 102.868 173.75 100.397 171.694 98.0683L177.548 92.9041C179.772 95.4276 181.906 98.1073 183.896 100.865L177.561 105.418H177.548Z" fill="#AED6BC"/>
<path d="M189.541 128.117C187.707 123.07 185.379 118.075 182.621 113.288L189.385 109.385C192.377 114.576 194.901 119.974 196.878 125.45L189.541 128.104V128.117Z" fill="#AED6BC"/>
<path d="M177.691 124.956C176.794 123.005 175.844 121.132 174.881 119.402L181.711 115.616C182.764 117.515 183.792 119.558 184.781 121.691L177.691 124.956Z" fill="#AED6BC"/>
<path d="M184.247 146.354C183.649 142.712 182.816 139.109 181.763 135.636L189.229 133.372C190.374 137.171 191.298 141.112 191.948 145.093L184.247 146.354Z" fill="#AED6BC"/>
<path d="M157.073 110.985C155.031 108.67 152.82 106.459 150.504 104.416L155.668 98.5626C158.231 100.826 160.664 103.272 162.927 105.821L157.073 110.985Z" fill="#AED6BC"/>
<path d="M164.007 104.091C161.938 101.776 159.714 99.5513 157.398 97.483L162.602 91.6683C165.125 93.9317 167.558 96.3643 169.821 98.8878L164.007 104.091Z" fill="#AED6BC"/>
<path d="M174.894 119.402C173.398 116.709 171.694 114.003 169.821 111.389L176.182 106.862C178.224 109.724 180.084 112.663 181.723 115.616L174.894 119.402Z" fill="#AED6BC"/>
<path d="M165.919 123.356C164.865 121.522 163.876 119.909 162.875 118.439L169.327 114.055C170.432 115.694 171.538 117.476 172.683 119.493L165.906 123.356H165.919Z" fill="#AED6BC"/>
<path d="M170.641 133.307C169.808 131.161 168.885 129.054 167.896 127.05L174.881 123.577C175.987 125.802 177.002 128.13 177.925 130.498L170.641 133.307Z" fill="#AED6BC"/>
<path d="M181.763 135.636C180.67 132.046 179.304 128.455 177.691 124.956L184.781 121.691C186.537 125.515 188.033 129.444 189.229 133.372L181.763 135.636Z" fill="#AED6BC"/>
<path d="M144.403 112.026C142.114 109.971 139.668 108.085 137.132 106.38L141.463 99.8894C144.312 101.789 147.057 103.909 149.619 106.211L144.416 112.026H144.403Z" fill="#AED6BC"/>
<path d="M150.504 104.416C148.137 102.335 145.678 100.41 143.18 98.7057L147.577 92.2537C150.335 94.1398 153.054 96.2602 155.668 98.5626L150.504 104.416Z" fill="#AED6BC"/>
<path d="M154.341 123.265C153.236 121.665 152.078 120.156 150.907 118.751L156.891 113.743C158.205 115.317 159.506 117.021 160.741 118.803L154.341 123.265Z" fill="#AED6BC"/>
<path d="M162.875 118.439C161.158 115.915 159.207 113.405 157.073 110.985L162.927 105.821C165.281 108.488 167.441 111.259 169.34 114.055L162.875 118.439Z" fill="#AED6BC"/>
<path d="M167.896 127.05C167.298 125.854 166.634 124.618 165.919 123.356L172.696 119.493C173.489 120.885 174.218 122.25 174.881 123.577L167.896 127.05Z" fill="#AED6BC"/>
<path d="M159.688 132.488C158.764 130.537 157.75 128.637 156.657 126.842L163.343 122.81C164.566 124.839 165.711 126.972 166.738 129.158L159.688 132.501V132.488Z" fill="#AED6BC"/>
<path d="M173.711 143.363C172.93 139.942 171.889 136.559 170.641 133.32L177.925 130.511C179.317 134.101 180.449 137.834 181.32 141.62L173.711 143.363Z" fill="#AED6BC"/>
<path d="M163.265 141.906C162.784 140.254 162.237 138.641 161.652 137.08L168.95 134.296C169.613 136.039 170.224 137.873 170.771 139.72L163.278 141.906H163.265Z" fill="#AED6BC"/>
<path d="M142.998 124.527C141.763 123.07 140.423 121.665 139.018 120.338L144.39 114.667C145.99 116.189 147.525 117.802 148.943 119.454L143.011 124.527H142.998Z" fill="#AED6BC"/>
<path d="M150.894 118.751C148.904 116.371 146.719 114.107 144.39 112.026L149.593 106.211C152.195 108.54 154.654 111.089 156.878 113.756L150.881 118.764L150.894 118.751Z" fill="#AED6BC"/>
<path d="M148.956 133.008C147.876 131.122 146.706 129.314 145.47 127.623L151.753 122.992C153.171 124.917 154.511 126.985 155.733 129.145L148.956 133.008Z" fill="#AED6BC"/>
<path d="M156.657 126.829C155.981 125.698 155.213 124.54 154.342 123.265L160.742 118.803C161.717 120.208 162.576 121.522 163.343 122.797L156.657 126.816V126.829Z" fill="#AED6BC"/>
<path d="M153.002 141.867C152.468 140.345 151.844 138.823 151.167 137.314L158.27 134.062C159.05 135.779 159.766 137.522 160.377 139.265L153.015 141.854L153.002 141.867Z" fill="#AED6BC"/>
<path d="M161.639 137.08C161.028 135.48 160.364 133.932 159.688 132.475L166.738 129.132C167.506 130.758 168.247 132.501 168.937 134.296L161.639 137.08Z" fill="#AED6BC"/>
<path d="M165.268 151.389C164.839 148.189 164.163 145.002 163.265 141.919L170.758 139.733C171.772 143.194 172.527 146.771 173.008 150.361L165.268 151.389Z" fill="#AED6BC"/>
<path d="M163.902 160H156.098C156.098 157.008 155.837 153.951 155.33 150.907L163.031 149.62C163.616 153.08 163.902 156.579 163.902 160Z" fill="#AED6BC"/>
<path d="M159.219 154.172L159.141 146.367H159.415C159.61 146.354 159.805 146.341 159.987 146.341V154.146L159.206 154.172H159.219Z" fill="#AED6BC"/>
<path d="M145.47 127.636C144.715 126.621 143.883 125.58 142.998 124.527L148.93 119.454C149.945 120.637 150.894 121.834 151.753 123.005L145.47 127.636Z" fill="#AED6BC"/>
<path d="M151.167 137.314C150.504 135.857 149.762 134.413 148.969 133.008L155.746 129.145C156.657 130.745 157.502 132.397 158.27 134.062L151.167 137.301V137.314Z" fill="#AED6BC"/>
<path d="M155.33 150.907C154.81 147.824 154.029 144.781 153.002 141.867L160.364 139.278C161.535 142.621 162.433 146.107 163.031 149.62L155.33 150.907Z" fill="#AED6BC"/>
<path d="M79.3756 259.018C75.0699 258.068 70.8813 256.845 66.9138 255.415L69.5675 248.078C73.2098 249.405 77.0862 250.524 81.0667 251.395L79.3756 259.018Z" fill="#AED6BC"/>
<path d="M101.463 261.463C98.3415 261.463 95.0765 261.307 91.7854 260.995L92.5269 253.229C95.5708 253.515 98.5756 253.659 101.463 253.659V261.463Z" fill="#AED6BC"/>
<path d="M101.463 261.463V253.659C101.971 253.659 102.465 253.646 102.959 253.62L103.831 253.594L104.026 261.398L103.219 261.424C102.634 261.45 102.049 261.463 101.463 261.463Z" fill="#AED6BC"/>
<path d="M116.059 260.41L114.94 252.683C130.394 250.459 145.158 244.319 157.659 234.94L162.342 241.184C148.8 251.356 132.8 258.003 116.059 260.423V260.41Z" fill="#AED6BC"/>
<path d="M66.9138 255.428C26.8878 240.924 0 202.589 0 160H7.80488C7.80488 199.311 32.6244 234.706 69.5805 248.078L66.9268 255.415L66.9138 255.428Z" fill="#AED6BC"/>
<path d="M63.1545 243.317C30.7122 228.384 9.7561 195.668 9.7561 160H17.561C17.561 192.637 36.735 222.556 66.4195 236.228L63.1545 243.317Z" fill="#AED6BC"/>
<path d="M91.7855 260.995C87.6749 260.605 83.4993 259.941 79.3757 259.031L81.0668 251.408C84.8782 252.254 88.7286 252.865 92.5139 253.229L91.7855 260.995Z" fill="#AED6BC"/>
<path d="M86.556 250.485C82.5885 249.834 78.6471 248.924 74.8357 247.766L77.0991 240.299C80.5723 241.353 84.1755 242.185 87.8178 242.784L86.556 250.485Z" fill="#AED6BC"/>
<path d="M104.026 261.398L103.831 253.593C107.629 253.502 111.376 253.19 114.94 252.67L116.058 260.397C112.182 260.956 108.137 261.294 104.026 261.398Z" fill="#AED6BC"/>
<path d="M101.464 251.707C100.449 251.707 99.4473 251.668 98.4456 251.642H98.1074L98.3806 243.824H98.7188C99.6294 243.863 100.54 243.902 101.451 243.902V251.707H101.464Z" fill="#AED6BC"/>
<path d="M101.463 251.707V243.902C103.753 243.902 106.133 243.798 108.774 243.564L109.437 251.343C106.576 251.59 103.961 251.707 101.45 251.707H101.463Z" fill="#AED6BC"/>
<path d="M71.9609 236.462C68.1886 235.005 64.4813 233.249 60.9561 231.233L64.8195 224.455C68.0065 226.276 71.3626 227.863 74.7707 229.177L71.9609 236.462Z" fill="#AED6BC"/>
<path d="M74.8358 247.766C70.9074 246.569 66.9789 245.073 63.1545 243.317L66.4196 236.228C69.9188 237.841 73.509 239.207 77.0993 240.299L74.8358 247.766Z" fill="#AED6BC"/>
<path d="M98.1074 251.629C94.2049 251.486 90.3155 251.109 86.5562 250.485L87.8179 242.784C91.2651 243.343 94.8163 243.694 98.3936 243.824L98.1074 251.629Z" fill="#AED6BC"/>
<path d="M94.1139 241.613C90.4196 241.288 86.7123 240.689 83.083 239.857L84.8261 232.247C88.1172 233.002 91.4732 233.535 94.8033 233.834L94.1139 241.613Z" fill="#AED6BC"/>
<path d="M104.937 241.86L104.611 234.068C118.439 233.483 131.785 229.073 143.18 221.294L147.577 227.746C134.972 236.345 120.221 241.236 104.937 241.873V241.86Z" fill="#AED6BC"/>
<path d="M109.45 251.343L108.774 243.564C123.603 242.289 137.873 237.047 150.01 228.41L154.537 234.771C141.255 244.215 125.671 249.951 109.45 251.343Z" fill="#AED6BC"/>
<path d="M60.9561 231.233C35.3951 216.663 19.5122 189.372 19.5122 160H27.3171C27.3171 186.576 41.6911 211.265 64.8195 224.455L60.9561 231.233Z" fill="#AED6BC"/>
<path d="M60.2667 219.278C40.8586 205.763 29.2683 183.61 29.2683 160H37.0732C37.0732 181.047 47.4146 200.82 64.7285 212.878L60.2667 219.278Z" fill="#AED6BC"/>
<path d="M81.1838 229.281C77.5285 228.215 73.9643 226.862 70.6082 225.275L73.9512 218.224C76.9431 219.642 80.1171 220.839 83.3821 221.802L81.1968 229.294L81.1838 229.281Z" fill="#AED6BC"/>
<path d="M83.0828 239.857C79.2975 238.985 75.5641 237.854 71.9739 236.462L74.7836 229.177C78.0357 230.426 81.4048 231.467 84.8259 232.247L83.0828 239.857Z" fill="#AED6BC"/>
<path d="M101.463 241.951V234.146C102.517 234.146 103.571 234.107 104.611 234.068L104.937 241.86C103.779 241.912 102.621 241.951 101.463 241.951Z" fill="#AED6BC"/>
<path d="M101.463 241.951C99.1219 241.951 96.7154 241.834 94.1138 241.613L94.8032 233.834C97.1707 234.042 99.343 234.146 101.463 234.146V241.951Z" fill="#AED6BC"/>
<path d="M101.463 232.195C98.3414 232.195 95.0893 231.974 91.8113 231.532L92.8519 223.792C95.7788 224.182 98.6796 224.39 101.463 224.39V232.195Z" fill="#AED6BC"/>
<path d="M101.463 232.195V224.39L102.244 224.364L102.322 232.169H102.049C101.854 232.182 101.659 232.195 101.463 232.195Z" fill="#AED6BC"/>
<path d="M70.6081 225.275C67.0308 223.584 63.5577 221.568 60.2666 219.278L64.7284 212.878C67.6552 214.92 70.7642 216.715 73.9381 218.224L70.5951 225.275H70.6081Z" fill="#AED6BC"/>
<path d="M91.0829 221.567C87.5707 220.982 84.0845 220.085 80.7415 218.901L83.3301 211.538C86.2569 212.566 89.3008 213.346 92.3707 213.867L91.0829 221.567Z" fill="#AED6BC"/>
<path d="M91.8115 231.532C88.2082 231.05 84.631 230.296 81.1838 229.281L83.3692 221.789C86.4391 222.686 89.6261 223.363 92.8391 223.792L91.8115 231.532Z" fill="#AED6BC"/>
<path d="M101.463 222.439V214.634C112.325 214.634 122.823 211.447 131.824 205.424L136.169 211.902C125.88 218.797 113.886 222.439 101.463 222.439Z" fill="#AED6BC"/>
<path d="M102.335 232.169L102.244 224.364C114.732 224.221 126.79 220.501 137.119 213.607L141.45 220.098C129.86 227.824 116.332 232 102.335 232.169Z" fill="#AED6BC"/>
<path d="M60.9171 207.467C46.9984 195.577 39.0244 178.263 39.0244 160H46.8293C46.8293 175.987 53.8147 191.128 65.9903 201.535L60.9171 207.467Z" fill="#AED6BC"/>
<path d="M80.7414 218.901C77.2552 217.678 73.8471 216.117 70.6211 214.283L74.4845 207.506C77.3073 209.119 80.2861 210.472 83.33 211.551L80.7414 218.914V218.901Z" fill="#AED6BC"/>
<path d="M101.464 222.439C98.0424 222.439 94.5562 222.14 91.083 221.568L92.3708 213.867C95.4147 214.374 98.4716 214.634 101.464 214.634V222.439Z" fill="#AED6BC"/>
<path d="M125.45 196.891C119.974 194.914 114.576 192.39 109.372 189.398L113.275 182.634C118.075 185.405 123.07 187.733 128.104 189.554L125.45 196.891Z" fill="#CE0134"/>
<path d="M91.278 154.927L85.5544 149.619C87.8439 147.148 90.3154 144.728 92.904 142.452L98.0683 148.306C95.6748 150.413 93.3983 152.637 91.278 154.927Z" fill="#CE0134"/>
<path d="M105.418 142.452L100.865 136.117C103.597 134.153 106.458 132.306 109.385 130.615L113.288 137.379C110.582 138.94 107.928 140.644 105.418 142.452Z" fill="#CE0134"/>
<path d="M128.117 130.459L125.463 123.122C129.431 121.691 133.619 120.481 137.925 119.519L139.616 127.141C135.636 128.026 131.772 129.145 128.117 130.459Z" fill="#CE0134"/>
<path d="M85.0733 162.341L78.8293 157.658C80.8716 154.953 83.122 152.247 85.5545 149.632L91.2781 154.94C89.0407 157.359 86.9464 159.857 85.0733 162.354V162.341Z" fill="#CE0134"/>
<path d="M91.5902 169.99L85.2292 165.463C87.2585 162.615 89.4179 159.896 91.6553 157.398L97.4699 162.602C95.4276 164.878 93.4504 167.363 91.5902 169.977V169.99Z" fill="#CE0134"/>
<path d="M98.0683 148.306L92.9041 142.452C95.4146 140.228 98.0943 138.094 100.865 136.104L105.418 142.439C102.855 144.273 100.384 146.25 98.0683 148.293V148.306Z" fill="#CE0134"/>
<path d="M104.091 155.993L98.8877 150.179C101.359 147.967 104.039 145.834 106.849 143.818L111.376 150.166C108.8 152.013 106.341 153.964 104.078 155.98L104.091 155.993Z" fill="#CE0134"/>
<path d="M113.288 137.379L109.385 130.615C114.575 127.623 119.974 125.099 125.463 123.122L128.117 130.459C123.07 132.293 118.075 134.621 113.288 137.379Z" fill="#CE0134"/>
<path d="M119.402 145.106L115.616 138.276C117.528 137.223 119.571 136.182 121.691 135.207L124.956 142.296C123.005 143.194 121.145 144.13 119.402 145.106Z" fill="#CE0134"/>
<path d="M135.636 138.237L133.372 130.771C137.171 129.613 141.112 128.702 145.093 128.052L146.354 135.753C142.725 136.351 139.109 137.184 135.636 138.237Z" fill="#CE0134"/>
<path d="M97.4828 162.602L91.6682 157.398C93.9316 154.862 96.3641 152.442 98.8877 150.179L104.091 155.993C101.776 158.062 99.5511 160.286 97.4828 162.602Z" fill="#CE0134"/>
<path d="M104.416 169.496L98.5625 164.332C100.826 161.769 103.258 159.337 105.821 157.073L110.985 162.927C108.67 164.969 106.458 167.18 104.416 169.496Z" fill="#CE0134"/>
<path d="M111.376 150.179L106.849 143.818C109.711 141.776 112.664 139.915 115.603 138.276L119.389 145.106C116.696 146.602 114.003 148.306 111.376 150.166V150.179Z" fill="#CE0134"/>
<path d="M118.439 157.125L114.055 150.66C115.694 149.541 117.476 148.449 119.493 147.304L123.356 154.081C121.522 155.122 119.909 156.124 118.439 157.125Z" fill="#CE0134"/>
<path d="M124.956 142.309L121.691 135.22C125.516 133.463 129.444 131.967 133.372 130.771L135.636 138.237C132.046 139.33 128.455 140.696 124.956 142.309Z" fill="#CE0134"/>
<path d="M127.063 152.104L123.59 145.119C125.802 144.013 128.13 142.998 130.511 142.075L133.32 149.359C131.174 150.192 129.067 151.115 127.063 152.104Z" fill="#CE0134"/>
<path d="M98.7057 176.819L92.2537 172.423C94.1398 169.652 96.2602 166.933 98.5626 164.332L104.416 169.496C102.335 171.85 100.41 174.322 98.7057 176.819Z" fill="#CE0134"/>
<path d="M106.38 182.881L99.8894 178.55C101.789 175.701 103.909 172.956 106.211 170.393L112.026 175.597C109.984 177.886 108.085 180.332 106.38 182.881Z" fill="#CE0134"/>
<path d="M110.985 162.927L105.821 157.073C108.488 154.719 111.271 152.559 114.055 150.66L118.439 157.125C115.915 158.842 113.405 160.793 110.985 162.927Z" fill="#CE0134"/>
<path d="M118.751 169.106L113.743 163.109C115.304 161.795 117.008 160.507 118.803 159.259L123.265 165.659C121.665 166.777 120.143 167.935 118.751 169.093V169.106Z" fill="#CE0134"/>
<path d="M123.356 154.081L119.493 147.304C120.885 146.511 122.25 145.782 123.577 145.119L127.05 152.104C125.854 152.702 124.618 153.366 123.356 154.081Z" fill="#CE0134"/>
<path d="M126.829 163.343L122.797 156.657C124.826 155.434 126.959 154.289 129.132 153.262L132.475 160.312C130.524 161.236 128.625 162.25 126.816 163.343H126.829Z" fill="#CE0134"/>
<path d="M137.08 158.361L134.296 151.063C136.039 150.4 137.86 149.789 139.707 149.242L141.893 156.735C140.241 157.216 138.615 157.763 137.067 158.361H137.08Z" fill="#CE0134"/>
<path d="M133.307 149.359L130.498 142.075C134.088 140.683 137.821 139.551 141.607 138.68L143.35 146.289C139.928 147.07 136.546 148.111 133.307 149.359Z" fill="#CE0134"/>
<path d="M112.026 175.61L106.211 170.406C108.54 167.805 111.076 165.346 113.756 163.122L118.764 169.106C116.384 171.096 114.12 173.281 112.039 175.61H112.026Z" fill="#CE0134"/>
<path d="M120.338 180.982L114.667 175.623C116.176 174.036 117.789 172.501 119.454 171.07L124.527 177.002C123.07 178.25 121.652 179.59 120.338 180.982Z" fill="#CE0134"/>
<path d="M123.265 165.659L118.803 159.246C120.221 158.257 121.522 157.411 122.797 156.644L126.816 163.33C125.698 164.007 124.527 164.761 123.252 165.646L123.265 165.659Z" fill="#CE0134"/>
<path d="M127.636 174.53L123.005 168.247C124.93 166.829 126.998 165.489 129.158 164.267L133.021 171.044C131.135 172.124 129.327 173.294 127.636 174.53Z" fill="#CE0134"/>
<path d="M132.488 160.312L129.145 153.262C130.784 152.481 132.514 151.753 134.309 151.063L137.08 158.361C135.48 158.972 133.932 159.623 132.475 160.312H132.488Z" fill="#CE0134"/>
<path d="M137.314 168.833L134.075 161.73C135.792 160.95 137.548 160.234 139.278 159.623L141.867 166.985C140.358 167.519 138.823 168.13 137.314 168.82V168.833Z" fill="#CE0134"/>
<path d="M146.368 160.872V160.598C146.355 160.403 146.342 160.208 146.342 160.013H154.146L154.172 160.794L146.368 160.885V160.872Z" fill="#CE0134"/>
<path d="M141.906 156.735L139.72 149.242C143.18 148.228 146.758 147.473 150.348 146.992L151.375 154.732C148.175 155.161 144.988 155.837 141.906 156.735Z" fill="#CE0134"/>
<path d="M114.576 188.176L108.098 183.831C110.023 180.956 112.234 178.198 114.68 175.61L120.351 180.969C118.205 183.232 116.267 185.652 114.589 188.163L114.576 188.176Z" fill="#CE0134"/>
<path d="M124.527 177.002L119.454 171.07C120.676 170.029 121.834 169.106 123.005 168.247L127.636 174.53C126.621 175.272 125.606 176.091 124.527 177.002Z" fill="#CE0134"/>
<path d="M133.021 171.044L129.158 164.267C130.758 163.356 132.41 162.511 134.075 161.743L137.314 168.845C135.857 169.509 134.4 170.25 133.008 171.044H133.021Z" fill="#CE0134"/>
<path d="M141.867 166.998L139.278 159.636C142.621 158.465 146.107 157.567 149.62 156.969L150.907 164.67C147.824 165.19 144.794 165.971 141.867 166.998Z" fill="#CE0134"/>
<path d="M157.659 241.171C154.953 239.128 152.247 236.865 149.633 234.445L154.94 228.722C157.359 230.959 159.857 233.054 162.355 234.927L157.672 241.171H157.659Z" fill="#AED6BC"/>
<path d="M165.463 234.771C162.615 232.741 159.896 230.582 157.398 228.345L162.602 222.53C164.891 224.572 167.376 226.55 169.977 228.41L165.45 234.771H165.463Z" fill="#AED6BC"/>
<path d="M172.423 227.746C169.665 225.86 166.933 223.74 164.332 221.437L169.496 215.584C171.85 217.665 174.322 219.59 176.807 221.294L172.41 227.746H172.423Z" fill="#AED6BC"/>
<path d="M178.55 220.111C175.701 218.211 172.956 216.078 170.394 213.789L175.597 207.974C177.886 210.016 180.332 211.915 182.868 213.62L178.537 220.111H178.55Z" fill="#AED6BC"/>
<path d="M183.831 211.902C180.956 209.977 178.198 207.766 175.61 205.32L180.982 199.649C183.246 201.795 185.665 203.733 188.176 205.411L183.831 211.889V211.902Z" fill="#AED6BC"/>
<path d="M149.62 234.446C147.148 232.156 144.742 229.685 142.452 227.096L148.306 221.932C150.413 224.325 152.651 226.615 154.927 228.722L149.62 234.446Z" fill="#AED6BC"/>
<path d="M164.332 221.437C161.782 219.187 159.337 216.741 157.073 214.179L162.927 209.015C164.969 211.33 167.181 213.541 169.496 215.584L164.332 221.437Z" fill="#AED6BC"/>
<path d="M157.398 228.332C154.875 226.068 152.442 223.649 150.179 221.112L155.994 215.909C158.075 218.224 160.299 220.449 162.602 222.517L157.398 228.332Z" fill="#AED6BC"/>
<path d="M175.623 205.333C174.023 203.811 172.488 202.211 171.07 200.546L177.002 195.473C178.25 196.93 179.59 198.335 180.982 199.662L175.61 205.333H175.623Z" fill="#AED6BC"/>
<path d="M170.393 213.789C167.792 211.46 165.346 208.924 163.109 206.244L169.093 201.236C171.083 203.616 173.281 205.893 175.597 207.961L170.393 213.776V213.789Z" fill="#AED6BC"/>
<path d="M171.07 200.546C170.042 199.337 169.106 198.179 168.247 196.995L174.53 192.364C175.284 193.392 176.091 194.407 177.002 195.473L171.07 200.546Z" fill="#AED6BC"/>
<path d="M142.465 227.096C140.241 224.585 138.107 221.906 136.117 219.135L142.452 214.582C144.286 217.132 146.264 219.616 148.306 221.932L142.452 227.096H142.465Z" fill="#AED6BC"/>
<path d="M150.179 221.112C147.967 218.641 145.821 215.948 143.818 213.138L150.179 208.611C152.013 211.187 153.964 213.646 155.993 215.909L150.179 221.112Z" fill="#AED6BC"/>
<path d="M157.073 214.179C154.719 211.512 152.572 208.741 150.66 205.945L157.125 201.561C158.842 204.084 160.793 206.595 162.927 209.015L157.073 214.179Z" fill="#AED6BC"/>
<path d="M163.109 206.244C161.795 204.67 160.494 202.966 159.259 201.184L165.659 196.722C166.764 198.322 167.922 199.831 169.093 201.236L163.109 206.244Z" fill="#AED6BC"/>
<path d="M159.259 201.197C158.283 199.805 157.437 198.491 156.657 197.203L163.343 193.171C164.033 194.315 164.787 195.473 165.672 196.735L159.272 201.197H159.259Z" fill="#AED6BC"/>
<path d="M168.247 196.995C166.829 195.07 165.489 193.002 164.267 190.842L171.044 186.979C172.124 188.865 173.294 190.673 174.53 192.351L168.247 196.982V196.995Z" fill="#AED6BC"/>
<path d="M164.254 190.842C163.343 189.242 162.497 187.59 161.73 185.925L168.832 182.686C169.496 184.143 170.237 185.587 171.031 186.992L164.254 190.855V190.842Z" fill="#AED6BC"/>
<path d="M136.117 219.135C134.153 216.403 132.306 213.541 130.615 210.615L137.379 206.712C138.94 209.418 140.644 212.059 142.452 214.582L136.117 219.135Z" fill="#AED6BC"/>
<path d="M143.818 213.151C141.789 210.289 139.915 207.35 138.276 204.397L145.106 200.611C146.602 203.317 148.306 206.01 150.179 208.624L143.818 213.151Z" fill="#AED6BC"/>
<path d="M150.66 205.932C149.541 204.28 148.436 202.511 147.304 200.494L154.081 196.631C155.122 198.465 156.123 200.065 157.125 201.548L150.66 205.932Z" fill="#AED6BC"/>
<path d="M147.304 200.507C146.511 199.115 145.782 197.75 145.119 196.423L152.104 192.95C152.702 194.146 153.366 195.382 154.081 196.644L147.304 200.507Z" fill="#AED6BC"/>
<path d="M156.657 197.203C155.434 195.174 154.289 193.041 153.262 190.868L160.312 187.525C161.236 189.476 162.25 191.376 163.343 193.184L156.657 197.216V197.203Z" fill="#AED6BC"/>
<path d="M153.262 190.855C152.494 189.229 151.753 187.486 151.063 185.691L158.361 182.907C158.972 184.507 159.636 186.055 160.312 187.512L153.262 190.855Z" fill="#AED6BC"/>
<path d="M161.743 185.925C160.963 184.208 160.247 182.465 159.636 180.722L166.998 178.133C167.532 179.655 168.156 181.177 168.832 182.686L161.73 185.938L161.743 185.925Z" fill="#AED6BC"/>
<path d="M159.636 180.722C158.452 177.379 157.567 173.893 156.969 170.38L164.67 169.093C165.19 172.163 165.971 175.206 166.998 178.133L159.636 180.722Z" fill="#AED6BC"/>
<path d="M156.969 170.38C156.384 166.907 156.098 163.421 156.098 160H163.903C163.903 162.992 164.163 166.049 164.67 169.093L156.969 170.38Z" fill="#AED6BC"/>
<path d="M160 173.659V165.854L160.78 165.828L160.859 173.633H160.585C160.39 173.646 160.195 173.659 160 173.659Z" fill="#AED6BC"/>
<path d="M130.615 210.615C127.623 205.424 125.099 200.026 123.122 194.537L130.459 191.883C132.293 196.93 134.621 201.925 137.379 206.712L130.615 210.615Z" fill="#AED6BC"/>
<path d="M138.289 204.384C137.236 202.472 136.195 200.429 135.219 198.309L142.309 195.044C143.206 196.995 144.143 198.855 145.119 200.598L138.289 204.384Z" fill="#AED6BC"/>
<path d="M123.122 194.55C121.691 190.595 120.481 186.393 119.519 182.088L127.142 180.397C128.026 184.377 129.145 188.241 130.459 191.896L123.122 194.55Z" fill="#AED6BC"/>
<path d="M135.22 198.309C133.463 194.485 131.967 190.556 130.771 186.628L138.237 184.364C139.33 187.955 140.696 191.545 142.309 195.044L135.22 198.309Z" fill="#AED6BC"/>
<path d="M145.119 196.41C144.013 194.185 142.998 191.87 142.075 189.489L149.359 186.68C150.192 188.826 151.115 190.933 152.104 192.937L145.119 196.41Z" fill="#AED6BC"/>
<path d="M130.771 186.628C129.613 182.829 128.702 178.888 128.052 174.907L135.753 173.646C136.351 177.288 137.184 180.891 138.237 184.364L130.771 186.628Z" fill="#AED6BC"/>
<path d="M142.075 189.502C140.683 185.912 139.551 182.166 138.68 178.393L146.289 176.65C147.07 180.072 148.111 183.454 149.359 186.693L142.075 189.502Z" fill="#AED6BC"/>
<path d="M151.063 185.691C150.4 183.948 149.789 182.127 149.242 180.28L156.735 178.094C157.216 179.746 157.763 181.372 158.348 182.92L151.05 185.704L151.063 185.691Z" fill="#AED6BC"/>
<path d="M149.255 180.28C148.241 176.819 147.486 173.242 147.005 169.652L154.745 168.624C155.174 171.824 155.85 175.024 156.748 178.094L149.255 180.28Z" fill="#AED6BC"/>
</svg>
