<svg width="321" height="321" fill="none" xmlns="http://www.w3.org/2000/svg"><path d="M175.297 153.34a74.614 74.614 0 00-1.587-9.977l7.61-1.743a81.978 81.978 0 011.756 11.03l-7.779.69zM138.68 178.38a81.978 81.978 0 01-1.756-11.03l7.778-.69c.3 3.33.833 6.686 1.587 9.977l-7.609 1.743z" fill="#AED6BC"/><path d="M143.363 146.289l-1.743-7.609a82.297 82.297 0 0111.031-1.756l.689 7.778c-3.33.3-6.686.833-9.977 1.587zM121.691 184.781a88.694 88.694 0 01-6.075-3.07l3.786-6.83a87.899 87.899 0 005.554 2.81l-3.265 7.09z" fill="#CE0134"/><path d="M136.923 167.35a85.626 85.626 0 01-.26-3.877l7.805-.325c.052 1.184.13 2.341.234 3.512l-7.779.69zM119.506 182.088a99.335 99.335 0 01-1.379-7.493l7.727-1.119a99.507 99.507 0 001.274 6.921l-7.622 1.691zM128.052 174.907a95.202 95.202 0 01-.858-6.933l7.778-.676c.183 2.159.456 4.292.781 6.335l-7.701 1.261v.013zM147.005 169.652a73.87 73.87 0 01-.638-8.78l7.805-.091c.026 2.601.221 5.242.573 7.843l-7.74 1.028zM142.309 124.956l-7.09-3.265a88.621 88.621 0 013.07-6.075l6.83 3.786a87.805 87.805 0 00-2.81 5.554z" fill="#AED6BC"/><path d="M139.603 127.128l-1.691-7.622a99.335 99.335 0 017.493-1.379l1.118 7.727a99.59 99.59 0 00-6.92 1.274zM146.355 135.753l-1.262-7.701a96.365 96.365 0 016.92-.859l.677 7.779a86.87 86.87 0 00-6.335.781zM153.34 144.702l-.69-7.778a84.418 84.418 0 013.877-.261l.325 7.792c-1.132.052-2.302.13-3.499.234l-.013.013zM151.389 154.732l-1.028-7.74c2.927-.39 5.88-.598 8.781-.638l.091 7.805a64.03 64.03 0 00-7.844.573zM150.907 164.67l-1.287-7.701a62.614 62.614 0 0110.38-.871v7.804c-2.992 0-6.049.261-9.093.768zM76.436 211.226l-7.779-.676a91.417 91.417 0 0116.572-45.087l6.361 4.527a83.584 83.584 0 00-15.154 41.236z" fill="#CE0134"/><path d="M67.317 205.06l-7.727-1.118c2.42-16.742 9.067-32.755 19.24-46.283l6.243 4.683a93.7 93.7 0 00-17.756 42.718z" fill="#CE0134"/><path d="M70.621 214.283a61.32 61.32 0 01-9.69-6.816l5.072-5.932a54.092 54.092 0 008.482 5.958l-3.864 6.777v.013z" fill="#AED6BC"/><path d="M85.932 215.389l-7.805-.326a81.649 81.649 0 0114.127-42.64l6.452 4.396c-7.78 11.409-12.19 24.742-12.774 38.57zM105.366 218.537h-7.805c0-12.41 3.642-24.417 10.537-34.706l6.491 4.345c-6.023 9.001-9.21 19.499-9.21 30.361h-.013z" fill="#CE0134"/><path d="M95.636 217.756l-7.805-.091c.169-13.997 4.331-27.525 12.058-39.115l6.491 4.331c-6.894 10.342-10.601 22.4-10.757 34.875h.013z" fill="#CE0134"/><path d="M203.941 260.41a101.47 101.47 0 01-46.295-19.239l4.682-6.244a93.538 93.538 0 0042.719 17.743l-1.119 7.727.013.013z" fill="#AED6BC"/><path d="M210.55 251.343a91.416 91.416 0 01-45.087-16.572l4.527-6.361a83.59 83.59 0 0041.236 15.154l-.676 7.779z" fill="#AED6BC"/><path d="M200.598 145.106a85.017 85.017 0 00-5.554-2.81l3.265-7.089a88.24 88.24 0 016.075 3.069l-3.786 6.83z" fill="#CE0134"/><path d="M194.146 146.524a96.45 96.45 0 00-1.274-6.908l7.622-1.691c.56 2.55 1.028 5.073 1.379 7.493l-7.727 1.119v-.013zM185.028 152.689a87.564 87.564 0 00-.781-6.335l7.701-1.261c.364 2.237.65 4.566.858 6.92l-7.778.676zM175.532 156.852a73.414 73.414 0 00-.234-3.512l7.778-.69c.118 1.366.209 2.628.261 3.877l-7.805.325zM165.828 159.233a63.463 63.463 0 00-.573-7.844l7.74-1.028a73.87 73.87 0 01.638 8.78l-7.805.092z" fill="#AED6BC"/><path d="M241.171 162.341l-6.244-4.682a93.554 93.554 0 0017.743-42.719l7.727 1.119c-2.407 16.741-9.067 32.754-19.239 46.295l.013-.013zM227.746 147.59l-6.452-4.397c7.779-11.408 12.189-24.741 12.774-38.569l7.805.326a81.64 81.64 0 01-14.127 42.64z" fill="#CE0134"/><path d="M234.771 154.537l-6.361-4.527a83.59 83.59 0 0015.154-41.236l7.779.676a91.42 91.42 0 01-16.572 45.087zM211.902 136.169l-6.491-4.345c6.023-9.001 9.21-19.499 9.21-30.361h7.805c0 12.423-3.642 24.417-10.537 34.706h.013z" fill="#CE0134"/><path d="M220.111 141.45l-6.491-4.331c6.894-10.342 10.601-22.4 10.757-34.875l7.805.091c-.169 13.997-4.331 27.525-12.058 39.115h-.013zM213.789 149.607l-5.815-5.204a67.575 67.575 0 005.645-7.271l6.491 4.331a73.514 73.514 0 01-6.321 8.157v-.013zM207.467 259.083l-5.932-5.073a54.103 54.103 0 005.958-8.482l6.777 3.864a61.937 61.937 0 01-6.816 9.691h.013z" fill="#CE0134"/><path d="M215.063 241.86a81.64 81.64 0 01-42.64-14.127l4.397-6.452c11.395 7.779 24.741 12.189 38.569 12.774l-.326 7.792v.013zM218.536 222.439c-12.409 0-24.416-3.642-34.705-10.537l4.345-6.478a54.408 54.408 0 0030.36 9.21v7.805z" fill="#AED6BC"/><path d="M217.665 232.169c-13.997-.169-27.525-4.332-39.115-12.071l4.331-6.491c10.342 6.881 22.4 10.601 34.888 10.757l-.091 7.805h-.013zM7.805 160H0c0-42.576 26.888-80.924 66.914-95.428l2.653 7.337C32.624 85.294 7.805 120.689 7.805 160z" fill="#AED6BC"/><path d="M17.561 160H9.756c0-35.668 20.956-68.384 53.398-83.317l3.265 7.09C36.736 97.443 17.562 127.362 17.562 160z" fill="#AED6BC"/><path d="M27.317 160h-7.805c0-29.372 15.883-56.663 41.444-71.233l3.864 6.778C41.678 108.722 27.317 133.424 27.317 160z" fill="#AED6BC"/><path d="M37.073 160h-7.805c0-23.61 11.59-45.763 30.999-59.278l4.461 6.4C47.415 119.18 37.073 138.94 37.073 160z" fill="#AED6BC"/><path d="M46.83 160h-7.806c0-18.276 7.987-35.577 21.893-47.467l5.073 5.932C53.815 128.872 46.83 144.013 46.83 160zM157.659 85.073A93.544 93.544 0 00114.94 67.33l1.119-7.727c16.741 2.42 32.754 9.067 46.283 19.24l-4.683 6.243v-.013zM143.18 98.706c-11.395-7.78-24.741-12.189-38.569-12.774l.326-7.792a81.648 81.648 0 0142.64 14.127l-4.397 6.452v-.013z" fill="#AED6BC"/><path d="M150.01 91.59a83.584 83.584 0 00-41.236-15.154l.676-7.78a91.42 91.42 0 0145.087 16.573l-4.527 6.361zM131.824 114.576c-9.001-6.023-19.499-9.21-30.361-9.21v-7.805c12.423 0 24.417 3.642 34.706 10.537l-4.345 6.478z" fill="#AED6BC"/><path d="M137.119 106.38c-10.342-6.88-22.4-10.601-34.875-10.757l.091-7.805c13.997.169 27.525 4.332 39.115 12.071l-4.331 6.491zM139.018 120.338a54.519 54.519 0 00-7.194-5.762l4.345-6.491a63.185 63.185 0 018.221 6.582l-5.372 5.671z" fill="#AED6BC"/><path d="M248.078 69.58C234.706 32.638 199.298 7.806 160 7.806V0c42.576 0 80.924 26.888 95.428 66.914l-7.337 2.653-.013.014z" fill="#CE0134"/><path d="M236.228 66.42C222.556 36.734 192.637 17.56 160 17.56V9.756c35.668 0 68.384 20.956 83.317 53.398l-7.089 3.265z" fill="#CE0134"/><path d="M224.455 64.82C211.278 41.678 186.576 27.317 160 27.317v-7.805c29.372 0 56.663 15.883 71.233 41.444l-6.778 3.864z" fill="#CE0134"/><path d="M212.878 64.728C200.82 47.415 181.06 37.073 160 37.073v-7.805c23.61 0 45.763 11.59 59.278 30.999l-6.4 4.461z" fill="#CE0134"/><path d="M201.535 65.99C191.128 53.815 175.987 46.83 160 46.83v-7.806c18.276 0 35.577 7.987 47.467 21.893l-5.932 5.073z" fill="#CE0134"/><path d="M320 160h-7.805c0-39.311-24.819-74.706-61.776-88.078l2.654-7.337c40.026 14.491 66.914 52.839 66.914 95.428L320 160zM253.086 255.428l-2.653-7.337c36.943-13.372 61.775-48.78 61.775-88.078h7.805c0 42.589-26.888 80.924-66.914 95.428l-.013-.013z" fill="#AED6BC"/><path d="M256.846 243.317l-3.265-7.089c29.684-13.672 48.858-43.591 48.858-76.228h7.805c0 35.668-20.956 68.384-53.398 83.317zM310.244 160h-7.805c0-32.637-19.174-62.556-48.858-76.228l3.265-7.089c32.442 14.933 53.398 47.636 53.398 83.317z" fill="#AED6BC"/><path d="M300.488 160h-7.805c0-26.576-14.374-51.265-37.503-64.455l3.864-6.778c25.561 14.57 41.444 41.861 41.444 71.233zM259.044 231.233l-3.864-6.778c23.129-13.177 37.503-37.879 37.503-64.455h7.805c0 29.372-15.883 56.663-41.444 71.233z" fill="#AED6BC"/><path d="M259.733 219.278l-4.462-6.4c17.314-12.058 27.656-31.818 27.656-52.878h7.805c0 23.61-11.591 45.763-30.999 59.278zM290.732 160h-7.805c0-21.047-10.342-40.82-27.656-52.878l4.462-6.4c19.408 13.515 30.999 35.668 30.999 59.278z" fill="#AED6BC"/><path d="M280.976 160h-7.805c0-15.987-6.986-31.128-19.161-41.535l5.073-5.932c13.919 11.903 21.893 29.204 21.893 47.467zM259.083 207.467l-5.073-5.932c12.175-10.407 19.161-25.548 19.161-41.535h7.805c0 18.276-7.987 35.577-21.893 47.467zM250.42 71.922a90.005 90.005 0 00-11.5-3.317l1.691-7.623c4.306.963 8.495 2.172 12.462 3.603l-2.653 7.337zM253.581 83.772a84.123 84.123 0 00-10.68-4.071l2.263-7.467a93.165 93.165 0 0111.682 4.449l-3.265 7.09zM255.18 95.545a73.223 73.223 0 00-9.951-4.722l2.81-7.285a81.07 81.07 0 0111.005 5.23l-3.864 6.777zM255.272 107.122a64.73 64.73 0 00-9.21-5.346l3.343-7.05a71.337 71.337 0 0110.328 5.996l-4.461 6.4z" fill="#AED6BC"/><path d="M254.01 118.465a55.02 55.02 0 00-8.481-5.958l3.863-6.777a61.334 61.334 0 019.691 6.816l-5.073 5.932v-.013zM238.933 68.592a94.885 94.885 0 00-11.46-1.821l.742-7.766c4.11.39 8.286 1.053 12.409 1.964l-1.691 7.623zM242.901 79.7a83.885 83.885 0 00-10.719-2.484l1.262-7.7c3.98.65 7.922 1.56 11.72 2.718l-2.263 7.467zM245.229 90.823a73.464 73.464 0 00-10.042-3.07l1.743-7.61a83.052 83.052 0 0111.109 3.395l-2.81 7.285zM246.049 101.776a64.628 64.628 0 00-9.431-3.578l2.185-7.492a73.16 73.16 0 0110.576 4.006l-3.343 7.051.013.013zM245.528 112.507a54.377 54.377 0 00-8.858-4.045l2.589-7.363a62.262 62.262 0 0110.12 4.618l-3.864 6.777.013.013z" fill="#AED6BC"/><path d="M227.473 66.77a96.308 96.308 0 00-8.936-.428v-7.805c3.122 0 6.374.156 9.678.468l-.729 7.766h-.013zM216.169 66.406l-.195-7.804.793-.026a39.6 39.6 0 011.756-.04v7.805c-.494 0-1.001.014-1.495.04l-.872.025h.013zM232.182 77.216a85.872 85.872 0 00-10.576-1.04l.274-7.805a92.12 92.12 0 0111.564 1.144l-1.262 7.701zM235.174 87.753a75.4 75.4 0 00-9.977-1.587l.689-7.779c3.682.325 7.389.91 11.031 1.756l-1.743 7.61zM236.631 98.198a64.822 64.822 0 00-9.47-2.003l1.028-7.74a71.79 71.79 0 0110.627 2.25l-2.185 7.493zM236.67 108.462a55.268 55.268 0 00-9.041-2.329l1.288-7.7a60.982 60.982 0 0110.342 2.666l-2.589 7.363z" fill="#AED6BC"/><path d="M205.06 67.317l-1.119-7.727a100.28 100.28 0 0112.033-.988l.195 7.804a92.934 92.934 0 00-11.109.924v-.013zM221.607 76.176h-.183c-.962-.04-1.912-.078-2.887-.078v-7.805c1.066 0 2.12.039 3.174.078h.182l-.286 7.805z" fill="#AED6BC"/><path d="M211.226 76.436l-.664-7.779a92.218 92.218 0 017.987-.364v7.805c-2.289 0-4.669.104-7.31.338h-.013zM215.389 85.932l-.326-7.792a77.453 77.453 0 013.474-.091v7.805c-1.054 0-2.108.039-3.148.078zM225.197 86.166a75.474 75.474 0 00-6.66-.312v-7.805c2.341 0 4.748.117 7.349.338l-.689 7.779zM227.148 96.195a65.764 65.764 0 00-8.611-.585v-7.805c3.122 0 6.374.221 9.652.663l-1.028 7.74-.013-.013zM217.756 95.636l-.078-7.805h.273c.195-.013.39-.026.573-.026v7.805l-.781.026h.013zM227.629 106.133a55.51 55.51 0 00-9.092-.767v-7.805a64 64 0 0110.38.872l-1.288 7.7zM162.341 85.073l-4.683-6.244a101.411 101.411 0 0146.296-19.239l1.119 7.727c-15.454 2.224-30.218 8.364-42.719 17.743l-.013.013z" fill="#AED6BC"/><path d="M176.82 98.706l-4.397-6.452c12.605-8.599 27.356-13.477 42.64-14.127l.326 7.792c-13.828.585-27.174 4.995-38.569 12.774v.013z" fill="#AED6BC"/><path d="M169.99 91.59l-4.527-6.36a91.336 91.336 0 0145.087-16.573l.676 7.779A83.538 83.538 0 00169.99 91.59zM188.176 114.576l-4.345-6.478c10.289-6.895 22.283-10.537 34.705-10.537v7.805a54.408 54.408 0 00-30.36 9.21z" fill="#AED6BC"/><path d="M182.881 106.38l-4.331-6.49c11.59-7.727 25.118-11.903 39.115-12.072l.091 7.805c-12.488.143-24.546 3.863-34.888 10.757h.013z" fill="#AED6BC"/><path d="M206.712 137.379c-4.787-2.758-9.782-5.099-14.829-6.92l2.653-7.337c5.477 1.977 10.888 4.501 16.079 7.493l-3.903 6.764zM261.463 218.537h-7.804c0-.495-.013-1.002-.039-1.496l-.026-.872 7.804-.195.026.806c.026.586.039 1.171.039 1.757zM255.428 253.086l-7.337-2.653a89.875 89.875 0 003.317-11.5l7.623 1.691a100.94 100.94 0 01-3.603 12.462zM260.995 228.215l-7.766-.729c.286-3.057.43-6.062.43-8.936h7.804c0 3.122-.156 6.374-.468 9.678v-.013zM252.683 205.06c-2.224-15.453-8.364-30.218-17.743-42.718l6.244-4.683a101.421 101.421 0 0119.239 46.283l-7.727 1.118h-.013z" fill="#CE0134"/><path d="M160 320v-7.805c39.311 0 74.706-24.819 88.078-61.775l7.337 2.653c-14.491 40.026-52.839 66.914-95.428 66.914L160 320z" fill="#CE0134"/><path d="M160 320c-42.576 0-80.924-26.888-95.415-66.914l7.337-2.654c13.372 36.944 48.781 61.776 88.078 61.776v7.805V320z" fill="#CE0134"/><path d="M160 310.244c-35.668 0-68.384-20.956-83.317-53.399l7.09-3.265c13.67 29.685 43.59 48.859 76.227 48.859v7.805zM160 310.244v-7.805c32.637 0 62.556-19.174 76.228-48.859l7.089 3.265c-14.933 32.443-47.649 53.399-83.317 53.399zM259.031 240.624l-7.623-1.691a95.154 95.154 0 001.821-11.46l7.766.742a102.74 102.74 0 01-1.964 12.409zM247.766 245.164l-7.467-2.263a83.92 83.92 0 002.485-10.719l7.7 1.262a90.282 90.282 0 01-2.718 11.72zM253.593 216.169a92.751 92.751 0 00-.923-11.109l7.727-1.119c.559 3.877.897 7.922 1.001 12.033l-7.805.195zM251.629 221.893l-7.805-.274v-.299c.039-.923.079-1.847.079-2.77h7.804c0 1.027-.039 2.042-.078 3.056v.3-.013zM251.707 218.537h-7.805c0-2.29-.104-4.683-.338-7.311l7.779-.676c.247 2.848.364 5.463.364 7.987z" fill="#CE0134"/><path d="M231.233 259.044l-6.778-3.864a73.26 73.26 0 004.722-9.951l7.285 2.81a81.116 81.116 0 01-5.229 11.005zM243.317 256.845l-7.089-3.265a84.85 84.85 0 004.071-10.679l7.467 2.263a89.274 89.274 0 01-4.449 11.681zM250.485 233.444l-7.701-1.262a85.93 85.93 0 001.04-10.576l7.805.287a91.233 91.233 0 01-1.144 11.551zM239.857 236.917l-7.61-1.743a74.614 74.614 0 001.587-9.977l7.779.689a81.798 81.798 0 01-1.756 11.031zM234.068 215.389a73.81 73.81 0 00-12.774-38.57l6.452-4.396c8.599 12.605 13.477 27.356 14.127 42.64l-7.805.326z" fill="#CE0134"/><path d="M243.564 211.226a83.543 83.543 0 00-15.154-41.236l6.361-4.527a91.383 91.383 0 0116.572 45.087l-7.779.676zM160 300.488v-7.805c26.576 0 51.265-14.374 64.455-37.502l6.778 3.863c-14.57 25.561-41.861 41.444-71.233 41.444z" fill="#CE0134"/><path d="M160 300.488c-29.372 0-56.663-15.883-71.232-41.444l6.777-3.863c13.177 23.141 37.879 37.502 64.455 37.502v7.805z" fill="#CE0134"/><path d="M160 290.732c-23.61 0-45.763-11.59-59.278-30.999l6.4-4.461c12.058 17.313 31.818 27.655 52.878 27.655v7.805zM160 290.732v-7.805c21.047 0 40.82-10.342 52.878-27.655l6.4 4.461c-13.515 19.409-35.668 30.999-59.278 30.999zM225.275 249.392l-7.051-3.343a64.675 64.675 0 003.578-9.431l7.492 2.185a73.076 73.076 0 01-4.006 10.576l-.013.013zM236.462 248.039l-7.285-2.81a73.912 73.912 0 003.07-10.042l7.61 1.743a83.11 83.11 0 01-3.395 11.109zM241.951 218.537h-7.805c0-1.054-.039-2.108-.078-3.148l7.805-.326c.052 1.158.091 2.316.091 3.474h-.013zM241.613 225.886l-7.779-.689c.208-2.368.312-4.553.312-6.66h7.805c0 2.341-.117 4.748-.338 7.349zM231.532 228.189l-7.74-1.028c.39-2.927.585-5.828.585-8.611h7.805c0 3.135-.221 6.374-.663 9.652l.013-.013zM232.195 218.537h-7.805l-.026-.781 7.805-.091v.273c.013.195.026.39.026.586v.013zM219.278 259.733l-6.4-4.461a64.213 64.213 0 005.346-9.21l7.051 3.343a72.077 72.077 0 01-5.997 10.328zM218.901 239.259l-7.363-2.589a54.93 54.93 0 002.329-9.041l7.7 1.288a61.024 61.024 0 01-2.666 10.342z" fill="#CE0134"/><path d="M229.281 238.816l-7.492-2.185a64.874 64.874 0 002.003-9.47l7.74 1.028a71.83 71.83 0 01-2.251 10.627zM222.439 218.537h-7.805c0-10.862-3.187-21.36-9.21-30.361l6.491-4.345c6.895 10.289 10.537 22.283 10.537 34.706h-.013z" fill="#CE0134"/><path d="M224.364 217.756c-.143-12.488-3.863-24.546-10.758-34.875l6.491-4.331c7.727 11.59 11.903 25.118 12.059 39.115l-7.805.091h.013zM160 280.976c-18.276 0-35.577-7.987-47.467-21.893l5.932-5.073c10.407 12.175 25.548 19.161 41.535 19.161v7.805zM160 280.976v-7.805c15.987 0 31.128-6.986 41.535-19.161l5.932 5.073c-11.903 13.919-29.204 21.893-47.467 21.893zM214.283 249.379l-6.777-3.864a54.656 54.656 0 004.045-8.845l7.363 2.589a63.287 63.287 0 01-4.618 10.12h-.013zM221.568 228.917l-7.701-1.288a55.51 55.51 0 00.767-9.092h7.805c0 3.421-.299 6.92-.871 10.38z" fill="#CE0134"/><path d="M181.711 204.384l-6.83-3.786a87.899 87.899 0 002.81-5.554l7.09 3.265a88.694 88.694 0 01-3.07 6.075zM189.385 210.615l-6.764-3.903c2.758-4.787 5.099-9.782 6.92-14.829l7.337 2.654c-1.977 5.476-4.501 10.887-7.493 16.078z" fill="#AED6BC"/><path d="M173.659 160h-7.805l-.026-.781 7.805-.091v.274c.013.195.026.39.026.585V160z" fill="#0B1517"/><path d="M228.332 162.602l-5.815-5.204a86.248 86.248 0 005.88-7.388l6.361 4.527a93.34 93.34 0 01-6.426 8.065zM234.445 170.381l-5.723-5.308a92.802 92.802 0 006.205-7.414l6.244 4.683a100.623 100.623 0 01-6.726 8.026v.013zM221.437 155.668l-5.853-5.164a74.57 74.57 0 005.71-7.324l6.452 4.397a81.041 81.041 0 01-6.309 8.091zM205.333 144.377l-5.671-5.359a54.584 54.584 0 005.762-7.194l6.492 4.345a63.278 63.278 0 01-6.583 8.221v-.013z" fill="#CE0134"/><path d="M227.096 177.535l-5.164-5.854a93.277 93.277 0 006.79-6.621l5.723 5.308a103.655 103.655 0 01-7.349 7.167zM221.112 169.821l-5.203-5.815a83.234 83.234 0 006.608-6.608l5.815 5.204a94.57 94.57 0 01-7.22 7.219zM214.179 162.927l-5.164-5.854a74.722 74.722 0 006.569-6.569l5.853 5.164a83.144 83.144 0 01-7.258 7.259zM206.244 156.891l-5.008-5.997a64.698 64.698 0 006.725-6.504l5.815 5.204a71.281 71.281 0 01-7.545 7.284l.013.013zM200.546 148.93l-5.073-5.932a52.343 52.343 0 004.189-3.98l5.658 5.372a65.731 65.731 0 01-4.787 4.553l.013-.013z" fill="#CE0134"/><path d="M213.151 176.182l-4.526-6.361a86.025 86.025 0 007.297-5.815l5.203 5.815a90.826 90.826 0 01-7.974 6.361zM219.135 183.883l-4.553-6.335a94.588 94.588 0 007.35-5.854l5.164 5.854a105.151 105.151 0 01-7.961 6.348v-.013zM201.197 160.741l-4.462-6.4a62.874 62.874 0 004.514-3.434l5.008 5.997a71.698 71.698 0 01-5.06 3.851v-.014zM205.932 169.34l-4.384-6.465a76.02 76.02 0 007.454-5.802l5.164 5.854a82.92 82.92 0 01-8.234 6.413z" fill="#CE0134"/><path d="M210.615 189.385l-3.903-6.764a93.189 93.189 0 007.87-5.073l4.553 6.335a102.542 102.542 0 01-8.52 5.502zM204.384 181.711l-3.786-6.83a84.787 84.787 0 008.013-5.073l4.527 6.361a92.18 92.18 0 01-8.767 5.542h.013zM200.507 172.696l-3.863-6.777a77.369 77.369 0 004.917-3.044l4.384 6.465a78.873 78.873 0 01-5.438 3.356z" fill="#CE0134"/><path d="M194.55 196.891l-2.654-7.337c5.047-1.821 10.029-4.149 14.829-6.92l3.903 6.764c-5.191 2.992-10.602 5.516-16.065 7.493h-.013zM198.309 184.781l-3.265-7.09a78.563 78.563 0 005.554-2.81l3.786 6.83a95.02 95.02 0 01-6.075 3.07zM196.995 151.753l-4.631-6.283a61.005 61.005 0 003.109-2.472l5.073 5.932a59.836 59.836 0 01-3.551 2.823zM197.203 163.343l-4.032-6.686a68.123 68.123 0 003.564-2.316l4.462 6.4a70.441 70.441 0 01-3.994 2.602zM190.842 155.746l-3.863-6.777a57.935 57.935 0 005.385-3.486l4.631 6.283a62.62 62.62 0 01-6.14 3.98h-.013z" fill="#CE0134"/><path d="M190.855 166.738l-3.343-7.05a67.035 67.035 0 005.659-3.031l4.032 6.686a71.315 71.315 0 01-6.335 3.395h-.013zM196.423 174.881l-3.473-6.985a74.867 74.867 0 003.694-1.977l3.863 6.777a84.68 84.68 0 01-4.084 2.185zM182.088 200.481l-1.691-7.622a95.317 95.317 0 0011.499-3.317l2.654 7.336a100.866 100.866 0 01-12.462 3.603z" fill="#CE0134"/><path d="M189.502 177.925l-2.809-7.284a80.345 80.345 0 006.257-2.745l3.473 6.985a80.45 80.45 0 01-6.921 3.044zM186.628 189.229l-2.264-7.466a84.056 84.056 0 0010.68-4.072l3.265 7.089a93.044 93.044 0 01-11.681 4.449zM185.925 158.257l-3.239-7.103a55.549 55.549 0 004.306-2.198l3.863 6.777a64.927 64.927 0 01-4.917 2.524h-.013zM185.691 168.937l-2.771-7.298a70.993 70.993 0 004.605-1.951l3.343 7.05a69.234 69.234 0 01-5.164 2.199h-.013z" fill="#CE0134"/><path d="M180.722 160.364l-2.589-7.362a52.179 52.179 0 004.553-1.848l3.239 7.103a65.993 65.993 0 01-5.203 2.107zM174.907 191.948l-1.261-7.701a84.417 84.417 0 0010.718-2.484l2.264 7.466a90.135 90.135 0 01-11.721 2.719zM174.595 201.873l-1.119-7.727a95.139 95.139 0 006.908-1.274l1.691 7.622c-2.537.56-5.06 1.028-7.493 1.379h.013zM180.28 170.745l-2.186-7.493a69.983 69.983 0 004.826-1.613l2.784 7.298a78.565 78.565 0 01-5.424 1.821v-.013zM178.381 181.32l-1.744-7.609a73.603 73.603 0 0010.043-3.07l2.809 7.284a79.86 79.86 0 01-11.108 3.395zM170.381 163.031l-1.288-7.701a54.891 54.891 0 009.04-2.328l2.589 7.362a63.889 63.889 0 01-10.341 2.667z" fill="#CE0134"/><path d="M167.987 192.807l-.676-7.779a87.007 87.007 0 006.335-.781l1.261 7.701c-2.237.364-4.566.65-6.92.859zM167.35 183.076l-.69-7.778c3.343-.3 6.699-.833 9.977-1.587l1.743 7.609a83.755 83.755 0 01-11.03 1.756zM169.652 172.995l-1.027-7.74a63.991 63.991 0 009.469-2.003l2.186 7.493a71.144 71.144 0 01-10.628 2.25zM160 163.902v-7.804c2.992 0 6.049-.261 9.093-.768l1.287 7.701a62.614 62.614 0 01-10.38.871z" fill="#CE0134"/><path d="M163.486 183.323l-.325-7.791a84.471 84.471 0 003.499-.235l.689 7.779a85.715 85.715 0 01-3.876.261l.013-.014zM160.872 173.632l-.091-7.804a63.656 63.656 0 007.843-.573l1.041 7.74a73.67 73.67 0 01-8.78.637h-.013zM71.922 69.58l-7.337-2.653C79.077 26.887 117.424 0 160 0v7.805c-39.31 0-74.706 24.82-88.078 61.776z" fill="#CE0134"/><path d="M83.772 66.42l-7.09-3.266C91.617 30.712 124.333 9.756 160 9.756v7.805c-32.637 0-62.556 19.174-76.228 48.858z" fill="#CE0134"/><path d="M95.545 64.82l-6.777-3.864c14.569-25.56 41.86-41.444 71.232-41.444v7.805c-26.576 0-51.265 14.374-64.455 37.503z" fill="#CE0134"/><path d="M107.122 64.728l-6.4-4.461C114.237 40.859 136.39 29.268 160 29.268v7.805c-21.047 0-40.82 10.342-52.878 27.655z" fill="#CE0134"/><path d="M118.465 65.99l-5.932-5.073C124.436 46.998 141.737 39.024 160 39.024v7.805c-15.987 0-31.128 6.986-41.535 19.161zM68.592 81.067l-7.623-1.691a103.255 103.255 0 013.603-12.462l7.337 2.653a89.967 89.967 0 00-3.317 11.5zM79.7 77.1l-7.466-2.264a93.155 93.155 0 014.449-11.682l7.09 3.265A84.054 84.054 0 0079.7 77.1zM90.823 74.77l-7.285-2.81a81.061 81.061 0 015.23-11.004l6.777 3.864a72.486 72.486 0 00-4.722 9.95zM101.776 73.951l-7.05-3.343a72.023 72.023 0 015.996-10.328l6.4 4.462a65.346 65.346 0 00-5.346 9.21z" fill="#CE0134"/><path d="M112.507 74.472l-6.777-3.864a61.924 61.924 0 016.816-9.69l5.932 5.072a54.083 54.083 0 00-5.958 8.482h-.013zM77.216 87.818l-7.7-1.262a90.239 90.239 0 012.718-11.72l7.467 2.263a83.88 83.88 0 00-2.485 10.719zM66.77 92.527l-7.765-.742c.39-4.097 1.053-8.273 1.964-12.41l7.623 1.692a95.327 95.327 0 00-1.821 11.46zM98.211 83.37l-7.492-2.186a72.043 72.043 0 014.006-10.576l7.051 3.343a63.51 63.51 0 00-3.578 9.431l.013-.013zM87.753 84.826l-7.61-1.743a83.046 83.046 0 013.395-11.109l7.285 2.81a74.023 74.023 0 00-3.07 10.042zM108.462 83.33l-7.363-2.589a62.257 62.257 0 014.618-10.12l6.777 3.864a54.706 54.706 0 00-4.045 8.845h.013z" fill="#CE0134"/><path d="M66.341 101.463h-7.804c0-3.121.156-6.373.468-9.678l7.766.729a96.302 96.302 0 00-.43 8.936v.013zM58.602 104.026l-.026-.78a40.2 40.2 0 01-.04-1.77h7.805c0 .508.014 1.002.04 1.509l.025.859-7.804.195v-.013zM76.176 98.394l-7.805-.287c.143-3.902.52-7.791 1.145-11.55l7.7 1.26a85.636 85.636 0 00-1.04 10.577zM86.166 94.803l-7.779-.69a81.758 81.758 0 011.756-11.03l7.61 1.743a74.727 74.727 0 00-1.587 9.977zM106.133 92.37l-7.7-1.287a61.297 61.297 0 012.666-10.341l7.363 2.588a55.26 55.26 0 00-2.329 9.04zM96.195 92.852l-7.74-1.028a71.796 71.796 0 012.25-10.627l7.493 2.185a64.822 64.822 0 00-2.003 9.47z" fill="#CE0134"/><path d="M59.59 116.059a102.81 102.81 0 01-1.001-12.033l7.805-.195c.09 3.798.403 7.545.923 11.109l-7.727 1.119zM76.098 101.463h-7.805c0-1.014.039-2.016.078-3.017v-.339l7.818.273v.339a63.71 63.71 0 00-.078 2.731l-.013.013zM68.657 109.45a91.955 91.955 0 01-.364-7.987h7.805c0 2.29.104 4.683.338 7.311l-7.779.676zM78.14 104.937a77.453 77.453 0 01-.091-3.474h7.805c0 1.054.039 2.108.078 3.148l-7.805.326h.013zM85.854 101.463h-7.805c0-2.341.117-4.748.338-7.35l7.779.69a75.918 75.918 0 00-.312 6.66zM95.61 101.463h-7.805c0-3.121.221-6.374.663-9.652l7.74 1.028a65.609 65.609 0 00-.585 8.611l-.013.013zM87.83 102.335v-.273a8.803 8.803 0 01-.025-.586h7.805l.026.781-7.805.091v-.013zM105.366 101.463h-7.805c0-3.42.3-6.907.872-10.38l7.7 1.288a55.507 55.507 0 00-.767 9.092z" fill="#CE0134"/><path d="M78.83 162.342a101.41 101.41 0 01-19.24-46.296l7.727-1.119c2.225 15.454 8.364 30.218 17.756 42.719l-6.244 4.683v.013zM92.254 147.59c-8.599-12.605-13.477-27.356-14.127-42.64l7.805-.326a73.807 73.807 0 0012.774 38.569l-6.453 4.397z" fill="#CE0134"/><path d="M85.23 154.537a91.387 91.387 0 01-16.573-45.087l7.779-.676A83.538 83.538 0 0091.59 150.01l-6.36 4.527zM108.098 136.169c-6.895-10.289-10.537-22.283-10.537-34.706h7.805c0 10.862 3.187 21.36 9.21 30.361l-6.491 4.345h.013z" fill="#CE0134"/><path d="M99.89 141.45c-7.728-11.59-11.903-25.118-12.06-39.115l7.806-.091c.143 12.488 3.863 24.546 10.757 34.875l-6.49 4.331h-.014z" fill="#CE0134"/><path d="M130.459 128.117l-7.337-2.654a100.345 100.345 0 017.493-16.065l6.764 3.903a92.121 92.121 0 00-6.92 14.829v-.013zM171.694 98.068a93.241 93.241 0 00-6.621-6.79l5.308-5.724a103.643 103.643 0 017.167 7.35l-5.854 5.164zM182.621 113.288a94.136 94.136 0 00-5.073-7.87l6.335-4.553a101.21 101.21 0 015.502 8.52l-6.764 3.903zM192.872 139.603a95.136 95.136 0 00-3.318-11.499l7.337-2.654a100.866 100.866 0 013.603 12.462l-7.622 1.691zM157.398 97.483a88.058 88.058 0 00-7.375-5.88l4.527-6.36a93.13 93.13 0 018.065 6.425l-5.204 5.815h-.013z" fill="#AED6BC"/><path d="M165.073 91.278a94.94 94.94 0 00-7.415-6.205l4.683-6.244a100.215 100.215 0 018.026 6.725l-5.307 5.724h.013zM169.821 111.376a86.073 86.073 0 00-5.814-7.298l5.814-5.203a96.604 96.604 0 016.361 7.961l-6.361 4.527v.013zM177.548 105.418a94.526 94.526 0 00-5.854-7.35l5.854-5.164a105.11 105.11 0 016.348 7.961l-6.335 4.553h-.013zM189.541 128.117a94.404 94.404 0 00-6.92-14.829l6.764-3.903c2.992 5.191 5.516 10.589 7.493 16.065l-7.337 2.654v.013zM177.691 124.956a81.392 81.392 0 00-2.81-5.554l6.83-3.786a94.936 94.936 0 013.07 6.075l-7.09 3.265zM184.247 146.354a83.903 83.903 0 00-2.484-10.718l7.466-2.264a92.312 92.312 0 012.719 11.721l-7.701 1.261zM157.073 110.985a74.585 74.585 0 00-6.569-6.569l5.164-5.853a84.906 84.906 0 017.259 7.258l-5.854 5.164z" fill="#AED6BC"/><path d="M164.007 104.091a83.466 83.466 0 00-6.609-6.608l5.204-5.815a94.545 94.545 0 017.219 7.22l-5.814 5.203zM174.894 119.402a83.157 83.157 0 00-5.073-8.013l6.361-4.527a91.995 91.995 0 015.541 8.754l-6.829 3.786zM165.919 123.356c-1.054-1.834-2.043-3.447-3.044-4.917l6.452-4.384a82.653 82.653 0 013.356 5.438l-6.777 3.863h.013zM170.641 133.307a77.879 77.879 0 00-2.745-6.257l6.985-3.473a84.698 84.698 0 013.044 6.921l-7.284 2.809zM181.763 135.636a84.114 84.114 0 00-4.072-10.68l7.09-3.265a93.038 93.038 0 014.448 11.681l-7.466 2.264zM144.403 112.026a66.091 66.091 0 00-7.271-5.646l4.331-6.49a71.962 71.962 0 018.156 6.321l-5.203 5.815h-.013zM150.504 104.416a76.195 76.195 0 00-7.324-5.71l4.397-6.452a84.247 84.247 0 018.091 6.309l-5.164 5.853zM154.341 123.265a62.874 62.874 0 00-3.434-4.514l5.984-5.008a71.388 71.388 0 013.85 5.06l-6.4 4.462z" fill="#AED6BC"/><path d="M162.875 118.439a75.749 75.749 0 00-5.802-7.454l5.854-5.164a82.92 82.92 0 016.413 8.234l-6.465 4.384zM167.896 127.05a81.235 81.235 0 00-1.977-3.694l6.777-3.863a85.154 85.154 0 012.185 4.084l-6.985 3.473zM159.688 132.488a61.507 61.507 0 00-3.031-5.646l6.686-4.032a70.016 70.016 0 013.395 6.348l-7.05 3.343v-.013zM173.711 143.363a73.646 73.646 0 00-3.07-10.043l7.284-2.809a81.068 81.068 0 013.395 11.109l-7.609 1.743zM163.265 141.906a67.72 67.72 0 00-1.613-4.826l7.298-2.784a76.293 76.293 0 011.821 5.424l-7.493 2.186h-.013zM142.998 124.527a52.343 52.343 0 00-3.98-4.189l5.372-5.671a65.731 65.731 0 014.553 4.787l-5.932 5.073h-.013zM150.894 118.751a64.698 64.698 0 00-6.504-6.725l5.203-5.815a72.456 72.456 0 017.285 7.545l-5.997 5.008.013-.013zM148.956 133.008a57.935 57.935 0 00-3.486-5.385l6.283-4.631a61.307 61.307 0 013.98 6.153l-6.777 3.863zM156.657 126.829c-.676-1.131-1.444-2.289-2.315-3.564l6.4-4.462a73.195 73.195 0 012.601 3.994l-6.686 4.019v.013zM153.002 141.867a58.444 58.444 0 00-1.835-4.553l7.103-3.252a63.15 63.15 0 012.107 5.203l-7.362 2.589-.013.013z" fill="#AED6BC"/><path d="M161.639 137.08a72.105 72.105 0 00-1.951-4.605l7.05-3.343a76.11 76.11 0 012.199 5.164l-7.298 2.784zM165.268 151.389a64.743 64.743 0 00-2.003-9.47l7.493-2.186a71.868 71.868 0 012.25 10.628l-7.74 1.028zM163.902 160h-7.804c0-2.992-.261-6.049-.768-9.093l7.701-1.287c.585 3.46.871 6.959.871 10.38z" fill="#AED6BC"/><path d="M159.219 154.172l-.078-7.805h.274c.195-.013.39-.026.572-.026v7.805l-.781.026h.013zM145.47 127.636a67.316 67.316 0 00-2.472-3.109l5.932-5.073a59.836 59.836 0 012.823 3.551l-6.283 4.631zM151.167 137.314a55.903 55.903 0 00-2.198-4.306l6.777-3.863a64.927 64.927 0 012.524 4.917l-7.103 3.239v.013z" fill="#AED6BC"/><path d="M155.33 150.907a54.584 54.584 0 00-2.328-9.04l7.362-2.589a63.77 63.77 0 012.667 10.342l-7.701 1.287zM79.376 259.018a101.15 101.15 0 01-12.462-3.603l2.653-7.337a89.853 89.853 0 0011.5 3.317l-1.691 7.623zM101.463 261.463c-3.121 0-6.386-.156-9.678-.468l.742-7.766c3.044.286 6.049.43 8.936.43v7.804z" fill="#AED6BC"/><path d="M101.463 261.463v-7.804c.508 0 1.002-.013 1.496-.039l.872-.026.195 7.804-.807.026c-.585.026-1.17.039-1.756.039zM116.059 260.41l-1.119-7.727c15.454-2.224 30.218-8.364 42.719-17.743l4.683 6.244a101.43 101.43 0 01-46.283 19.239v-.013zM66.914 255.428C26.888 240.924 0 202.589 0 160h7.805c0 39.311 24.82 74.706 61.776 88.078l-2.654 7.337-.013.013z" fill="#AED6BC"/><path d="M63.154 243.317C30.712 228.384 9.756 195.668 9.756 160h7.805c0 32.637 19.174 62.556 48.858 76.228l-3.264 7.089zM91.785 260.995c-4.11-.39-8.286-1.054-12.41-1.964l1.692-7.623a94.983 94.983 0 0011.447 1.821l-.728 7.766zM86.556 250.485a91.286 91.286 0 01-11.72-2.719l2.263-7.467a83.912 83.912 0 0010.719 2.485l-1.262 7.701zM104.026 261.398l-.195-7.805a92.751 92.751 0 0011.109-.923l1.118 7.727a102.82 102.82 0 01-12.032 1.001zM101.464 251.707c-1.015 0-2.017-.039-3.018-.065h-.339l.274-7.818h.338c.91.039 1.821.078 2.732.078v7.805h.013z" fill="#AED6BC"/><path d="M101.463 251.707v-7.805c2.29 0 4.67-.104 7.311-.338l.663 7.779a92.257 92.257 0 01-7.987.364h.013zM71.96 236.462a81.107 81.107 0 01-11.004-5.229l3.864-6.778a73.256 73.256 0 009.95 4.722l-2.81 7.285zM74.836 247.766a93.203 93.203 0 01-11.681-4.449l3.265-7.089a83.947 83.947 0 0010.68 4.071l-2.264 7.467zM98.107 251.629a91.233 91.233 0 01-11.55-1.144l1.26-7.701c3.448.559 7 .91 10.577 1.04l-.287 7.805zM94.114 241.613a81.495 81.495 0 01-11.031-1.756l1.743-7.61a74.617 74.617 0 009.977 1.587l-.69 7.779zM104.937 241.86l-.326-7.792c13.828-.585 27.174-4.995 38.569-12.774l4.397 6.452a81.64 81.64 0 01-42.64 14.127v-.013z" fill="#AED6BC"/><path d="M109.45 251.343l-.676-7.779a83.543 83.543 0 0041.236-15.154l4.527 6.361a91.34 91.34 0 01-45.087 16.572zM60.956 231.233c-25.56-14.57-41.444-41.861-41.444-71.233h7.805c0 26.576 14.374 51.265 37.503 64.455l-3.864 6.778z" fill="#AED6BC"/><path d="M60.267 219.278C40.859 205.763 29.268 183.61 29.268 160h7.805c0 21.047 10.342 40.82 27.655 52.878l-4.461 6.4zM81.184 229.281a71.973 71.973 0 01-10.576-4.006l3.343-7.051a65.03 65.03 0 009.431 3.578l-2.185 7.492-.013-.013zM83.083 239.857a81.245 81.245 0 01-11.11-3.395l2.81-7.285a73.916 73.916 0 0010.043 3.07l-1.743 7.61zM101.463 241.951v-7.805c1.054 0 2.108-.039 3.148-.078l.326 7.792a77.453 77.453 0 01-3.474.091z" fill="#AED6BC"/><path d="M101.463 241.951c-2.341 0-4.748-.117-7.35-.338l.69-7.779c2.368.208 4.54.312 6.66.312v7.805zM101.463 232.195c-3.122 0-6.374-.221-9.652-.663l1.04-7.74c2.928.39 5.829.598 8.612.598v7.805zM101.463 232.195v-7.805l.781-.026.078 7.805h-.273c-.195.013-.39.026-.586.026zM70.608 225.275a72.11 72.11 0 01-10.341-5.997l4.461-6.4a64.721 64.721 0 009.21 5.346l-3.343 7.051h.013zM91.083 221.567a61.21 61.21 0 01-10.341-2.666l2.588-7.363a55.26 55.26 0 009.04 2.329l-1.287 7.7z" fill="#AED6BC"/><path d="M91.811 231.532a71.14 71.14 0 01-10.627-2.251l2.185-7.492a64.155 64.155 0 009.47 2.003l-1.028 7.74zM101.463 222.439v-7.805c10.862 0 21.36-3.187 30.361-9.21l4.345 6.478c-10.289 6.895-22.283 10.537-34.706 10.537z" fill="#AED6BC"/><path d="M102.335 232.169l-.091-7.805c12.488-.143 24.546-3.863 34.875-10.757l4.331 6.491c-11.59 7.726-25.118 11.902-39.115 12.071zM60.917 207.467A62.368 62.368 0 0139.024 160h7.805c0 15.987 6.986 31.128 19.161 41.535l-5.073 5.932zM80.741 218.901a62.257 62.257 0 01-10.12-4.618l3.864-6.777a54.706 54.706 0 008.845 4.045l-2.589 7.363v-.013zM101.464 222.439c-3.422 0-6.908-.299-10.381-.871l1.288-7.701c3.044.507 6.1.767 9.093.767v7.805z" fill="#AED6BC"/><path d="M125.45 196.891c-5.476-1.977-10.874-4.501-16.078-7.493l3.903-6.764a93.17 93.17 0 0014.829 6.92l-2.654 7.337zM91.278 154.927l-5.724-5.308a100.88 100.88 0 017.35-7.167l5.164 5.854a93.241 93.241 0 00-6.79 6.621zM105.418 142.452l-4.553-6.335a102.376 102.376 0 018.52-5.502l3.903 6.764a93.189 93.189 0 00-7.87 5.073zM128.117 130.459l-2.654-7.337a103.123 103.123 0 0112.462-3.603l1.691 7.622a95.136 95.136 0 00-11.499 3.318zM85.073 162.341l-6.244-4.683a102.458 102.458 0 016.726-8.026l5.723 5.308a94.618 94.618 0 00-6.205 7.414v-.013zM91.59 169.99l-6.36-4.527a93.13 93.13 0 016.425-8.065l5.815 5.204a84.038 84.038 0 00-5.88 7.375v.013z" fill="#CE0134"/><path d="M98.068 148.306l-5.164-5.854c2.51-2.224 5.19-4.358 7.961-6.348l4.553 6.335a92.732 92.732 0 00-7.35 5.854v.013zM104.091 155.993l-5.203-5.814a95.011 95.011 0 017.961-6.361l4.527 6.348a88.742 88.742 0 00-7.298 5.814l.013.013zM113.288 137.379l-3.903-6.764c5.19-2.992 10.589-5.516 16.078-7.493l2.654 7.337a94.404 94.404 0 00-14.829 6.92zM119.402 145.106l-3.786-6.83a94.5 94.5 0 016.075-3.069l3.265 7.089a78.991 78.991 0 00-5.554 2.81zM135.636 138.237l-2.264-7.466a90.135 90.135 0 0111.721-2.719l1.261 7.701a84.417 84.417 0 00-10.718 2.484z" fill="#CE0134"/><path d="M97.483 162.602l-5.815-5.204a92.225 92.225 0 017.22-7.219l5.203 5.814a83.468 83.468 0 00-6.608 6.609zM104.416 169.496l-5.853-5.164a83.08 83.08 0 017.258-7.259l5.164 5.854a74.449 74.449 0 00-6.569 6.569zM111.376 150.179l-4.527-6.361a93.807 93.807 0 018.754-5.542l3.786 6.83a87.331 87.331 0 00-8.013 5.06v.013zM118.439 157.125l-4.384-6.465c1.639-1.119 3.421-2.211 5.438-3.356l3.863 6.777a70.638 70.638 0 00-4.917 3.044zM124.956 142.309l-3.265-7.089a92.948 92.948 0 0111.681-4.449l2.264 7.466a84.114 84.114 0 00-10.68 4.072zM127.063 152.104l-3.473-6.985a80.935 80.935 0 016.921-3.044l2.809 7.284a77.879 77.879 0 00-6.257 2.745z" fill="#CE0134"/><path d="M98.706 176.819l-6.452-4.396a81.143 81.143 0 016.309-8.091l5.853 5.164a74.728 74.728 0 00-5.71 7.323zM106.38 182.881l-6.49-4.331a72.062 72.062 0 016.321-8.157l5.815 5.204a66.595 66.595 0 00-5.646 7.284zM110.985 162.927l-5.164-5.854a84.335 84.335 0 018.234-6.413l4.384 6.465a75.749 75.749 0 00-7.454 5.802zM118.751 169.106l-5.008-5.997a69.399 69.399 0 015.06-3.85l4.462 6.4a67.97 67.97 0 00-4.514 3.434v.013zM123.356 154.081l-3.863-6.777a85.154 85.154 0 014.084-2.185l3.473 6.985a81.235 81.235 0 00-3.694 1.977zM126.829 163.343l-4.032-6.686a71.56 71.56 0 016.335-3.395l3.343 7.05a63.63 63.63 0 00-5.659 3.031h.013zM137.08 158.361l-2.784-7.298a75.94 75.94 0 015.411-1.821l2.186 7.493a60.02 60.02 0 00-4.826 1.626h.013zM133.307 149.359l-2.809-7.284a81.068 81.068 0 0111.109-3.395l1.743 7.609a73.603 73.603 0 00-10.043 3.07z" fill="#CE0134"/><path d="M112.026 175.61l-5.815-5.204a71.281 71.281 0 017.545-7.284l5.008 5.984a64.698 64.698 0 00-6.725 6.504h-.013zM120.338 180.982l-5.671-5.359a66.006 66.006 0 014.787-4.553l5.073 5.932a54.892 54.892 0 00-4.189 3.98zM123.265 165.659l-4.462-6.413a70.082 70.082 0 013.994-2.602l4.019 6.686a67.658 67.658 0 00-3.564 2.316l.013.013zM127.636 174.53l-4.631-6.283a61.307 61.307 0 016.153-3.98l3.863 6.777a57.935 57.935 0 00-5.385 3.486zM132.488 160.312l-3.343-7.05a72.51 72.51 0 015.164-2.199l2.771 7.298a65.347 65.347 0 00-4.605 1.951h.013zM137.314 168.833l-3.239-7.103a65.056 65.056 0 015.203-2.107l2.589 7.362a55.537 55.537 0 00-4.553 1.835v.013zM146.368 160.872v-.274a8.803 8.803 0 01-.026-.585h7.804l.026.781-7.804.091v-.013zM141.906 156.735l-2.186-7.493a71.841 71.841 0 0110.628-2.25l1.027 7.74a64.702 64.702 0 00-9.469 2.003z" fill="#CE0134"/><path d="M114.576 188.176l-6.478-4.345a63.185 63.185 0 016.582-8.221l5.671 5.359a54.519 54.519 0 00-5.762 7.194l-.013.013zM124.527 177.002l-5.073-5.932a61.931 61.931 0 013.551-2.823l4.631 6.283a56.852 56.852 0 00-3.109 2.472zM133.021 171.044l-3.863-6.777a64.927 64.927 0 014.917-2.524l3.239 7.102a53.643 53.643 0 00-4.306 2.199h.013zM141.867 166.998l-2.589-7.362a63.77 63.77 0 0110.342-2.667l1.287 7.701a54.917 54.917 0 00-9.04 2.328z" fill="#CE0134"/><path d="M157.659 241.171a105.07 105.07 0 01-8.026-6.726l5.307-5.723a94.516 94.516 0 007.415 6.205l-4.683 6.244h-.013zM165.463 234.771a93.34 93.34 0 01-8.065-6.426l5.204-5.815a88.101 88.101 0 007.375 5.88l-4.527 6.361h.013zM172.423 227.746a82.56 82.56 0 01-8.091-6.309l5.164-5.853a75.998 75.998 0 007.311 5.71l-4.397 6.452h.013zM178.55 220.111a73.539 73.539 0 01-8.156-6.322l5.203-5.815a67.712 67.712 0 007.271 5.646l-4.331 6.491h.013zM183.831 211.902a63.185 63.185 0 01-8.221-6.582l5.372-5.671a54.584 54.584 0 007.194 5.762l-4.345 6.478v.013zM149.62 234.446a103.684 103.684 0 01-7.168-7.35l5.854-5.164a93.55 93.55 0 006.621 6.79l-5.307 5.724z" fill="#AED6BC"/><path d="M164.332 221.437a83.144 83.144 0 01-7.259-7.258l5.854-5.164a74.722 74.722 0 006.569 6.569l-5.164 5.853zM157.398 228.332a92.267 92.267 0 01-7.219-7.22l5.815-5.203a87.841 87.841 0 006.608 6.608l-5.204 5.815zM175.623 205.333a63.18 63.18 0 01-4.553-4.787l5.932-5.073a57.423 57.423 0 003.98 4.189l-5.372 5.671h.013zM170.393 213.789a72.596 72.596 0 01-7.284-7.545l5.984-5.008a64.742 64.742 0 006.504 6.725l-5.204 5.815v.013z" fill="#AED6BC"/><path d="M171.07 200.546a58.76 58.76 0 01-2.823-3.551l6.283-4.631a52.98 52.98 0 002.472 3.109l-5.932 5.073zM142.465 227.096a100.216 100.216 0 01-6.348-7.961l6.335-4.553a95.46 95.46 0 005.854 7.35l-5.854 5.164h.013zM150.179 221.112a92.6 92.6 0 01-6.361-7.974l6.361-4.527a83.56 83.56 0 005.814 7.298l-5.814 5.203zM157.073 214.179a84.905 84.905 0 01-6.413-8.234l6.465-4.384a75.867 75.867 0 005.802 7.454l-5.854 5.164zM163.109 206.244a71.388 71.388 0 01-3.85-5.06l6.4-4.462a62.874 62.874 0 003.434 4.514l-5.984 5.008z" fill="#AED6BC"/><path d="M159.259 201.197a70.441 70.441 0 01-2.602-3.994l6.686-4.032a61.164 61.164 0 002.329 3.564l-6.4 4.462h-.013zM168.247 196.995a61.307 61.307 0 01-3.98-6.153l6.777-3.863a56.045 56.045 0 003.486 5.372l-6.283 4.631v.013z" fill="#AED6BC"/><path d="M164.254 190.842a64.56 64.56 0 01-2.524-4.917l7.102-3.239a55.915 55.915 0 002.199 4.306l-6.777 3.863v-.013zM136.117 219.135a102.542 102.542 0 01-5.502-8.52l6.764-3.903a95.326 95.326 0 005.073 7.87l-6.335 4.553zM143.818 213.151c-2.029-2.862-3.903-5.801-5.542-8.754l6.83-3.786a81.589 81.589 0 005.073 8.013l-6.361 4.527zM150.66 205.932a75.286 75.286 0 01-3.356-5.438l6.777-3.863a73.437 73.437 0 003.044 4.917l-6.465 4.384z" fill="#AED6BC"/><path d="M147.304 200.507a85.154 85.154 0 01-2.185-4.084l6.985-3.473a81.235 81.235 0 001.977 3.694l-6.777 3.863zM156.657 197.203a71.56 71.56 0 01-3.395-6.335l7.05-3.343a63.491 63.491 0 003.031 5.659l-6.686 4.032v-.013zM153.262 190.855a76.11 76.11 0 01-2.199-5.164l7.298-2.784a72.105 72.105 0 001.951 4.605l-7.05 3.343zM161.743 185.925a63.15 63.15 0 01-2.107-5.203l7.362-2.589a58.828 58.828 0 001.834 4.553l-7.102 3.252.013-.013zM159.636 180.722a62.46 62.46 0 01-2.667-10.342l7.701-1.287a55.254 55.254 0 002.328 9.04l-7.362 2.589z" fill="#AED6BC"/><path d="M156.969 170.38a62.614 62.614 0 01-.871-10.38h7.805c0 2.992.26 6.049.767 9.093l-7.701 1.287z" fill="#AED6BC"/><path d="M160 173.659v-7.805l.78-.026.079 7.805h-.274c-.195.013-.39.026-.585.026zM130.615 210.615c-2.992-5.191-5.516-10.589-7.493-16.078l7.337-2.654a94.404 94.404 0 006.92 14.829l-6.764 3.903zM138.289 204.384a95.02 95.02 0 01-3.07-6.075l7.09-3.265a78.563 78.563 0 002.81 5.554l-6.83 3.786z" fill="#AED6BC"/><path d="M123.122 194.55c-1.431-3.955-2.641-8.157-3.603-12.462l7.623-1.691a94.954 94.954 0 003.317 11.499l-7.337 2.654zM135.22 198.309a92.89 92.89 0 01-4.449-11.681l7.466-2.264a84.056 84.056 0 004.072 10.68l-7.089 3.265zM145.119 196.41a82.774 82.774 0 01-3.044-6.921l7.284-2.809a77.879 77.879 0 002.745 6.257l-6.985 3.473z" fill="#AED6BC"/><path d="M130.771 186.628a90.135 90.135 0 01-2.719-11.721l7.701-1.261a83.903 83.903 0 002.484 10.718l-7.466 2.264zM142.075 189.502a81.625 81.625 0 01-3.395-11.109l7.609-1.743a73.603 73.603 0 003.07 10.043l-7.284 2.809zM151.063 185.691a75.94 75.94 0 01-1.821-5.411l7.493-2.186a65.6 65.6 0 001.613 4.826l-7.298 2.784.013-.013z" fill="#AED6BC"/><path d="M149.255 180.28a71.868 71.868 0 01-2.25-10.628l7.74-1.028c.429 3.2 1.105 6.4 2.003 9.47l-7.493 2.186z" fill="#AED6BC"/></svg>