<svg width="108" height="44" viewBox="0 0 108 44" fill="none" xmlns="http://www.w3.org/2000/svg">
<path d="M3.4175 3.01846V4.83755H6.83507V7.37326H3.4175V10.6072H0.514404V0.317383H8.13962V3.01846H3.4175Z" fill="white"/>
<path d="M14.0929 7.35488L13.1558 7.37326H12.7332V10.6072H9.83008V0.317383H14.1663C16.9592 0.317383 18.5577 1.71386 18.5577 3.86369C18.5577 5.42554 17.7676 6.34428 16.8306 6.76689L19.1641 10.6072H16.0405L14.0929 7.35488ZM14.3317 5.14992C15.1769 5.14992 15.5811 4.74568 15.5811 4.04744C15.5811 3.3492 15.1953 2.94496 14.3317 2.94496H12.7332V5.14992H14.3317Z" fill="white"/>
<path d="M25.5189 0.116211C28.7711 0.116211 31.0862 2.33955 31.0862 5.46324C31.0862 8.58694 28.7711 10.8103 25.5189 10.8103C22.2667 10.8103 19.97 8.58694 19.97 5.46324C19.97 2.33955 22.2851 0.116211 25.5189 0.116211ZM25.5189 8.14594C27.0991 8.14594 28.128 7.06184 28.128 5.46324C28.128 3.86464 27.0991 2.78054 25.5189 2.78054C23.9388 2.78054 22.9282 3.86464 22.9282 5.46324C22.9282 7.06184 23.9571 8.14594 25.5189 8.14594Z" fill="white"/>
<path d="M39.5956 10.6072L35.59 4.81918H35.5166C35.5166 4.83755 35.5349 5.92166 35.5349 7.09764V10.6072H32.6318V0.317383H35.6452L39.6691 5.90328H39.7242V0.317383H42.6457V10.6072H39.5956Z" fill="white"/>
<path d="M50.4347 3.01846V10.6072H47.5132V3.01846H44.2427V0.317383H53.7053V3.01846H50.4347Z" fill="white"/>
<path d="M55.304 0.317383H63.4069V3.01846H58.207V4.26794H61.7716V6.5464H58.207V7.90612H63.4988V10.6072H55.304V0.317383Z" fill="white"/>
<path d="M72.2626 10.6072L68.257 4.81918H68.1835C68.1835 4.83755 68.2019 5.92166 68.2019 7.09764V10.6072H65.2988V0.317383H68.3122L72.3361 5.90328H72.3912V0.317383H75.3127V10.6072H72.2626Z" fill="white"/>
<path d="M81.5969 0.317383C84.8674 0.317383 87.3479 2.24672 87.3479 5.49904C87.3479 8.75136 84.8674 10.6072 81.5785 10.6072H77.3708V0.317383H81.5969ZM81.5418 7.90612C83.3424 7.90612 84.3897 7.26301 84.3897 5.49904C84.3897 3.73507 83.3424 3.01846 81.5785 3.01846H80.2739V7.90612H81.5418Z" fill="white"/>
<path d="M10.5283 24.3349C9.6831 26.1173 8.02944 27.3484 5.60407 27.3484C2.26 27.3484 0 25.1066 0 22.0197C0 18.9328 2.26 16.6543 5.5857 16.6543C7.9192 16.6543 9.73822 17.7935 10.5283 19.6861L7.7722 20.4211C7.45984 20.0352 6.81675 19.3186 5.56732 19.3186C3.96878 19.3186 2.95821 20.4211 2.95821 22.0013C2.95821 23.5815 4.02391 24.684 5.5857 24.684C6.68814 24.684 7.36797 24.1695 7.73545 23.5999L10.5283 24.3349Z" fill="white"/>
<path d="M17.0695 16.6543C20.3217 16.6543 22.6368 18.8776 22.6368 22.0013C22.6368 25.125 20.3217 27.3484 17.0695 27.3484C13.8173 27.3484 11.5205 25.125 11.5205 22.0013C11.5205 18.8776 13.8356 16.6543 17.0695 16.6543ZM17.0695 24.684C18.6496 24.684 19.6786 23.5999 19.6786 22.0013C19.6786 20.4027 18.6496 19.3186 17.0695 19.3186C15.4893 19.3186 14.4787 20.4027 14.4787 22.0013C14.4787 23.5999 15.5077 24.684 17.0695 24.684Z" fill="white"/>
<path d="M31.1439 27.1463L27.1384 21.3582H27.0649C27.0649 21.3766 27.0833 22.4607 27.0833 23.6367V27.1463H24.1802V16.8564H27.1935L31.2174 22.4423H31.2725V16.8564H34.194V27.1463H31.1439Z" fill="white"/>
<path d="M39.1546 19.5575V21.3766H42.5721V23.9123H39.1546V27.1463H36.2515V16.8564H43.8767V19.5575H39.1546Z" fill="white"/>
<path d="M45.5679 16.8564H53.6708V19.5575H48.471V20.807H52.0355V23.0855H48.471V24.4452H53.7627V27.1463H45.5679V16.8564Z" fill="white"/>
<path d="M59.8238 23.8939L58.8867 23.9123H58.4641V27.1463H55.561V16.8564H59.8973C62.6901 16.8564 64.2887 18.2529 64.2887 20.4028C64.2887 21.9646 63.4986 22.8833 62.5615 23.306L64.895 27.1463H61.7715L59.8238 23.8939ZM60.0627 21.689C60.9079 21.689 61.3121 21.2847 61.3121 20.5865C61.3121 19.8883 60.9263 19.484 60.0627 19.484H58.4641V21.689H60.0627Z" fill="white"/>
<path d="M66.2175 16.8564H74.3205V19.5575H69.1206V20.807H72.6852V23.0855H69.1206V24.4452H74.4123V27.1463H66.2175V16.8564Z" fill="white"/>
<path d="M83.1771 27.1463L79.1716 21.3582H79.0981C79.0981 21.3766 79.1165 22.4607 79.1165 23.6367V27.1463H76.2134V16.8564H79.2267L83.2506 22.4423H83.3057V16.8564H86.2272V27.1463H83.1771Z" fill="white"/>
<path d="M98.2983 24.3349C97.4531 26.1173 95.7994 27.3484 93.3741 27.3484C90.03 27.3484 87.77 25.1066 87.77 22.0197C87.77 18.9328 90.03 16.6543 93.3557 16.6543C95.6892 16.6543 97.5082 17.7935 98.2983 19.6861L95.5422 20.4211C95.2299 20.0352 94.5868 19.3186 93.3373 19.3186C91.7388 19.3186 90.7282 20.4211 90.7282 22.0013C90.7282 23.5815 91.7939 24.684 93.3557 24.684C94.4582 24.684 95.138 24.1695 95.5055 23.5999L98.2983 24.3349Z" fill="white"/>
<path d="M99.8054 16.8564H107.908V19.5575H102.709V20.807H106.273V23.0855H102.709V24.4452H108V27.1463H99.8054V16.8564Z" fill="white"/>
<path d="M6.24722 36.0927V43.6814H3.32575V36.0927H0.0551758V33.3916H9.51779V36.0927H6.24722Z" fill="white"/>
<path d="M16.151 33.1895C19.4032 33.1895 21.7183 35.4128 21.7183 38.5365C21.7183 41.6602 19.4032 43.8835 16.151 43.8835C12.8988 43.8835 10.6021 41.6602 10.6021 38.5365C10.6021 35.4128 12.9172 33.1895 16.151 33.1895ZM16.151 41.2192C17.7312 41.2192 18.7601 40.1351 18.7601 38.5365C18.7601 36.9379 17.7312 35.8538 16.151 35.8538C14.5708 35.8538 13.5603 36.9379 13.5603 38.5365C13.5603 40.1351 14.5892 41.2192 16.151 41.2192Z" fill="white"/>
<path d="M27.671 39.4185L26.1643 41.0722V43.6814H23.2612V33.3916H26.1643V37.6362H26.2378C26.3297 37.5443 26.6972 37.1033 27.1381 36.5704L29.8575 33.3916H33.4772L29.784 37.434L33.6242 43.6814H30.2985L27.671 39.4185Z" fill="white"/>
<path d="M37.7935 43.6814V40.1719L34.0452 33.3916H37.3709L38.4549 35.4679C38.9694 36.4785 39.392 37.3789 39.4104 37.3973H39.4655C39.4839 37.3789 39.9065 36.4969 40.4209 35.4679L41.4866 33.3916H44.5L40.7149 40.1719V43.6814H37.7935Z" fill="white"/>
<path d="M50.765 33.1895C54.0172 33.1895 56.3323 35.4128 56.3323 38.5365C56.3323 41.6602 54.0172 43.8835 50.765 43.8835C47.5128 43.8835 45.2161 41.6602 45.2161 38.5365C45.2161 35.4128 47.5312 33.1895 50.765 33.1895ZM50.765 41.2192C52.3452 41.2192 53.3741 40.1351 53.3741 38.5365C53.3741 36.9379 52.3452 35.8538 50.765 35.8538C49.1848 35.8538 48.1743 36.9379 48.1743 38.5365C48.1743 40.1351 49.2032 41.2192 50.765 41.2192Z" fill="white"/>
</svg>
