<svg width="12" height="13" viewBox="0 0 12 13" fill="none" xmlns="http://www.w3.org/2000/svg">
<title>別ページで開く</title>
<mask id="mask0_1610_3412" style="mask-type:alpha" maskUnits="userSpaceOnUse" x="0" y="0" width="12" height="13">
<rect y="0.5" width="12" height="12" fill="#D9D9D9"/>
</mask>
<g mask="url(#mask0_1610_3412)">
<path d="M2.5 11C2.225 11 1.98958 10.9021 1.79375 10.7063C1.59792 10.5104 1.5 10.275 1.5 10V3C1.5 2.725 1.59792 2.48958 1.79375 2.29375C1.98958 2.09792 2.225 2 2.5 2H5.5C5.64167 2 5.76042 2.04792 5.85625 2.14375C5.95208 2.23958 6 2.35833 6 2.5C6 2.64167 5.95208 2.76042 5.85625 2.85625C5.76042 2.95208 5.64167 3 5.5 3H2.5V10H9.5V7C9.5 6.85833 9.54792 6.73958 9.64375 6.64375C9.73958 6.54792 9.85833 6.5 10 6.5C10.1417 6.5 10.2604 6.54792 10.3562 6.64375C10.4521 6.73958 10.5 6.85833 10.5 7V10C10.5 10.275 10.4021 10.5104 10.2063 10.7063C10.0104 10.9021 9.775 11 9.5 11H2.5ZM9.5 3.7L5.2 8C5.10833 8.09167 4.99167 8.1375 4.85 8.1375C4.70833 8.1375 4.59167 8.09167 4.5 8C4.40833 7.90833 4.3625 7.79167 4.3625 7.65C4.3625 7.50833 4.40833 7.39167 4.5 7.3L8.8 3H7.5C7.35833 3 7.23958 2.95208 7.14375 2.85625C7.04792 2.76042 7 2.64167 7 2.5C7 2.35833 7.04792 2.23958 7.14375 2.14375C7.23958 2.04792 7.35833 2 7.5 2H10C10.1417 2 10.2604 2.04792 10.3562 2.14375C10.4521 2.23958 10.5 2.35833 10.5 2.5V5C10.5 5.14167 10.4521 5.26042 10.3562 5.35625C10.2604 5.45208 10.1417 5.5 10 5.5C9.85833 5.5 9.73958 5.45208 9.64375 5.35625C9.54792 5.26042 9.5 5.14167 9.5 5V3.7Z" fill="white"/>
</g>
</svg>
