<svg width="30" height="28" viewBox="0 0 30 28" fill="none" xmlns="http://www.w3.org/2000/svg">
<path fill-rule="evenodd" clip-rule="evenodd" d="M15.012 0C6.98724 0 0.5 6.41664 0.5 14.3549C0.5 20.7004 4.6566 26.0717 10.4229 27.9728C11.1438 28.1157 11.4079 27.6639 11.4079 27.2838C11.4079 26.9511 11.3841 25.8104 11.3841 24.6218C7.34726 25.4776 6.50661 22.9106 6.50661 22.9106C5.85786 21.247 4.89661 20.8194 4.89661 20.8194C3.57534 19.94 4.99286 19.94 4.99286 19.94C6.45849 20.0351 7.22755 21.4135 7.22755 21.4135C8.52476 23.5998 10.6151 22.9821 11.456 22.6017C11.576 21.6748 11.9607 21.0332 12.3692 20.6767C9.14945 20.344 5.76191 19.1082 5.76191 13.5942C5.76191 12.0257 6.33819 10.7423 7.25131 9.74425C7.10725 9.38784 6.60256 7.91405 7.39568 5.94152C7.39568 5.94152 8.621 5.56118 11.3839 7.41501C12.5667 7.10079 13.7866 6.94094 15.012 6.9396C16.2373 6.9396 17.4864 7.10614 18.6399 7.41501C21.403 5.56118 22.6283 5.94152 22.6283 5.94152C23.4214 7.91405 22.9165 9.38784 22.7724 9.74425C23.7096 10.7423 24.2621 12.0257 24.2621 13.5942C24.2621 19.1082 20.8745 20.32 17.6308 20.6767C18.1595 21.1282 18.6158 21.9837 18.6158 23.3385C18.6158 25.2635 18.592 26.8084 18.592 27.2836C18.592 27.6639 18.8564 28.1157 19.577 27.973C25.3433 26.0714 29.4999 20.7004 29.4999 14.3549C29.5237 6.41664 23.0127 0 15.012 0Z" fill="#041F30"/>
</svg>
