<svg width="552" height="180" viewBox="0 0 552 180" fill="none" xmlns="http://www.w3.org/2000/svg">
<g clip-path="url(#clip0_1735_5822)">
<path d="M98.6051 86.2537C98.4368 84.3805 98.1368 82.4927 97.7124 80.6415L101.993 79.661C102.461 81.7098 102.798 83.7952 102.981 85.8659L98.6051 86.2537Z" fill="#FAFAFB"/>
<path d="M78.0073 100.339C77.539 98.2902 77.2025 96.2049 77.0195 94.1341L81.3951 93.7463C81.5634 95.6195 81.8634 97.5073 82.2878 99.3585L78.0073 100.339Z" fill="#FAFAFB"/>
<path d="M80.6416 82.2878L79.6611 78.0073C81.7099 77.539 83.8026 77.2025 85.866 77.0195L86.2538 81.3951C84.3806 81.5634 82.4928 81.8634 80.6416 82.2878Z" fill="#FAFAFB"/>
<path d="M68.4513 103.939C67.2586 103.39 66.1098 102.812 65.0342 102.212L67.1635 98.3707C68.1439 98.9122 69.1976 99.4463 70.2878 99.9512L68.4513 103.939Z" fill="#FAFAFB"/>
<path d="M77.0194 94.1342C76.9535 93.3732 76.9023 92.6634 76.873 91.9537L81.2633 91.7708C81.2926 92.4366 81.3365 93.0878 81.395 93.7464L77.0194 94.1342Z" fill="#FAFAFB"/>
<path d="M67.2219 102.424C66.9 100.99 66.6439 99.5707 66.4463 98.2097L70.7926 97.5804C70.9756 98.8317 71.217 100.141 71.5097 101.473L67.2219 102.424Z" fill="#FAFAFB"/>
<path d="M72.0293 98.3854C71.8244 97.1268 71.6635 95.8171 71.5464 94.4853L75.922 94.1049C76.0244 95.3195 76.1781 96.5195 76.361 97.6683L72.0293 98.378V98.3854Z" fill="#FAFAFB"/>
<path d="M82.6901 95.4292C82.4706 93.7902 82.3535 92.1292 82.3315 90.4902L86.7218 90.439C86.7364 91.9024 86.8462 93.3877 87.0437 94.8512L82.6901 95.4292Z" fill="#FAFAFB"/>
<path d="M80.0488 70.2878L76.061 68.4513C76.6098 67.2513 77.1952 66.1025 77.7879 65.0342L81.6293 67.1635C81.0879 68.1366 80.561 69.1903 80.0488 70.2878Z" fill="#FAFAFB"/>
<path d="M78.5269 71.5097L77.5757 67.2219C79.0098 66.9 80.4293 66.6439 81.7903 66.4463L82.4196 70.7926C81.1684 70.9756 79.8586 71.217 78.5269 71.5097Z" fill="#FAFAFB"/>
<path d="M82.3245 76.361L81.6147 72.0293C82.8733 71.8244 84.183 71.6635 85.5074 71.5464L85.8879 75.922C84.6733 76.0244 83.4733 76.1781 82.3245 76.361Z" fill="#FAFAFB"/>
<path d="M86.2535 81.3951L85.8657 77.0195C86.6121 76.9537 87.3438 76.9024 88.0462 76.8732L88.2291 81.2561C87.5926 81.2854 86.934 81.3293 86.2608 81.3878L86.2535 81.3951Z" fill="#FAFAFB"/>
<path d="M85.1562 87.0367L84.5781 82.683C86.2245 82.4635 87.8854 82.3464 89.5171 82.3245L89.5684 86.7147C88.1123 86.7293 86.6269 86.8391 85.1562 87.0367Z" fill="#FAFAFB"/>
<path d="M84.8855 92.6269L84.1611 88.2952C86.1148 87.9659 88.0758 87.8049 90.0002 87.8049V92.1952C88.3172 92.1952 86.5977 92.3415 84.8855 92.6269Z" fill="#FAFAFB"/>
<path d="M42.9952 118.815L38.6196 118.434C39.4099 109.31 42.6294 100.537 47.9416 93.0731L51.5196 95.6195C46.6611 102.454 43.7123 110.473 42.9952 118.815Z" fill="#FAFAFB"/>
<path d="M37.8659 115.346L33.5195 114.717C34.8805 105.3 38.6195 96.2927 44.3415 88.683L47.8537 91.3171C42.5781 98.3415 39.1244 106.654 37.8659 115.346Z" fill="#FAFAFB"/>
<path d="M39.7242 120.534C37.7925 119.437 35.9559 118.149 34.2729 116.7L37.1266 113.363C38.6047 114.629 40.2071 115.756 41.8973 116.715L39.7242 120.527V120.534Z" fill="#FAFAFB"/>
<path d="M48.3365 121.156L43.9463 120.973C44.3048 112.376 47.056 104.078 51.8926 96.9878L55.5219 99.461C51.1463 105.878 48.6658 113.378 48.3365 121.156Z" fill="#FAFAFB"/>
<path d="M59.2682 122.927H54.8779C54.8779 115.946 56.9267 109.193 60.8048 103.405L64.456 105.849C61.0682 110.912 59.2755 116.817 59.2755 122.927H59.2682Z" fill="#FAFAFB"/>
<path d="M53.795 122.488L49.4048 122.437C49.4999 114.563 51.8414 106.954 56.1877 100.434L59.8389 102.871C55.9609 108.688 53.8755 115.471 53.7877 122.488H53.795Z" fill="#FAFAFB"/>
<path d="M114.717 146.481C105.3 145.12 96.2929 141.38 88.6758 135.659L91.3099 132.146C98.3343 137.422 106.647 140.876 115.339 142.127L114.71 146.473L114.717 146.481Z" fill="#FAFAFB"/>
<path d="M118.434 141.38C109.31 140.59 100.537 137.371 93.0732 132.059L95.6196 128.48C102.454 133.339 110.473 136.288 118.815 137.005L118.434 141.38Z" fill="#FAFAFB"/>
<path d="M112.837 81.622C111.856 81.0805 110.81 80.5464 109.712 80.0415L111.549 76.0537C112.742 76.6025 113.89 77.1805 114.966 77.7805L112.837 81.622Z" fill="#FAFAFB"/>
<path d="M109.207 82.4195C109.024 81.1609 108.783 79.8585 108.49 78.5341L112.778 77.5829C113.093 79.017 113.356 80.4365 113.554 81.7975L109.207 82.4268V82.4195Z" fill="#FAFAFB"/>
<path d="M104.078 85.8878C103.976 84.6732 103.822 83.4732 103.639 82.3244L107.971 81.6146C108.176 82.8732 108.337 84.1829 108.454 85.5073L104.078 85.8878Z" fill="#FAFAFB"/>
<path d="M98.7367 88.2293C98.7074 87.6 98.6708 86.9561 98.605 86.2536L102.981 85.8658C103.046 86.6341 103.098 87.3439 103.127 88.0463L98.7367 88.2293Z" fill="#FAFAFB"/>
<path d="M93.278 89.5683C93.2634 88.1048 93.1536 86.6195 92.9561 85.1561L97.3097 84.578C97.5292 86.217 97.6463 87.878 97.6682 89.517L93.278 89.5683Z" fill="#FAFAFB"/>
<path d="M135.659 91.3171L132.146 88.683C137.422 81.6586 140.876 73.3464 142.127 64.6537L146.473 65.283C145.12 74.7 141.373 83.7073 135.651 91.3244L135.659 91.3171Z" fill="#FAFAFB"/>
<path d="M128.107 83.0195L124.478 80.5463C128.854 74.1292 131.334 66.6292 131.663 58.8512L136.054 59.0341C135.695 67.6317 132.944 75.9292 128.107 83.0195Z" fill="#FAFAFB"/>
<path d="M132.059 86.9269L128.48 84.3805C133.339 77.5464 136.288 69.5269 137.005 61.1854L141.38 61.5659C140.59 70.6903 137.371 79.4635 132.059 86.9269Z" fill="#FAFAFB"/>
<path d="M119.195 76.5951L115.544 74.1512C118.932 69.0878 120.724 63.1829 120.724 57.0731H125.115C125.115 64.0609 123.066 70.8073 119.188 76.5951H119.195Z" fill="#FAFAFB"/>
<path d="M123.812 79.5659L120.161 77.1293C124.039 71.3122 126.125 64.5293 126.212 57.5122L130.603 57.5634C130.507 65.4366 128.166 73.0464 123.82 79.5659H123.812Z" fill="#FAFAFB"/>
<path d="M120.256 84.1537L116.985 81.2268C118.134 79.939 119.202 78.5634 120.161 77.1366L123.812 79.5732C122.744 81.1756 121.544 82.7195 120.256 84.161V84.1537Z" fill="#FAFAFB"/>
<path d="M116.7 145.734L113.363 142.88C114.629 141.402 115.756 139.8 116.715 138.11L120.527 140.283C119.429 142.215 118.141 144.044 116.693 145.734H116.7Z" fill="#FAFAFB"/>
<path d="M120.973 136.046C112.376 135.688 104.078 132.937 96.9878 128.1L99.461 124.471C105.871 128.846 113.378 131.327 121.156 131.656L120.973 136.039V136.046Z" fill="#FAFAFB"/>
<path d="M122.927 125.122C115.946 125.122 109.193 123.073 103.405 119.195L105.849 115.551C110.912 118.939 116.817 120.732 122.927 120.732V125.122Z" fill="#FAFAFB"/>
<path d="M122.437 130.595C114.563 130.5 106.954 128.159 100.434 123.805L102.871 120.154C108.688 124.024 115.471 126.117 122.495 126.205L122.444 130.595H122.437Z" fill="#FAFAFB"/>
<path d="M4.39024 89.9999H0C0 66.0512 15.1244 44.4804 37.639 36.3219L39.1317 40.4487C18.3512 47.978 4.39024 67.8877 4.39024 89.9999Z" fill="#FAFAFB"/>
<path d="M9.87804 90H5.48779C5.48779 69.9366 17.2756 51.5342 35.5244 43.1342L37.361 47.122C20.6634 54.8122 9.87804 71.6415 9.87804 90Z" fill="#FAFAFB"/>
<path d="M15.3658 89.9999H10.9756C10.9756 73.478 19.9097 58.1268 34.2878 49.9316L36.461 53.7438C23.4439 61.156 15.3658 75.0512 15.3658 89.9999Z" fill="#FAFAFB"/>
<path d="M20.8536 90H16.4634C16.4634 76.7195 22.9829 64.2586 33.9 56.6561L36.4097 60.2561C26.6707 67.0391 20.8536 78.1537 20.8536 90Z" fill="#FAFAFB"/>
<path d="M26.3414 90H21.9512C21.9512 79.7196 26.4439 69.9879 34.2658 63.3L37.1195 66.6366C30.2707 72.4903 26.3414 81.0074 26.3414 90Z" fill="#FAFAFB"/>
<path d="M88.6831 47.8537C81.6587 42.5781 73.3465 39.1244 64.6538 37.8732L65.2831 33.5269C74.7002 34.8878 83.7075 38.6269 91.3172 44.3488L88.6831 47.861V47.8537Z" fill="#FAFAFB"/>
<path d="M80.5389 55.5219C74.1291 51.1463 66.6218 48.6658 58.8438 48.3365L59.0267 43.9536C67.6242 44.3121 75.9218 47.0634 83.012 51.9L80.5389 55.5292V55.5219Z" fill="#FAFAFB"/>
<path d="M84.3807 51.5195C77.5465 46.661 69.527 43.7122 61.1855 42.9951L61.566 38.6195C70.6904 39.4098 79.4636 42.6293 86.927 47.9415L84.3807 51.5195Z" fill="#FAFAFB"/>
<path d="M74.1513 64.4488C69.0879 61.061 63.183 59.2683 57.0732 59.2683V54.8781C64.061 54.8781 70.8074 56.9268 76.5952 60.8049L74.1513 64.4488Z" fill="#FAFAFB"/>
<path d="M77.1293 59.839C71.3122 55.9683 64.5293 53.8756 57.5122 53.7878L57.5634 49.3976C65.4366 49.4927 73.0464 51.8342 79.5659 56.1878L77.1293 59.839Z" fill="#FAFAFB"/>
<path d="M78.1977 67.6903C76.9245 66.483 75.5636 65.3927 74.1514 64.4488L76.5953 60.7976C78.2123 61.8805 79.7636 63.1244 81.2197 64.5001L78.1977 67.6903Z" fill="#FAFAFB"/>
<path d="M139.544 39.139C132.022 18.3585 112.105 4.39024 90 4.39024V0C113.949 0 135.52 15.1244 143.678 37.639L139.551 39.1317L139.544 39.139Z" fill="#FAFAFB"/>
<path d="M132.878 37.361C125.188 20.6634 108.359 9.87804 90 9.87804V5.48779C110.063 5.48779 128.466 17.2756 136.866 35.5244L132.878 37.361Z" fill="#FAFAFB"/>
<path d="M126.256 36.461C118.844 23.4439 104.949 15.3658 90 15.3658V10.9756C106.522 10.9756 121.873 19.9097 130.068 34.2878L126.256 36.461Z" fill="#FAFAFB"/>
<path d="M119.744 36.4097C112.961 26.6707 101.846 20.8536 90 20.8536V16.4634C103.28 16.4634 115.741 22.9829 123.344 33.9L119.744 36.4097Z" fill="#FAFAFB"/>
<path d="M113.363 37.1195C107.51 30.2707 98.9927 26.3414 90 26.3414V21.9512C100.28 21.9512 110.012 26.4439 116.7 34.2658L113.363 37.1195Z" fill="#FAFAFB"/>
<path d="M180 89.9999H175.61C175.61 67.8878 161.649 47.978 140.861 40.4561L142.354 36.3292C164.868 44.4804 179.993 66.0512 179.993 90.0073L180 89.9999Z" fill="#FAFAFB"/>
<path d="M142.361 143.678L140.868 139.551C161.649 132.029 175.617 112.112 175.617 90.0073H180.007C180.007 113.963 164.883 135.527 142.368 143.685L142.361 143.678Z" fill="#FAFAFB"/>
<path d="M144.476 136.866L142.639 132.878C159.337 125.188 170.122 108.359 170.122 90H174.512C174.512 110.063 162.725 128.466 144.476 136.866Z" fill="#FAFAFB"/>
<path d="M174.512 90H170.122C170.122 71.6415 159.337 54.8122 142.639 47.122L144.476 43.1342C162.725 51.5342 174.512 69.9293 174.512 90Z" fill="#FAFAFB"/>
<path d="M169.024 89.9999H164.634C164.634 75.0512 156.549 61.1633 143.539 53.7438L145.712 49.9316C160.09 58.1268 169.024 73.478 169.024 89.9999Z" fill="#FAFAFB"/>
<path d="M145.712 130.068L143.539 126.256C156.549 118.844 164.634 104.949 164.634 90H169.024C169.024 106.522 160.09 121.873 145.712 130.068Z" fill="#FAFAFB"/>
<path d="M146.1 123.344L143.59 119.744C153.329 112.961 159.146 101.846 159.146 90H163.537C163.537 103.28 157.017 115.741 146.1 123.344Z" fill="#FAFAFB"/>
<path d="M163.537 90H159.146C159.146 78.161 153.329 67.0391 143.59 60.2561L146.1 56.6561C157.017 64.2586 163.537 76.7195 163.537 90Z" fill="#FAFAFB"/>
<path d="M158.049 90H153.658C153.658 81.0074 149.729 72.4903 142.88 66.6366L145.734 63.3C153.563 69.9952 158.049 79.7269 158.049 90Z" fill="#FAFAFB"/>
<path d="M145.734 116.7L142.88 113.363C149.729 107.51 153.658 98.9927 153.658 90H158.049C158.049 100.28 153.556 110.012 145.734 116.7Z" fill="#FAFAFB"/>
<path d="M140.861 40.4561C138.812 39.7098 136.632 39.0805 134.393 38.5903L135.344 34.3025C137.766 34.844 140.122 35.5244 142.354 36.3293L140.861 40.4561Z" fill="#FAFAFB"/>
<path d="M142.639 47.122C140.671 46.2146 138.651 45.4463 136.632 44.8317L137.905 40.6317C140.115 41.3049 142.325 42.1463 144.476 43.1342L142.639 47.122Z" fill="#FAFAFB"/>
<path d="M143.539 53.7439C141.746 52.7195 139.858 51.8268 137.941 51.0878L139.522 46.9902C141.644 47.8097 143.729 48.7975 145.712 49.9317L143.539 53.7439Z" fill="#FAFAFB"/>
<path d="M143.59 60.2561C141.944 59.1073 140.195 58.0976 138.41 57.2488L140.29 53.283C142.302 54.2342 144.256 55.3683 146.1 56.6561L143.59 60.2561Z" fill="#FAFAFB"/>
<path d="M142.881 66.6366C141.403 65.378 139.8 64.2439 138.11 63.2853L140.283 59.4731C142.215 60.5707 144.051 61.8585 145.734 63.3073L142.881 66.6439V66.6366Z" fill="#FAFAFB"/>
<path d="M134.4 38.5829C132.256 38.1073 130.09 37.7634 127.954 37.5585L128.371 33.1902C130.683 33.4097 133.032 33.7829 135.351 34.2951L134.4 38.5829Z" fill="#FAFAFB"/>
<path d="M136.632 44.8317C134.678 44.239 132.651 43.7707 130.603 43.4341L131.312 39.1024C133.551 39.4683 135.768 39.9805 137.905 40.6317L136.632 44.8317Z" fill="#FAFAFB"/>
<path d="M137.941 51.0878C136.119 50.3853 134.217 49.8 132.292 49.3609L133.273 45.0804C135.402 45.5707 137.502 46.2146 139.522 46.9902L137.941 51.0878Z" fill="#FAFAFB"/>
<path d="M138.403 57.2488C136.712 56.4512 134.927 55.7707 133.098 55.2366L134.327 51.022C136.376 51.622 138.381 52.3829 140.276 53.2756L138.395 57.2415L138.403 57.2488Z" fill="#FAFAFB"/>
<path d="M138.11 63.2854C136.522 62.378 134.846 61.6171 133.127 61.0097L134.583 56.8683C136.544 57.5561 138.461 58.4341 140.276 59.4658L138.103 63.278L138.11 63.2854Z" fill="#FAFAFB"/>
<path d="M127.954 37.5586C126.234 37.3976 124.544 37.3171 122.927 37.3171V32.9269C124.683 32.9269 126.512 33.0147 128.371 33.1903L127.961 37.5586H127.954Z" fill="#FAFAFB"/>
<path d="M121.595 37.3537L121.485 32.9635L121.932 32.9488C122.261 32.9342 122.59 32.9269 122.92 32.9269V37.3171C122.641 37.3171 122.356 37.3244 122.078 37.3391L121.588 37.3537H121.595Z" fill="#FAFAFB"/>
<path d="M130.603 43.4341C128.664 43.1195 126.659 42.9219 124.654 42.8487L124.807 38.4585C126.995 38.539 129.183 38.7512 131.312 39.1024L130.603 43.4341Z" fill="#FAFAFB"/>
<path d="M132.286 49.3609C130.427 48.9366 128.539 48.6366 126.673 48.4683L127.061 44.0927C129.132 44.2756 131.217 44.6048 133.266 45.0805L132.286 49.3609Z" fill="#FAFAFB"/>
<path d="M133.105 55.2366C131.371 54.7317 129.578 54.3512 127.778 54.1098L128.356 49.7561C130.375 50.0268 132.388 50.4512 134.334 51.022L133.105 55.2366Z" fill="#FAFAFB"/>
<path d="M133.127 61.0097C131.481 60.4317 129.768 59.9927 128.042 59.7L128.766 55.3683C130.749 55.6976 132.702 56.2024 134.583 56.8683L133.127 61.0097Z" fill="#FAFAFB"/>
<path d="M115.347 37.8658L114.717 33.5195C116.898 33.2048 119.181 33.0146 121.486 32.9634L121.595 37.3536C119.459 37.4048 117.359 37.5805 115.347 37.8731V37.8658Z" fill="#FAFAFB"/>
<path d="M124.654 42.8488H124.551C124.01 42.8269 123.476 42.8049 122.927 42.8049V38.4147C123.527 38.4147 124.119 38.4366 124.712 38.4586H124.815L124.654 42.8488Z" fill="#FAFAFB"/>
<path d="M118.815 42.9952L118.441 38.6196C120.051 38.4805 121.522 38.4147 122.934 38.4147V42.8049C121.646 42.8049 120.307 42.8635 118.822 42.9952H118.815Z" fill="#FAFAFB"/>
<path d="M121.156 48.3366L120.973 43.9537C121.624 43.9244 122.276 43.9025 122.927 43.9025V48.2927C122.334 48.2927 121.741 48.3147 121.156 48.3366Z" fill="#FAFAFB"/>
<path d="M126.673 48.4683C125.341 48.3512 124.119 48.2927 122.927 48.2927V43.9025C124.244 43.9025 125.597 43.9683 127.061 44.0927L126.673 48.4683Z" fill="#FAFAFB"/>
<path d="M127.771 54.1098C126.117 53.8903 124.485 53.7805 122.927 53.7805V49.3903C124.683 49.3903 126.512 49.5147 128.356 49.7634L127.778 54.1171L127.771 54.1098Z" fill="#FAFAFB"/>
<path d="M122.488 53.7951L122.444 49.4049H122.598C122.707 49.3976 122.817 49.3903 122.919 49.3903V53.7805L122.48 53.7951H122.488Z" fill="#FAFAFB"/>
<path d="M128.041 59.7C126.329 59.4146 124.61 59.2683 122.927 59.2683V54.8781C124.851 54.8781 126.812 55.0463 128.766 55.3683L128.041 59.7Z" fill="#FAFAFB"/>
<path d="M91.3173 47.8537L88.6831 44.3415C96.3002 38.6195 105.3 34.8805 114.725 33.5195L115.354 37.8659C106.661 39.1171 98.3563 42.5707 91.3246 47.8464L91.3173 47.8537Z" fill="#FAFAFB"/>
<path d="M99.461 55.5219L96.9878 51.8926C104.078 47.056 112.376 44.3121 120.973 43.9463L121.156 48.3292C113.378 48.6585 105.871 51.139 99.461 55.5146V55.5219Z" fill="#FAFAFB"/>
<path d="M95.6196 51.5195L93.0732 47.9415C100.544 42.6293 109.31 39.4024 118.434 38.6195L118.815 42.9951C110.473 43.7122 102.446 46.661 95.6196 51.5195Z" fill="#FAFAFB"/>
<path d="M105.849 64.4488L103.405 60.8049C109.193 56.9268 115.939 54.8781 122.927 54.8781V59.2683C116.817 59.2683 110.912 61.061 105.849 64.4488Z" fill="#FAFAFB"/>
<path d="M102.871 59.839L100.434 56.1878C106.954 51.8415 114.563 49.4927 122.437 49.3976L122.488 53.7878C115.463 53.8683 108.68 55.961 102.863 59.839H102.871Z" fill="#FAFAFB"/>
<path d="M116.276 77.2756C113.583 75.7244 110.773 74.4073 107.934 73.3829L109.427 69.2561C112.507 70.3683 115.551 71.7878 118.471 73.4707L116.276 77.2756Z" fill="#FAFAFB"/>
<path d="M147.073 122.927H142.683C142.683 122.649 142.676 122.363 142.661 122.085L142.646 121.595L147.037 121.485L147.051 121.939C147.066 122.268 147.073 122.598 147.073 122.927Z" fill="#FAFAFB"/>
<path d="M143.678 142.361L139.551 140.868C140.298 138.82 140.927 136.639 141.417 134.4L145.705 135.351C145.171 137.773 144.483 140.129 143.678 142.361Z" fill="#FAFAFB"/>
<path d="M146.81 128.371L142.441 127.961C142.602 126.241 142.683 124.551 142.683 122.934H147.073C147.073 124.69 146.985 126.519 146.81 128.378V128.371Z" fill="#FAFAFB"/>
<path d="M142.134 115.346C140.883 106.654 137.429 98.3488 132.154 91.3171L135.666 88.683C141.388 96.3001 145.127 105.3 146.488 114.717L142.142 115.346H142.134Z" fill="#FAFAFB"/>
<path d="M90 180V175.61C112.112 175.61 132.022 161.649 139.544 140.861L143.671 142.354C135.52 164.868 113.949 179.993 89.9927 179.993L90 180Z" fill="#FAFAFB"/>
<path d="M89.9998 180C66.0511 180 44.4803 164.876 36.3291 142.361L40.4559 140.868C47.9779 161.649 67.895 175.617 89.9998 175.617V180.007V180Z" fill="#FAFAFB"/>
<path d="M90.0001 174.512C69.9367 174.512 51.5343 162.724 43.1343 144.476L47.1221 142.639C54.8123 159.337 71.6416 170.122 90.0001 170.122V174.512Z" fill="#FAFAFB"/>
<path d="M90 174.512V170.122C108.359 170.122 125.188 159.337 132.878 142.639L136.866 144.476C128.466 162.724 110.063 174.512 90 174.512Z" fill="#FAFAFB"/>
<path d="M145.705 135.351L141.417 134.4C141.893 132.256 142.236 130.083 142.441 127.954L146.81 128.371C146.59 130.683 146.217 133.032 145.705 135.351Z" fill="#FAFAFB"/>
<path d="M139.368 137.905L135.168 136.632C135.761 134.678 136.229 132.651 136.566 130.602L140.898 131.312C140.532 133.551 140.02 135.768 139.368 137.905Z" fill="#FAFAFB"/>
<path d="M142.646 121.595C142.595 119.458 142.42 117.351 142.127 115.346L146.473 114.717C146.788 116.898 146.978 119.173 147.037 121.485L142.646 121.595Z" fill="#FAFAFB"/>
<path d="M141.542 124.815L137.151 124.661V124.493C137.173 123.973 137.195 123.454 137.195 122.934H141.586C141.586 123.512 141.564 124.083 141.542 124.654V124.822V124.815Z" fill="#FAFAFB"/>
<path d="M141.585 122.927H137.195C137.195 121.639 137.137 120.293 137.005 118.815L141.38 118.434C141.52 120.037 141.585 121.507 141.585 122.927Z" fill="#FAFAFB"/>
<path d="M130.068 145.712L126.256 143.539C127.28 141.746 128.173 139.858 128.912 137.941L133.01 139.522C132.19 141.644 131.202 143.729 130.068 145.712Z" fill="#FAFAFB"/>
<path d="M136.866 144.476L132.878 142.639C133.785 140.671 134.554 138.644 135.168 136.632L139.368 137.905C138.702 140.115 137.861 142.324 136.866 144.476Z" fill="#FAFAFB"/>
<path d="M140.898 131.312L136.566 130.602C136.881 128.663 137.078 126.659 137.151 124.654L141.542 124.815C141.461 127.01 141.249 129.198 140.898 131.312Z" fill="#FAFAFB"/>
<path d="M134.92 133.266L130.639 132.285C131.064 130.434 131.364 128.546 131.532 126.673L135.907 127.061C135.725 129.132 135.388 131.224 134.92 133.266Z" fill="#FAFAFB"/>
<path d="M131.663 121.156C131.341 113.378 128.854 105.878 124.478 99.461L128.107 96.9878C132.944 104.078 135.688 112.376 136.054 120.973L131.663 121.156Z" fill="#FAFAFB"/>
<path d="M137.005 118.815C136.288 110.473 133.339 102.446 128.48 95.6195L132.059 93.0731C137.371 100.544 140.598 109.317 141.38 118.434L137.005 118.815Z" fill="#FAFAFB"/>
<path d="M90 169.024V164.634C104.949 164.634 118.837 156.549 126.256 143.539L130.068 145.712C121.873 160.09 106.522 169.024 90 169.024Z" fill="#FAFAFB"/>
<path d="M89.9999 169.024C73.478 169.024 58.1268 160.09 49.9316 145.712L53.7438 143.539C61.156 156.556 75.0512 164.634 89.9999 164.634V169.024Z" fill="#FAFAFB"/>
<path d="M90.0002 163.537C76.7197 163.537 64.2587 157.017 56.6562 146.1L60.2562 143.59C67.0392 153.329 78.1538 159.146 90.0002 159.146V163.537Z" fill="#FAFAFB"/>
<path d="M90 163.537V159.146C101.839 159.146 112.961 153.329 119.744 143.59L123.344 146.1C115.741 157.017 103.28 163.537 90 163.537Z" fill="#FAFAFB"/>
<path d="M126.717 140.283L122.751 138.402C123.549 136.712 124.229 134.927 124.763 133.098L128.978 134.327C128.378 136.376 127.617 138.38 126.724 140.276L126.717 140.283Z" fill="#FAFAFB"/>
<path d="M133.01 139.522L128.912 137.942C129.615 136.112 130.2 134.217 130.639 132.293L134.919 133.273C134.429 135.402 133.785 137.502 133.01 139.522Z" fill="#FAFAFB"/>
<path d="M136.098 122.927H131.707C131.707 122.334 131.686 121.741 131.664 121.156L136.054 120.973C136.083 121.624 136.105 122.276 136.105 122.927H136.098Z" fill="#FAFAFB"/>
<path d="M135.907 127.061L131.532 126.673C131.649 125.342 131.707 124.112 131.707 122.927H136.098C136.098 124.244 136.032 125.598 135.907 127.061Z" fill="#FAFAFB"/>
<path d="M130.236 128.356L125.883 127.778C126.102 126.132 126.212 124.5 126.212 122.934H130.602C130.602 124.697 130.478 126.519 130.229 128.363L130.236 128.356Z" fill="#FAFAFB"/>
<path d="M130.61 122.927H126.22L126.205 122.488L130.595 122.437V122.59C130.603 122.7 130.61 122.81 130.61 122.919V122.927Z" fill="#FAFAFB"/>
<path d="M123.344 146.1L119.744 143.59C120.893 141.937 121.91 140.195 122.751 138.41L126.717 140.29C125.766 142.295 124.632 144.256 123.344 146.1Z" fill="#FAFAFB"/>
<path d="M123.132 134.583L118.99 133.127C119.568 131.481 120.007 129.776 120.3 128.042L124.632 128.766C124.302 130.749 123.798 132.702 123.132 134.583Z" fill="#FAFAFB"/>
<path d="M128.97 134.334L124.756 133.105C125.261 131.371 125.641 129.578 125.883 127.778L130.236 128.356C129.966 130.376 129.541 132.388 128.97 134.334Z" fill="#FAFAFB"/>
<path d="M125.122 122.927H120.732C120.732 116.817 118.939 110.912 115.551 105.849L119.202 103.405C123.081 109.193 125.129 115.939 125.129 122.927H125.122Z" fill="#FAFAFB"/>
<path d="M126.205 122.488C126.125 115.463 124.032 108.68 120.154 102.871L123.805 100.434C128.151 106.954 130.5 114.563 130.588 122.437L126.198 122.488H126.205Z" fill="#FAFAFB"/>
<path d="M89.9998 158.049C79.7193 158.049 69.9876 153.556 63.2998 145.734L66.6364 142.88C72.49 149.729 81.0071 153.659 89.9998 153.659V158.049Z" fill="#FAFAFB"/>
<path d="M90 158.049V153.659C98.9927 153.659 107.51 149.729 113.363 142.88L116.7 145.734C110.005 153.563 100.273 158.049 90 158.049Z" fill="#FAFAFB"/>
<path d="M120.534 140.276L116.722 138.102C117.629 136.507 118.398 134.832 118.998 133.127L123.139 134.583C122.451 136.537 121.573 138.454 120.542 140.276H120.534Z" fill="#FAFAFB"/>
<path d="M124.632 128.766L120.3 128.042C120.585 126.329 120.732 124.61 120.732 122.927H125.122C125.122 124.851 124.953 126.82 124.632 128.766Z" fill="#FAFAFB"/>
<path d="M102.212 114.966L98.3706 112.837C98.9121 111.856 99.4462 110.802 99.9511 109.712L103.939 111.549C103.39 112.741 102.812 113.89 102.212 114.966Z" fill="#FAFAFB"/>
<path d="M106.529 118.471L102.725 116.276C104.276 113.583 105.593 110.773 106.617 107.934L110.744 109.427C109.632 112.507 108.212 115.551 106.529 118.471Z" fill="#FAFAFB"/>
<path d="M97.6827 90H93.2925L93.2778 89.561L97.6681 89.5098V89.6634C97.6754 89.7732 97.6827 89.8829 97.6827 89.9927V90Z" fill="#FAFAFB"/>
<path d="M128.437 91.4634L125.166 88.5366C126.315 87.2488 127.427 85.8512 128.473 84.3805L132.051 86.9268C130.91 88.5293 129.695 90.0585 128.437 91.4634Z" fill="#FAFAFB"/>
<path d="M131.876 95.8391L128.656 92.8537C129.915 91.5001 131.086 90.0952 132.146 88.683L135.659 91.3171C134.51 92.8464 133.237 94.3684 131.876 95.8318V95.8391Z" fill="#FAFAFB"/>
<path d="M124.558 87.5635L121.266 84.6586C122.436 83.3342 123.519 81.9439 124.478 80.5391L128.107 83.0122C127.046 84.5708 125.853 86.1 124.558 87.5635Z" fill="#FAFAFB"/>
<path d="M115.5 81.2122L112.31 78.1976C113.517 76.9244 114.607 75.5634 115.551 74.1512L119.202 76.5952C118.119 78.2122 116.875 79.7634 115.5 81.2195V81.2122Z" fill="#FAFAFB"/>
<path d="M127.741 99.8634L124.836 96.5707C126.183 95.3853 127.463 94.1341 128.656 92.8463L131.875 95.8317C130.588 97.2219 129.197 98.5756 127.741 99.8634Z" fill="#FAFAFB"/>
<path d="M124.376 95.5244L121.449 92.2537C122.751 91.0903 124.002 89.8391 125.166 88.5366L128.437 91.4635C127.163 92.883 125.795 94.2513 124.376 95.5244Z" fill="#FAFAFB"/>
<path d="M120.476 91.6464L117.571 88.3537C118.873 87.2049 120.117 85.961 121.266 84.6586L124.559 87.5634C123.285 89.0049 121.917 90.3732 120.476 91.6464Z" fill="#FAFAFB"/>
<path d="M116.012 88.2512L113.195 84.878C114.534 83.7585 115.808 82.5292 116.978 81.2195L120.249 84.1463C118.939 85.6097 117.512 86.9927 116.005 88.2439L116.012 88.2512Z" fill="#FAFAFB"/>
<path d="M112.807 83.7731L109.954 80.4365C110.773 79.7414 111.563 78.9878 112.31 78.1975L115.493 81.2195C114.637 82.1195 113.729 82.9829 112.8 83.7804L112.807 83.7731Z" fill="#FAFAFB"/>
<path d="M119.897 99.1024L117.351 95.5244C118.8 94.4927 120.183 93.3878 121.456 92.2537L124.383 95.5244C122.993 96.7683 121.485 97.9756 119.897 99.1024Z" fill="#FAFAFB"/>
<path d="M123.264 103.434L120.703 99.8707C122.137 98.839 123.527 97.7341 124.837 96.578L127.742 99.8707C126.322 101.122 124.815 102.322 123.264 103.441V103.434Z" fill="#FAFAFB"/>
<path d="M113.173 90.4171L110.664 86.8171C111.564 86.1951 112.412 85.5439 113.203 84.8854L116.02 88.2585C115.134 88.9976 114.176 89.7293 113.173 90.4244V90.4171Z" fill="#FAFAFB"/>
<path d="M115.836 95.2536L113.371 91.6171C114.79 90.6512 116.202 89.5536 117.563 88.3536L120.468 91.6463C118.968 92.9707 117.41 94.1853 115.836 95.2536Z" fill="#FAFAFB"/>
<path d="M118.471 106.529L116.275 102.724C117.797 101.846 119.29 100.888 120.702 99.8707L123.263 103.434C121.727 104.539 120.117 105.578 118.471 106.529Z" fill="#FAFAFB"/>
<path d="M114.966 102.212L112.836 98.3708C114.351 97.5293 115.866 96.5707 117.344 95.5171L119.89 99.0951C118.28 100.244 116.619 101.29 114.958 102.212H114.966Z" fill="#FAFAFB"/>
<path d="M112.785 97.1415L110.612 93.3293C111.637 92.7439 112.544 92.1805 113.378 91.6171L115.844 95.2536C114.915 95.8829 113.912 96.5049 112.785 97.1415Z" fill="#FAFAFB"/>
<path d="M109.434 110.751L107.941 106.624C110.78 105.6 113.583 104.29 116.283 102.732L118.478 106.537C115.558 108.22 112.515 109.639 109.441 110.751H109.434Z" fill="#FAFAFB"/>
<path d="M111.549 103.939L109.712 99.9512C110.81 99.4463 111.856 98.9195 112.837 98.3707L114.966 102.212C113.89 102.805 112.742 103.39 111.549 103.939Z" fill="#FAFAFB"/>
<path d="M110.81 85.3609L108.205 81.8268C108.776 81.4024 109.368 80.9341 109.954 80.4365L112.808 83.7731C112.142 84.3438 111.468 84.878 110.81 85.3609Z" fill="#FAFAFB"/>
<path d="M110.927 91.8806L108.659 88.1196C109.303 87.7318 109.954 87.3074 110.664 86.8171L113.173 90.4171C112.39 90.9659 111.651 91.4415 110.927 91.8806Z" fill="#FAFAFB"/>
<path d="M107.349 87.6073L105.176 83.7951C106.237 83.1878 107.254 82.5292 108.205 81.8341L110.81 85.3683C109.727 86.1658 108.564 86.9195 107.356 87.6073H107.349Z" fill="#FAFAFB"/>
<path d="M107.356 93.7902L105.476 89.8244C106.573 89.3049 107.641 88.7268 108.659 88.1195L110.927 91.8805C109.793 92.5683 108.593 93.2049 107.363 93.7902H107.356Z" fill="#FAFAFB"/>
<path d="M110.488 98.3707L108.534 94.4414C109.207 94.1048 109.91 93.7317 110.612 93.3292L112.785 97.1414C112.002 97.5878 111.234 97.9975 110.488 98.3707Z" fill="#FAFAFB"/>
<path d="M102.424 112.771L101.473 108.483C103.712 107.985 105.885 107.356 107.941 106.617L109.434 110.744C107.202 111.549 104.846 112.237 102.424 112.771Z" fill="#FAFAFB"/>
<path d="M106.595 100.083L105.015 95.9853C106.222 95.517 107.4 94.9975 108.534 94.4414L110.488 98.3707C109.237 98.9926 107.927 99.5707 106.595 100.083Z" fill="#FAFAFB"/>
<path d="M104.978 106.441L103.705 102.241C105.725 101.627 107.744 100.858 109.712 99.9512L111.549 103.939C109.398 104.927 107.188 105.768 104.978 106.441Z" fill="#FAFAFB"/>
<path d="M104.583 89.0195L102.761 85.0244C103.58 84.6513 104.392 84.2342 105.183 83.7878L107.356 87.6C106.456 88.1122 105.527 88.5878 104.59 89.0195H104.583Z" fill="#FAFAFB"/>
<path d="M104.451 95.0269L102.893 90.922C103.785 90.5781 104.656 90.2123 105.483 89.8245L107.363 93.7903C106.441 94.2293 105.461 94.6464 104.458 95.0269H104.451Z" fill="#FAFAFB"/>
<path d="M101.656 90.2049L100.2 86.0634C101.056 85.7634 101.92 85.4122 102.761 85.0244L104.583 89.0195C103.625 89.4586 102.637 89.8537 101.656 90.2049Z" fill="#FAFAFB"/>
<path d="M98.3855 107.971L97.6758 103.639C99.7172 103.302 101.751 102.834 103.705 102.241L104.978 106.441C102.842 107.093 100.625 107.605 98.3855 107.971Z" fill="#FAFAFB"/>
<path d="M98.2098 113.554L97.5806 109.207C98.8391 109.024 100.149 108.783 101.466 108.49L102.417 112.778C100.99 113.093 99.5708 113.356 98.2025 113.554H98.2098Z" fill="#FAFAFB"/>
<path d="M101.407 96.0439L100.178 91.8293C101.1 91.5586 102.015 91.2513 102.893 90.922L104.459 95.0269C103.471 95.4 102.447 95.7439 101.407 96.0513V96.0439Z" fill="#FAFAFB"/>
<path d="M100.339 101.993L99.3584 97.7122C101.283 97.2732 103.185 96.6878 105.007 95.9854L106.588 100.083C104.568 100.866 102.461 101.51 100.339 101.993Z" fill="#FAFAFB"/>
<path d="M95.8391 91.7049L95.1147 87.3732C96.8489 87.0806 98.5538 86.6415 100.2 86.0635L101.656 90.2049C99.7757 90.8635 97.8147 91.3684 95.8391 91.7049Z" fill="#FAFAFB"/>
<path d="M94.4928 108.454L94.1123 104.078C95.3269 103.976 96.5269 103.822 97.6757 103.639L98.3855 107.971C97.1269 108.176 95.8172 108.337 94.4928 108.454Z" fill="#FAFAFB"/>
<path d="M94.1339 102.98L93.7461 98.6048C95.6266 98.4365 97.5144 98.1365 99.3583 97.7122L100.339 101.993C98.2973 102.461 96.2046 102.79 94.1339 102.98Z" fill="#FAFAFB"/>
<path d="M95.4291 97.3097L94.8511 92.9561C96.6584 92.7146 98.4511 92.3341 100.178 91.8292L101.407 96.0439C99.4681 96.6146 97.4559 97.039 95.4291 97.3097Z" fill="#FAFAFB"/>
<path d="M90 92.1951V87.8049C91.6829 87.8049 93.4024 87.6585 95.1146 87.3732L95.839 91.7049C93.8854 92.0341 91.9244 92.1951 90 92.1951Z" fill="#FAFAFB"/>
<path d="M91.9608 103.119L91.7778 98.7366C92.4144 98.7073 93.073 98.6634 93.7461 98.6049L94.1339 102.98C93.3876 103.046 92.6559 103.098 91.9534 103.127L91.9608 103.119Z" fill="#FAFAFB"/>
<path d="M90.4902 97.6682L90.439 93.278C91.9024 93.2634 93.3878 93.1536 94.8512 92.9561L95.4365 97.3097C93.8048 97.5292 92.1365 97.6463 90.4975 97.6682H90.4902Z" fill="#FAFAFB"/>
<path d="M40.4559 39.139L36.3291 37.6463C44.4803 15.1244 66.0511 0 89.9998 0V4.39024C67.8876 4.39024 47.9779 18.3512 40.4559 39.139Z" fill="#FAFAFB"/>
<path d="M47.1221 37.361L43.1343 35.5244C51.5343 17.2756 69.9367 5.48779 90.0001 5.48779V9.87804C71.6416 9.87804 54.8123 20.6634 47.1221 37.361Z" fill="#FAFAFB"/>
<path d="M53.7438 36.461L49.9316 34.2878C58.1268 19.9097 73.478 10.9756 89.9999 10.9756V15.3658C75.0512 15.3658 61.1633 23.4512 53.7438 36.461Z" fill="#FAFAFB"/>
<path d="M60.2562 36.4097L56.6562 33.9C64.2587 22.9829 76.7197 16.4634 90.0002 16.4634V20.8536C78.1611 20.8536 67.0392 26.6707 60.2562 36.4097Z" fill="#FAFAFB"/>
<path d="M66.6364 37.1195L63.2998 34.2658C69.9949 26.4365 79.7266 21.9512 89.9998 21.9512V26.3414C81.0071 26.3414 72.49 30.2707 66.6364 37.1195Z" fill="#FAFAFB"/>
<path d="M38.5827 45.6L34.2949 44.6488C34.8364 42.2268 35.5169 39.8707 36.3218 37.639L40.4486 39.1317C39.7022 41.1805 39.073 43.361 38.5827 45.6Z" fill="#FAFAFB"/>
<path d="M44.8318 43.3683L40.6318 42.0951C41.305 39.8854 42.1465 37.6756 43.1343 35.5244L47.1221 37.361C46.2148 39.3293 45.4465 41.3488 44.8318 43.3683Z" fill="#FAFAFB"/>
<path d="M51.0878 42.0586L46.9902 40.4781C47.8097 38.3561 48.7975 36.2708 49.9317 34.2878L53.7439 36.461C52.7195 38.2537 51.8268 40.1342 51.0878 42.0586Z" fill="#FAFAFB"/>
<path d="M57.2486 41.5976L53.2827 39.7171C54.2339 37.7122 55.3681 35.7513 56.6559 33.9073L60.2559 36.4171C59.1071 38.0708 58.0973 39.8122 57.2486 41.5976Z" fill="#FAFAFB"/>
<path d="M63.2853 41.8903L59.4731 39.7171C60.5707 37.7854 61.8585 35.9561 63.3073 34.2659L66.6439 37.1195C65.378 38.5976 64.2512 40.2 63.2927 41.8903H63.2853Z" fill="#FAFAFB"/>
<path d="M43.4342 49.3975L39.1025 48.6878C39.4684 46.4488 39.9806 44.2317 40.6318 42.0951L44.8318 43.3683C44.2391 45.3219 43.7708 47.3488 43.4342 49.3975Z" fill="#FAFAFB"/>
<path d="M37.5587 52.0464L33.1904 51.6293C33.4099 49.3244 33.7831 46.9756 34.2953 44.6488L38.5831 45.6C38.1075 47.7439 37.7636 49.9171 37.5587 52.0464Z" fill="#FAFAFB"/>
<path d="M55.2439 46.8951L51.0293 45.6658C51.6293 43.6097 52.3903 41.6048 53.283 39.717L57.2488 41.5975C56.4512 43.2805 55.7708 45.0658 55.2366 46.9024L55.2439 46.8951Z" fill="#FAFAFB"/>
<path d="M49.3611 47.7146L45.0806 46.7341C45.5708 44.6049 46.2147 42.5049 46.9903 40.4854L51.0879 42.0658C50.3854 43.8951 49.8001 45.7902 49.3611 47.7146Z" fill="#FAFAFB"/>
<path d="M61.0096 46.8731L56.8682 45.417C57.556 43.4561 58.434 41.539 59.4657 39.7244L63.2779 41.8975C62.3706 43.4853 61.6096 45.1609 61.0023 46.8731H61.0096Z" fill="#FAFAFB"/>
<path d="M37.317 57.0732H32.9268C32.9268 55.3171 33.0146 53.4878 33.1902 51.6293L37.5585 52.039C37.3975 53.7585 37.317 55.4488 37.317 57.0659V57.0732Z" fill="#FAFAFB"/>
<path d="M32.9633 58.5146L32.9487 58.0756C32.9341 57.7463 32.9268 57.4097 32.9268 57.0804H37.317C37.317 57.3658 37.3243 57.6439 37.339 57.9292L37.3536 58.4122L32.9633 58.5219V58.5146Z" fill="#FAFAFB"/>
<path d="M42.8487 55.3463L38.4585 55.1853C38.539 52.9902 38.7512 50.8024 39.1024 48.6877L43.4341 49.3975C43.1195 51.3365 42.9219 53.3341 42.8487 55.3463Z" fill="#FAFAFB"/>
<path d="M48.4684 53.3268L44.0928 52.939C44.2757 50.8683 44.6123 48.7756 45.0806 46.7341L49.3611 47.7146C48.9367 49.5658 48.6367 51.4536 48.4684 53.3268Z" fill="#FAFAFB"/>
<path d="M59.6999 51.9586L55.3682 51.2342C55.6974 49.2586 56.2023 47.2976 56.8682 45.4171L61.0096 46.8732C60.4316 48.5196 59.9926 50.2318 59.6999 51.9586Z" fill="#FAFAFB"/>
<path d="M54.1095 52.2293L49.7559 51.6513C50.0266 49.6318 50.451 47.6196 51.0217 45.6732L55.2363 46.9025C54.7315 48.6366 54.351 50.4293 54.1095 52.2293Z" fill="#FAFAFB"/>
<path d="M33.5195 65.283C33.2048 63.1025 33.0146 60.8269 32.9561 58.5147L37.3463 58.4049C37.3975 60.5415 37.5731 62.6488 37.8658 64.6537L33.5195 65.283Z" fill="#FAFAFB"/>
<path d="M42.8048 57.0732H38.4146C38.4146 56.5025 38.4365 55.9391 38.4585 55.3757V55.1854L42.856 55.3391V55.5293C42.8341 56.0415 42.8121 56.5537 42.8121 57.0659L42.8048 57.0732Z" fill="#FAFAFB"/>
<path d="M38.6194 61.5658C38.4804 59.956 38.4146 58.4926 38.4146 57.0731H42.8048C42.8048 58.3609 42.8633 59.7073 42.995 61.1853L38.6194 61.5658Z" fill="#FAFAFB"/>
<path d="M43.9536 59.0268C43.9243 58.3756 43.9023 57.7243 43.9023 57.0731H48.2926C48.2926 57.6658 48.3145 58.2585 48.3365 58.8439L43.9462 59.0268H43.9536Z" fill="#FAFAFB"/>
<path d="M48.2926 57.0731H43.9023C43.9023 55.756 43.9682 54.4024 44.0926 52.939L48.4682 53.3268C48.3511 54.6658 48.2926 55.8877 48.2926 57.0731Z" fill="#FAFAFB"/>
<path d="M53.7804 57.0732H49.3901C49.3901 55.3171 49.5145 53.4878 49.7633 51.6439L54.117 52.222C53.8975 53.8756 53.7877 55.5 53.7877 57.0659L53.7804 57.0732Z" fill="#FAFAFB"/>
<path d="M49.4048 57.5634V57.4097C49.3975 57.3 49.3901 57.1902 49.3901 57.0804H53.7804L53.795 57.5195L49.4048 57.5707V57.5634Z" fill="#FAFAFB"/>
<path d="M59.2682 57.0732H54.8779C54.8779 55.1488 55.0462 53.1878 55.3682 51.2341L59.6999 51.9585C59.4145 53.6707 59.2682 55.3902 59.2682 57.0732Z" fill="#FAFAFB"/>
<path d="M44.3415 91.3171C38.6195 83.7 34.8805 74.7 33.5195 65.2756L37.8659 64.6464C39.1171 73.339 42.5708 81.6439 47.8537 88.6756L44.3415 91.3098V91.3171Z" fill="#FAFAFB"/>
<path d="M51.8926 83.0195C47.056 75.9292 44.3121 67.6317 43.9463 59.0341L48.3365 58.8512C48.6585 66.6292 51.1463 74.1292 55.5219 80.5463L51.8926 83.0195Z" fill="#FAFAFB"/>
<path d="M47.9416 86.9269C42.6294 79.4562 39.4026 70.683 38.6196 61.5659L42.9952 61.1854C43.7123 69.5269 46.6611 77.5537 51.5196 84.3805L47.9416 86.9269Z" fill="#FAFAFB"/>
<path d="M60.8048 76.5951C56.9267 70.8073 54.8779 64.0609 54.8779 57.0731H59.2682C59.2682 63.1829 61.0609 69.0878 64.4487 74.1512L60.7974 76.5951H60.8048Z" fill="#FAFAFB"/>
<path d="M56.1877 79.5659C51.8414 73.0464 49.4926 65.4366 49.4048 57.5634L53.795 57.5122C53.8755 64.5366 55.9682 71.3195 59.8463 77.1293L56.195 79.5659H56.1877Z" fill="#FAFAFB"/>
<path d="M73.3827 72.0659L69.2559 70.5732C70.3681 67.4927 71.7876 64.4488 73.4705 61.5366L77.2754 63.7317C75.7168 66.4244 74.4071 69.2342 73.3827 72.0732V72.0659Z" fill="#FAFAFB"/>
<path d="M96.5779 55.1634C95.3925 53.8171 94.1413 52.5366 92.8535 51.3439L95.8389 48.1244C97.2291 49.4122 98.5828 50.8024 99.8706 52.2585L96.5779 55.1634Z" fill="#FAFAFB"/>
<path d="M102.724 63.7244C101.854 62.2097 100.888 60.7171 99.8706 59.2975L103.434 56.7366C104.539 58.2732 105.585 59.8902 106.529 61.5293L102.724 63.7244Z" fill="#FAFAFB"/>
<path d="M108.49 78.5269C107.993 76.2879 107.364 74.1147 106.625 72.0586L110.751 70.5659C111.556 72.7976 112.244 75.1537 112.778 77.5757L108.49 78.5269Z" fill="#FAFAFB"/>
<path d="M88.5365 54.8341C87.2487 53.6853 85.8511 52.5731 84.3877 51.5268L86.934 47.9487C88.5365 49.0902 90.0657 50.3048 91.4706 51.5634L88.5438 54.8341H88.5365Z" fill="#FAFAFB"/>
<path d="M92.8538 51.3439C91.4929 50.0853 90.0953 48.9146 88.6831 47.8536L91.3173 44.3414C92.8465 45.4902 94.3685 46.7634 95.8319 48.1244L92.8465 51.3439H92.8538Z" fill="#FAFAFB"/>
<path d="M95.5242 62.6488C94.4924 61.2 93.3876 59.8171 92.2534 58.5439L95.5242 55.6171C96.7681 57.0146 97.9754 58.5219 99.1022 60.0951L95.5242 62.6415V62.6488Z" fill="#FAFAFB"/>
<path d="M99.8708 59.2976C98.8391 57.8634 97.7342 56.4732 96.5781 55.1634L99.8708 52.2585C101.122 53.6781 102.322 55.1854 103.442 56.7366L99.8781 59.2976H99.8708Z" fill="#FAFAFB"/>
<path d="M106.617 72.0659C105.586 69.2269 104.276 66.4171 102.725 63.7244L106.529 61.5293C108.212 64.4488 109.632 67.4854 110.744 70.5659L106.617 72.0586V72.0659Z" fill="#FAFAFB"/>
<path d="M99.9511 70.2878C99.4462 69.1903 98.9121 68.1366 98.3706 67.1635L102.212 65.0342C102.805 66.1025 103.383 67.2513 103.939 68.4513L99.9511 70.2878Z" fill="#FAFAFB"/>
<path d="M103.639 82.3244C103.302 80.2756 102.834 78.2488 102.241 76.2951L106.441 75.022C107.085 77.1586 107.605 79.3756 107.97 81.6147L103.639 82.3244Z" fill="#FAFAFB"/>
<path d="M88.3538 62.4292C87.205 61.1268 85.9611 59.8829 84.6587 58.7341L87.5636 55.4414C89.005 56.7146 90.3733 58.0902 91.6465 59.5243L88.3538 62.4292Z" fill="#FAFAFB"/>
<path d="M92.2537 58.5513C91.0903 57.2488 89.8391 55.9976 88.5366 54.8342L91.4635 51.5635C92.883 52.8366 94.2513 54.2049 95.5244 55.6244L92.2537 58.5513Z" fill="#FAFAFB"/>
<path d="M98.3781 67.1634C97.5366 65.6488 96.5781 64.1268 95.5244 62.6561L99.1025 60.1097C100.251 61.7195 101.298 63.3732 102.22 65.0341L98.3781 67.1634Z" fill="#FAFAFB"/>
<path d="M93.3294 69.3878C92.7367 68.3561 92.1806 67.4488 91.6172 66.622L95.2465 64.1561C95.8684 65.0781 96.4904 66.0805 97.1343 67.2147L93.3221 69.3878H93.3294Z" fill="#FAFAFB"/>
<path d="M95.9853 74.9854C95.517 73.7781 94.9975 72.5927 94.4414 71.4659L98.3707 69.5122C98.9926 70.7634 99.5634 72.0732 100.083 73.4049L95.9853 74.9854Z" fill="#FAFAFB"/>
<path d="M102.241 76.2951C101.627 74.2756 100.858 72.256 99.9512 70.2878L103.939 68.4512C104.927 70.6024 105.768 72.8121 106.441 75.0219L102.241 76.2951Z" fill="#FAFAFB"/>
<path d="M81.227 63.0146C79.9392 61.8585 78.5635 60.7975 77.1367 59.839L79.5733 56.1877C81.1757 57.256 82.7196 58.4487 84.1611 59.7438L81.2343 63.0146H81.227Z" fill="#FAFAFB"/>
<path d="M84.6586 58.7342C83.3269 57.5634 81.9439 56.4805 80.5391 55.522L83.0122 51.8927C84.5635 52.9537 86.0927 54.1464 87.5635 55.4415L84.6586 58.7342Z" fill="#FAFAFB"/>
<path d="M86.817 69.3366C86.195 68.4366 85.5438 67.5878 84.8853 66.7975L88.2511 63.9805C88.9901 64.8658 89.7218 65.8244 90.417 66.8268L86.817 69.3366Z" fill="#FAFAFB"/>
<path d="M91.6169 66.622C90.6511 65.2025 89.5535 63.7903 88.3535 62.4293L91.6462 59.5244C92.9706 61.0244 94.1852 62.583 95.2535 64.1561L91.6169 66.622Z" fill="#FAFAFB"/>
<path d="M94.4413 71.4658C94.1047 70.7926 93.7315 70.0975 93.3291 69.3878L97.1413 67.2146C97.5876 67.9975 97.9974 68.7658 98.3706 69.5122L94.4413 71.4658Z" fill="#FAFAFB"/>
<path d="M89.8245 74.5243C89.305 73.4268 88.7343 72.3585 88.1196 71.3487L91.8806 69.0804C92.5684 70.2219 93.2123 71.4219 93.7904 72.6512L89.8245 74.5317V74.5243Z" fill="#FAFAFB"/>
<path d="M97.7122 80.6415C97.2732 78.7171 96.6878 76.8147 95.9854 74.9927L100.083 73.4122C100.866 75.4317 101.502 77.5317 101.993 79.661L97.7122 80.6415Z" fill="#FAFAFB"/>
<path d="M91.8365 79.822C91.5658 78.8927 91.2585 77.9854 90.9292 77.1074L95.0341 75.5415C95.4073 76.522 95.7512 77.5537 96.0585 78.5927L91.8438 79.822H91.8365Z" fill="#FAFAFB"/>
<path d="M80.4368 70.0463C79.7417 69.2268 78.988 68.4366 78.1978 67.6902L81.2197 64.5C82.1197 65.3561 82.9831 66.2634 83.7807 67.1927L80.4441 70.0463H80.4368Z" fill="#FAFAFB"/>
<path d="M84.8783 66.7976C83.7588 65.4585 82.5295 64.1854 81.2197 63.0146L84.1466 59.7439C85.61 61.0537 86.9929 62.4878 88.2441 63.9878L84.8709 66.8049L84.8783 66.7976Z" fill="#FAFAFB"/>
<path d="M83.7876 74.8171C83.1803 73.7562 82.5218 72.7391 81.8267 71.7879L85.3608 69.183C86.1584 70.2659 86.912 71.4293 87.5998 72.644L83.7876 74.8171Z" fill="#FAFAFB"/>
<path d="M88.1193 71.3414C87.7388 70.7048 87.3071 70.0536 86.8169 69.3365L90.4169 66.8268C90.9657 67.617 91.4486 68.3561 91.8803 69.0731L88.1193 71.3341V71.3414Z" fill="#FAFAFB"/>
<path d="M86.0634 79.8C85.7634 78.9439 85.4122 78.0878 85.0317 77.2391L89.0269 75.4098C89.4659 76.3756 89.8683 77.3561 90.2122 78.3366L86.0708 79.7927L86.0634 79.8Z" fill="#FAFAFB"/>
<path d="M90.9218 77.1073C90.5779 76.2073 90.2047 75.3366 89.8242 74.5171L93.7901 72.6366C94.2218 73.5512 94.6388 74.5317 95.0267 75.5415L90.9218 77.1073Z" fill="#FAFAFB"/>
<path d="M92.9633 85.1561C92.7218 83.3561 92.3413 81.5634 91.8364 79.8292L96.0511 78.6C96.6218 80.5463 97.0462 82.5585 97.3169 84.578L92.9633 85.1561Z" fill="#FAFAFB"/>
<path d="M92.195 90H87.8048C87.8048 88.3171 87.6584 86.5976 87.373 84.8854L91.7048 84.161C92.034 86.1074 92.195 88.0756 92.195 90Z" fill="#FAFAFB"/>
<path d="M89.561 86.7219L89.5171 82.3316H89.6708C89.7805 82.3243 89.8903 82.317 89.9927 82.317V86.7073L89.5537 86.7219H89.561Z" fill="#FAFAFB"/>
<path d="M81.8268 71.7951C81.4024 71.2243 80.9341 70.639 80.4365 70.0463L83.7731 67.1926C84.3438 67.8585 84.878 68.5316 85.3609 69.1902L81.8268 71.7951Z" fill="#FAFAFB"/>
<path d="M85.0315 77.239C84.6583 76.4195 84.2413 75.6073 83.7949 74.8171L87.6071 72.6439C88.1193 73.5439 88.5949 74.4732 89.0266 75.4098L85.0315 77.2317V77.239Z" fill="#FAFAFB"/>
<path d="M87.3732 84.8853C87.0806 83.1512 86.6415 81.439 86.0635 79.8L90.2049 78.3439C90.8635 80.2244 91.3684 82.1853 91.7049 84.1609L87.3732 84.8853Z" fill="#FAFAFB"/>
<path d="M44.6489 145.698C42.227 145.163 39.8709 144.476 37.6392 143.671L39.1318 139.544C41.1806 140.29 43.3611 140.92 45.6001 141.41L44.6489 145.698Z" fill="#FAFAFB"/>
<path d="M57.0733 147.073C55.3172 147.073 53.4806 146.985 51.6294 146.81L52.0465 142.441C53.7587 142.602 55.4489 142.683 57.0733 142.683V147.073Z" fill="#FAFAFB"/>
<path d="M57.0732 147.073V142.683C57.3586 142.683 57.6367 142.676 57.9147 142.661L58.4049 142.646L58.5147 147.037L58.061 147.051C57.7318 147.066 57.4025 147.073 57.0732 147.073Z" fill="#FAFAFB"/>
<path d="M65.2831 146.481L64.6538 142.134C73.3465 140.883 81.6514 137.429 88.6831 132.154L91.3172 135.666C83.7002 141.388 74.7002 145.127 65.2831 146.488V146.481Z" fill="#FAFAFB"/>
<path d="M37.639 143.678C15.1244 135.52 0 113.956 0 90H4.39024C4.39024 112.112 18.3512 132.022 39.139 139.544L37.6463 143.671L37.639 143.678Z" fill="#FAFAFB"/>
<path d="M35.5244 136.866C17.2756 128.466 5.48779 110.063 5.48779 90H9.87804C9.87804 108.359 20.6634 125.188 37.361 132.878L35.5244 136.866Z" fill="#FAFAFB"/>
<path d="M51.6294 146.81C49.3172 146.59 46.9684 146.217 44.6489 145.705L45.6001 141.417C47.744 141.893 49.9099 142.237 52.0392 142.441L51.6294 146.81Z" fill="#FAFAFB"/>
<path d="M48.6879 140.898C46.4562 140.532 44.2391 140.02 42.0952 139.368L43.3684 135.168C45.322 135.761 47.3489 136.229 49.3977 136.566L48.6879 140.898Z" fill="#FAFAFB"/>
<path d="M58.5145 147.037L58.4048 142.646C60.5414 142.595 62.6487 142.42 64.6536 142.127L65.2828 146.473C63.1023 146.788 60.8267 146.978 58.5145 147.037Z" fill="#FAFAFB"/>
<path d="M57.0734 141.585C56.5026 141.585 55.9392 141.563 55.3758 141.549H55.1855L55.3392 137.151H55.5295C56.0416 137.173 56.5538 137.195 57.066 137.195V141.585H57.0734Z" fill="#FAFAFB"/>
<path d="M57.0732 141.585V137.195C58.361 137.195 59.7001 137.137 61.1854 137.005L61.5586 141.38C59.9488 141.52 58.4781 141.585 57.0659 141.585H57.0732Z" fill="#FAFAFB"/>
<path d="M40.4778 133.01C38.3559 132.19 36.2705 131.202 34.2876 130.068L36.4608 126.256C38.2535 127.28 40.1413 128.173 42.0583 128.912L40.4778 133.01Z" fill="#FAFAFB"/>
<path d="M42.0951 139.368C39.8854 138.695 37.6756 137.854 35.5244 136.866L37.361 132.878C39.3293 133.785 41.3488 134.554 43.3683 135.168L42.0951 139.368Z" fill="#FAFAFB"/>
<path d="M55.1855 141.542C52.9904 141.461 50.8026 141.249 48.688 140.898L49.3977 136.566C51.3368 136.881 53.3343 137.078 55.3465 137.151L55.1855 141.542Z" fill="#FAFAFB"/>
<path d="M52.9393 135.907C50.8612 135.724 48.7758 135.388 46.7344 134.92L47.7149 130.639C49.5661 131.063 51.4539 131.363 53.3271 131.532L52.9393 135.907Z" fill="#FAFAFB"/>
<path d="M59.0267 136.046L58.8438 131.663C66.6218 131.334 74.1291 128.854 80.5389 124.478L83.012 128.107C75.9218 132.944 67.6242 135.695 59.0267 136.054V136.046Z" fill="#FAFAFB"/>
<path d="M61.566 141.38L61.1855 137.005C69.527 136.288 77.5538 133.339 84.3807 128.48L86.927 132.059C79.4563 137.371 70.6904 140.598 61.566 141.38Z" fill="#FAFAFB"/>
<path d="M34.2878 130.068C19.9097 121.873 10.9756 106.522 10.9756 90H15.3658C15.3658 104.949 23.4512 118.837 36.461 126.256L34.2878 130.068Z" fill="#FAFAFB"/>
<path d="M33.9 123.344C22.9829 115.741 16.4634 103.28 16.4634 90H20.8536C20.8536 101.839 26.6707 112.961 36.4097 119.744L33.9 123.344Z" fill="#FAFAFB"/>
<path d="M45.6661 128.971C43.61 128.371 41.6051 127.61 39.7173 126.717L41.5978 122.751C43.2807 123.549 45.0661 124.222 46.9027 124.763L45.6734 128.978L45.6661 128.971Z" fill="#FAFAFB"/>
<path d="M46.7341 134.92C44.6049 134.429 42.5049 133.793 40.4854 133.01L42.0658 128.912C43.8951 129.615 45.7902 130.2 47.7146 130.639L46.7341 134.92Z" fill="#FAFAFB"/>
<path d="M57.0732 136.098V131.707C57.6659 131.707 58.2586 131.685 58.844 131.663L59.0269 136.046C58.3757 136.076 57.7245 136.098 57.0732 136.098Z" fill="#FAFAFB"/>
<path d="M57.0731 136.098C55.756 136.098 54.4024 136.032 52.939 135.907L53.3268 131.532C54.6585 131.649 55.8804 131.707 57.0731 131.707V136.098Z" fill="#FAFAFB"/>
<path d="M57.0733 130.61C55.3172 130.61 53.4879 130.485 51.644 130.237L52.2294 125.883C53.8757 126.102 55.5075 126.22 57.0733 126.22V130.61Z" fill="#FAFAFB"/>
<path d="M57.0732 130.61V126.219L57.5123 126.205L57.5562 130.595H57.4025C57.2928 130.602 57.183 130.61 57.0732 130.61Z" fill="#FAFAFB"/>
<path d="M39.717 126.717C37.7048 125.766 35.7511 124.632 33.8999 123.344L36.4097 119.744C38.056 120.893 39.8048 121.902 41.5901 122.751L39.7097 126.717H39.717Z" fill="#FAFAFB"/>
<path d="M51.2341 124.632C49.2585 124.302 47.2975 123.798 45.417 123.132L46.8731 118.99C48.5194 119.568 50.2316 120.007 51.9585 120.3L51.2341 124.632Z" fill="#FAFAFB"/>
<path d="M51.6441 130.237C49.6172 129.966 47.605 129.541 45.666 128.971L46.8953 124.756C48.6221 125.261 50.4148 125.641 52.2221 125.883L51.6441 130.237Z" fill="#FAFAFB"/>
<path d="M57.0732 125.122V120.732C63.183 120.732 69.0879 118.939 74.1513 115.551L76.5952 119.195C70.8074 123.073 64.061 125.122 57.0732 125.122Z" fill="#FAFAFB"/>
<path d="M57.5634 130.595L57.5122 126.205C64.5366 126.124 71.3195 124.032 77.1293 120.154L79.5659 123.805C73.0464 128.151 65.4366 130.5 57.5634 130.595Z" fill="#FAFAFB"/>
<path d="M34.2658 116.7C26.4365 110.012 21.9512 100.273 21.9512 90H26.3414C26.3414 98.9927 30.2707 107.51 37.1195 113.363L34.2658 116.7Z" fill="#FAFAFB"/>
<path d="M45.4173 123.132C43.4563 122.444 41.5392 121.566 39.7246 120.534L41.8978 116.722C43.4856 117.629 45.1612 118.39 46.8734 118.998L45.4173 123.139V123.132Z" fill="#FAFAFB"/>
<path d="M57.0734 125.122C55.149 125.122 53.188 124.954 51.2344 124.632L51.9588 120.3C53.671 120.585 55.3905 120.732 57.0734 120.732V125.122Z" fill="#FAFAFB"/>
<path d="M70.5659 110.751C67.4854 109.639 64.4488 108.22 61.522 106.537L63.7171 102.732C66.4171 104.29 69.2269 105.6 72.0586 106.624L70.5659 110.751Z" fill="#FAFAFB"/>
<path d="M51.344 87.1463L48.1245 84.161C49.4123 82.7707 50.8026 81.4098 52.2587 80.1293L55.1635 83.422C53.8172 84.6073 52.5367 85.8585 51.344 87.1463Z" fill="#FAFAFB"/>
<path d="M59.2978 80.1292L56.7368 76.5658C58.2734 75.4609 59.8832 74.4219 61.5295 73.4707L63.7246 77.2756C62.2027 78.1536 60.71 79.1122 59.2978 80.1292Z" fill="#FAFAFB"/>
<path d="M72.0659 73.3829L70.5732 69.2561C72.8049 68.4512 75.161 67.7707 77.583 67.2292L78.5342 71.5171C76.2952 72.0146 74.122 72.6439 72.0659 73.3829Z" fill="#FAFAFB"/>
<path d="M47.8535 91.317L44.3413 88.6828C45.4901 87.1609 46.7559 85.6389 48.1242 84.1682L51.3437 87.1536C50.0852 88.5146 48.9072 89.9194 47.8535 91.3243V91.317Z" fill="#FAFAFB"/>
<path d="M51.5195 95.6195L47.9414 93.0732C49.0829 91.4708 50.2975 89.9415 51.556 88.5366L54.8268 91.4635C53.678 92.7439 52.5658 94.1415 51.5195 95.6122V95.6195Z" fill="#FAFAFB"/>
<path d="M55.1632 83.422L52.2583 80.1293C53.6705 78.8781 55.1778 77.6781 56.7364 76.5586L59.2973 80.122C57.8559 81.1537 56.4656 82.2659 55.1632 83.4147V83.422Z" fill="#FAFAFB"/>
<path d="M58.5513 87.7464L55.6245 84.4756C57.0148 83.2317 58.5221 82.0317 60.1026 80.8976L62.6489 84.4683C61.2001 85.5073 59.8172 86.6049 58.544 87.7391L58.5513 87.7464Z" fill="#FAFAFB"/>
<path d="M63.7244 77.2756L61.5293 73.4707C64.4488 71.7878 67.4854 70.3683 70.5732 69.2561L72.0659 73.3829C69.2269 74.4146 66.4171 75.7244 63.7244 77.2756Z" fill="#FAFAFB"/>
<path d="M67.1635 81.622L65.0342 77.7805C66.1098 77.1879 67.2586 76.6025 68.4513 76.0537L70.2878 80.0415C69.1903 80.5464 68.1439 81.0732 67.1635 81.622Z" fill="#FAFAFB"/>
<path d="M76.2951 77.7586L75.022 73.5586C77.1586 72.9073 79.3756 72.3952 81.6147 72.0293L82.3244 76.361C80.283 76.6976 78.2488 77.1659 76.2951 77.7586Z" fill="#FAFAFB"/>
<path d="M54.8342 91.4634L51.5635 88.5366C52.8366 87.1097 54.2049 85.7488 55.6244 84.4756L58.5513 87.7463C57.2488 88.9097 55.9976 90.161 54.8342 91.4634Z" fill="#FAFAFB"/>
<path d="M58.7341 95.3414L55.4414 92.4366C56.7146 90.9951 58.0829 89.6268 59.5243 88.3536L62.4292 91.6463C61.1268 92.7951 59.8829 94.039 58.7341 95.3414Z" fill="#FAFAFB"/>
<path d="M62.6489 84.4756L60.1025 80.8976C61.7123 79.7488 63.3733 78.7025 65.0269 77.7805L67.1562 81.622C65.6416 82.4634 64.1269 83.422 62.6489 84.4683V84.4756Z" fill="#FAFAFB"/>
<path d="M66.6221 88.3829L64.1562 84.7463C65.0782 84.1171 66.0806 83.5024 67.2148 82.8585L69.388 86.6707C68.3563 87.2561 67.4489 87.8195 66.6221 88.3829Z" fill="#FAFAFB"/>
<path d="M70.2878 80.0488L68.4512 76.061C70.6024 75.0732 72.8121 74.2318 75.0219 73.5586L76.2951 77.7586C74.2756 78.3732 72.256 79.1415 70.2878 80.0488Z" fill="#FAFAFB"/>
<path d="M71.4732 85.5586L69.5195 81.6293C70.7634 81.0074 72.0732 80.4366 73.4122 79.9171L74.9927 84.0147C73.7854 84.483 72.6 85.0025 71.4732 85.5586Z" fill="#FAFAFB"/>
<path d="M55.5218 99.4609L51.8926 96.9877C52.9536 95.4292 54.1462 93.8999 55.4414 92.4365L58.734 95.3414C57.5633 96.6658 56.4804 98.056 55.5218 99.4609Z" fill="#FAFAFB"/>
<path d="M59.8392 102.871L56.188 100.434C57.2563 98.8317 58.449 97.2878 59.7441 95.8463L63.0148 98.7731C61.866 100.061 60.7977 101.437 59.8392 102.871Z" fill="#FAFAFB"/>
<path d="M62.4293 91.6463L59.5244 88.3537C61.0244 87.0293 62.5903 85.8146 64.1561 84.7463L66.622 88.3829C65.2025 89.3488 63.7903 90.4463 62.4293 91.6463Z" fill="#FAFAFB"/>
<path d="M66.7975 95.1219L63.9805 91.7487C64.8585 91.0097 65.8171 90.2853 66.8268 89.5829L69.3366 93.1829C68.4366 93.8122 67.5805 94.4634 66.7975 95.1146V95.1219Z" fill="#FAFAFB"/>
<path d="M69.388 86.6707L67.2148 82.8585C67.9978 82.4122 68.7661 82.0024 69.5124 81.6293L71.4661 85.5585C70.7929 85.8951 70.0978 86.2683 69.388 86.6707Z" fill="#FAFAFB"/>
<path d="M71.3415 91.8804L69.0732 88.1195C70.2147 87.4317 71.4147 86.7878 72.6367 86.2097L74.5171 90.1756C73.4196 90.6951 72.3513 91.2658 71.3342 91.8804H71.3415Z" fill="#FAFAFB"/>
<path d="M77.1074 89.078L75.5415 84.9731C76.522 84.5999 77.5464 84.256 78.5854 83.9487L79.8147 88.1634C78.8854 88.4341 77.9708 88.7414 77.1 89.078H77.1074Z" fill="#FAFAFB"/>
<path d="M74.9853 84.0146L73.4048 79.9171C75.4243 79.1342 77.5243 78.4976 79.6536 78.0073L80.6341 82.2878C78.7097 82.7268 76.8072 83.3122 74.9853 84.0146Z" fill="#FAFAFB"/>
<path d="M63.0149 98.7805L59.7441 95.8537C61.0539 94.3902 62.4807 93.0073 63.988 91.7561L66.8051 95.122C65.4661 96.2415 64.1929 97.4707 63.0222 98.7805H63.0149Z" fill="#FAFAFB"/>
<path d="M67.6902 101.802L64.5 98.7878C65.3488 97.8951 66.2561 97.0317 67.1927 96.2268L70.0463 99.5634C69.2268 100.266 68.4293 101.019 67.6902 101.802Z" fill="#FAFAFB"/>
<path d="M69.3364 93.1829L66.8267 89.5756C67.6242 89.0195 68.3559 88.5439 69.073 88.1122L71.334 91.8732C70.7047 92.2536 70.0462 92.678 69.3291 93.1756L69.3364 93.1829Z" fill="#FAFAFB"/>
<path d="M71.7953 98.1732L69.1904 94.639C70.2734 93.8415 71.4368 93.0878 72.6514 92.4L74.8246 96.2122C73.7636 96.8195 72.7465 97.4781 71.7953 98.1732Z" fill="#FAFAFB"/>
<path d="M74.5245 90.1756L72.644 86.2097C73.566 85.7707 74.5392 85.3609 75.5489 84.9731L77.1075 89.078C76.2075 89.4219 75.3367 89.7878 74.5172 90.1756H74.5245Z" fill="#FAFAFB"/>
<path d="M77.2389 94.9683L75.417 90.9732C76.3828 90.5342 77.3707 90.1317 78.3438 89.7878L79.7999 93.9293C78.9511 94.2293 78.0877 94.5732 77.2389 94.961V94.9683Z" fill="#FAFAFB"/>
<path d="M82.3315 90.4902V90.3366C82.3242 90.2268 82.3169 90.1171 82.3169 90.0073H86.7071L86.7218 90.4463L82.3315 90.4976V90.4902Z" fill="#FAFAFB"/>
<path d="M79.822 88.1633L78.5928 83.9487C80.5391 83.378 82.5513 82.9536 84.5708 82.6829L85.1489 87.0365C83.3489 87.278 81.5562 87.6585 79.822 88.1633Z" fill="#FAFAFB"/>
<path d="M64.4486 105.849L60.8047 103.405C61.8876 101.788 63.1315 100.237 64.5071 98.7805L67.6974 101.795C66.4901 103.068 65.3998 104.429 64.4559 105.841L64.4486 105.849Z" fill="#FAFAFB"/>
<path d="M70.0465 99.5634L67.1929 96.2268C67.8807 95.6415 68.5319 95.122 69.1904 94.639L71.7953 98.1732C71.2246 98.5903 70.6538 99.0512 70.0465 99.5634Z" fill="#FAFAFB"/>
<path d="M74.8245 96.2122L72.6514 92.4C73.5514 91.8878 74.4806 91.4122 75.4172 90.9805L77.2392 94.9756C76.4197 95.3488 75.6001 95.7658 74.8172 96.2122H74.8245Z" fill="#FAFAFB"/>
<path d="M79.7998 93.9366L78.3438 89.7952C80.2242 89.1366 82.1852 88.6318 84.1608 88.2952L84.8852 92.6269C83.1511 92.9196 81.4462 93.3586 79.7998 93.9366Z" fill="#FAFAFB"/>
<path d="M88.6831 135.659C87.1611 134.51 85.6392 133.237 84.1685 131.876L87.1538 128.656C88.5148 129.915 89.9197 131.093 91.3246 132.146L88.6904 135.659H88.6831Z" fill="#FAFAFB"/>
<path d="M93.0732 132.059C91.4708 130.917 89.9415 129.702 88.5366 128.444L91.4635 125.173C92.7513 126.322 94.1488 127.434 95.6122 128.481L93.0659 132.059H93.0732Z" fill="#FAFAFB"/>
<path d="M96.9877 128.107C95.4365 127.046 93.8999 125.854 92.4365 124.559L95.3414 121.266C96.6658 122.437 98.056 123.52 99.4536 124.478L96.9804 128.107H96.9877Z" fill="#FAFAFB"/>
<path d="M100.434 123.812C98.8315 122.744 97.2877 121.544 95.8462 120.256L98.773 116.985C100.061 118.134 101.436 119.202 102.863 120.161L100.427 123.812H100.434Z" fill="#FAFAFB"/>
<path d="M103.405 119.195C101.788 118.112 100.236 116.868 98.7803 115.493L101.802 112.302C103.075 113.51 104.436 114.6 105.849 115.544L103.405 119.188V119.195Z" fill="#FAFAFB"/>
<path d="M84.1611 131.876C82.7709 130.588 81.4172 129.198 80.1294 127.741L83.4221 124.837C84.6074 126.183 85.866 127.471 87.1465 128.656L84.1611 131.876Z" fill="#FAFAFB"/>
<path d="M92.4364 124.558C91.0023 123.293 89.6267 121.917 88.3535 120.476L91.6462 117.571C92.795 118.873 94.0389 120.117 95.3413 121.266L92.4364 124.558Z" fill="#FAFAFB"/>
<path d="M88.5366 128.437C87.1171 127.163 85.7488 125.802 84.4756 124.376L87.7463 121.449C88.9171 122.751 90.1683 124.002 91.4634 125.166L88.5366 128.437Z" fill="#FAFAFB"/>
<path d="M98.788 115.5C97.888 114.644 97.0246 113.744 96.2271 112.807L99.5636 109.954C100.266 110.773 101.02 111.563 101.803 112.31L98.7807 115.5H98.788Z" fill="#FAFAFB"/>
<path d="M95.8461 120.256C94.3827 118.946 93.0071 117.519 91.7485 116.012L95.1144 113.195C96.2339 114.534 97.4705 115.815 98.7729 116.978L95.8461 120.249V120.256Z" fill="#FAFAFB"/>
<path d="M96.227 112.807C95.6489 112.127 95.1221 111.476 94.6392 110.81L98.1733 108.205C98.5977 108.783 99.0514 109.354 99.5636 109.954L96.227 112.807Z" fill="#FAFAFB"/>
<path d="M80.1366 127.741C78.8854 126.329 77.6854 124.822 76.5659 123.263L80.1293 120.702C81.161 122.137 82.2732 123.534 83.422 124.837L80.1293 127.741H80.1366Z" fill="#FAFAFB"/>
<path d="M84.4755 124.376C83.2316 122.985 82.0243 121.471 80.8975 119.89L84.4755 117.344C85.5072 118.793 86.6048 120.176 87.7462 121.449L84.4755 124.376Z" fill="#FAFAFB"/>
<path d="M88.3539 120.476C87.0295 118.976 85.8222 117.417 84.7466 115.844L88.3832 113.378C89.349 114.798 90.4466 116.21 91.6466 117.571L88.3539 120.476Z" fill="#FAFAFB"/>
<path d="M91.7489 116.012C91.0098 115.127 90.2781 114.168 89.583 113.166L93.183 110.656C93.805 111.556 94.4562 112.405 95.1147 113.195L91.7489 116.012Z" fill="#FAFAFB"/>
<path d="M89.583 113.173C89.0343 112.39 88.5587 111.651 88.1196 110.927L91.8806 108.659C92.2684 109.302 92.6928 109.954 93.1904 110.663L89.5904 113.173H89.583Z" fill="#FAFAFB"/>
<path d="M94.6389 110.81C93.8414 109.727 93.0877 108.563 92.3999 107.349L96.2121 105.176C96.8194 106.237 97.478 107.254 98.1731 108.198L94.6389 110.802V110.81Z" fill="#FAFAFB"/>
<path d="M92.3927 107.349C91.8805 106.449 91.4049 105.52 90.9731 104.583L94.9683 102.761C95.3414 103.58 95.7585 104.393 96.2048 105.183L92.3927 107.356V107.349Z" fill="#FAFAFB"/>
<path d="M76.5658 123.263C75.4609 121.727 74.4219 120.117 73.4707 118.471L77.2756 116.276C78.1536 117.798 79.1122 119.283 80.1292 120.702L76.5658 123.263Z" fill="#FAFAFB"/>
<path d="M80.8973 119.898C79.7559 118.288 78.7022 116.634 77.7803 114.973L81.6217 112.844C82.4632 114.366 83.4217 115.88 84.4754 117.351L80.8973 119.898Z" fill="#FAFAFB"/>
<path d="M84.7462 115.837C84.1169 114.907 83.495 113.912 82.8584 112.778L86.6706 110.605C87.256 111.637 87.8194 112.537 88.3828 113.371L84.7462 115.837Z" fill="#FAFAFB"/>
<path d="M82.8587 112.785C82.4123 112.002 82.0026 111.234 81.6294 110.488L85.5587 108.534C85.8953 109.207 86.2684 109.902 86.6709 110.612L82.8587 112.785Z" fill="#FAFAFB"/>
<path d="M88.1197 110.927C87.4319 109.785 86.788 108.585 86.21 107.363L90.1758 105.483C90.6953 106.58 91.2661 107.649 91.8807 108.666L88.1197 110.934V110.927Z" fill="#FAFAFB"/>
<path d="M86.2097 107.356C85.778 106.441 85.3609 105.461 84.9731 104.451L89.078 102.885C89.4219 103.785 89.7951 104.656 90.1756 105.476L86.2097 107.356Z" fill="#FAFAFB"/>
<path d="M90.9803 104.583C90.5413 103.617 90.1388 102.637 89.7949 101.656L93.9364 100.2C94.2364 101.056 94.5876 101.912 94.9681 102.761L90.973 104.59L90.9803 104.583Z" fill="#FAFAFB"/>
<path d="M89.7949 101.656C89.1291 99.7756 88.6315 97.8146 88.2949 95.839L92.6266 95.1146C92.9193 96.8415 93.3583 98.5536 93.9364 100.2L89.7949 101.656Z" fill="#FAFAFB"/>
<path d="M88.2949 95.839C87.9657 93.8854 87.8047 91.9244 87.8047 90H92.1949C92.1949 91.6829 92.3413 93.4024 92.6266 95.1146L88.2949 95.839Z" fill="#FAFAFB"/>
<path d="M90 97.683V93.2927L90.439 93.2781L90.4829 97.6683H90.3293C90.2195 97.6756 90.1098 97.683 90 97.683Z" fill="#FAFAFB"/>
<path d="M73.4705 118.471C71.7876 115.551 70.3681 112.515 69.2559 109.427L73.3827 107.934C74.4144 110.773 75.7242 113.583 77.2754 116.276L73.4705 118.471Z" fill="#FAFAFB"/>
<path d="M77.7879 114.966C77.1952 113.89 76.6098 112.741 76.061 111.549L80.0488 109.712C80.5537 110.81 81.0805 111.856 81.6293 112.837L77.7879 114.966Z" fill="#FAFAFB"/>
<path d="M69.2563 109.434C68.4514 107.21 67.771 104.846 67.2295 102.424L71.5173 101.473C72.0149 103.712 72.6441 105.885 73.3832 107.941L69.2563 109.434Z" fill="#FAFAFB"/>
<path d="M76.061 111.549C75.0732 109.398 74.2318 107.188 73.5586 104.978L77.7586 103.705C78.3732 105.724 79.1415 107.744 80.0488 109.712L76.061 111.549Z" fill="#FAFAFB"/>
<path d="M81.6292 110.481C81.0072 109.229 80.4365 107.927 79.917 106.588L84.0146 105.007C84.4828 106.215 85.0024 107.4 85.5585 108.527L81.6292 110.481Z" fill="#FAFAFB"/>
<path d="M73.5586 104.978C72.9073 102.842 72.3952 100.624 72.0293 98.3854L76.361 97.6757C76.6976 99.7244 77.1659 101.751 77.7586 103.705L73.5586 104.978Z" fill="#FAFAFB"/>
<path d="M79.9171 106.595C79.1342 104.576 78.4976 102.468 78.0073 100.346L82.2878 99.3658C82.7268 101.29 83.3122 103.193 84.0146 105.015L79.9171 106.595Z" fill="#FAFAFB"/>
<path d="M84.9731 104.451C84.5999 103.471 84.256 102.446 83.9487 101.407L88.1634 100.178C88.4341 101.107 88.7414 102.022 89.0707 102.893L84.9658 104.459L84.9731 104.451Z" fill="#FAFAFB"/>
<path d="M83.9563 101.407C83.3855 99.4609 82.9612 97.4488 82.6904 95.4292L87.0441 94.8512C87.2855 96.6512 87.666 98.4512 88.1709 100.178L83.9563 101.407Z" fill="#FAFAFB"/>
</g>
<path d="M218.45 31.434V37.2291H229.338V45.3071H218.45V55.6096H209.202V22.8291H233.494V31.434H218.45Z" fill="#FAFAFB"/>
<path d="M252.459 45.2486L249.474 45.3071H248.128V55.6096H238.879V22.8291H252.693C261.591 22.8291 266.683 27.2779 266.683 34.1267C266.683 39.1023 264.166 42.0291 261.181 43.3754L268.615 55.6096H258.664L252.459 45.2486ZM253.22 38.2242C255.913 38.2242 257.201 36.9364 257.201 34.712C257.201 32.4876 255.971 31.1998 253.22 31.1998H248.128V38.2242H253.22Z" fill="#FAFAFB"/>
<path d="M288.861 22.1853C299.222 22.1853 306.598 29.2682 306.598 39.2194C306.598 49.1707 299.222 56.2536 288.861 56.2536C278.501 56.2536 271.184 49.1707 271.184 39.2194C271.184 29.2682 278.559 22.1853 288.861 22.1853ZM288.861 47.7658C293.895 47.7658 297.173 44.3121 297.173 39.2194C297.173 34.1268 293.895 30.6731 288.861 30.6731C283.827 30.6731 280.608 34.1268 280.608 39.2194C280.608 44.3121 283.886 47.7658 288.861 47.7658Z" fill="#FAFAFB"/>
<path d="M333.708 55.6096L320.947 37.1706H320.713C320.713 37.2291 320.771 40.6828 320.771 44.4291V55.6096H311.522V22.8291H321.122L333.942 40.6242H334.117V22.8291H343.424V55.6096H333.708Z" fill="#FAFAFB"/>
<path d="M368.236 31.434V55.6096H358.929V31.434H348.509V22.8291H378.655V31.434H368.236Z" fill="#FAFAFB"/>
<path d="M383.748 22.8291H409.562V31.434H392.997V35.4145H404.353V42.673H392.997V47.0047H409.855V55.6096H383.748V22.8291Z" fill="#FAFAFB"/>
<path d="M437.776 55.6096L425.016 37.1706H424.781C424.781 37.2291 424.84 40.6828 424.84 44.4291V55.6096H415.591V22.8291H425.191L438.011 40.6242H438.186V22.8291H447.493V55.6096H437.776Z" fill="#FAFAFB"/>
<path d="M467.513 22.8291C477.932 22.8291 485.834 28.9754 485.834 39.3364C485.834 49.6974 477.932 55.6096 467.454 55.6096H454.049V22.8291H467.513ZM467.337 47.0047C473.073 47.0047 476.41 44.9559 476.41 39.3364C476.41 33.7169 473.073 31.434 467.454 31.434H463.298V47.0047H467.337Z" fill="#FAFAFB"/>
<path d="M241.103 99.3366C238.411 105.015 233.143 108.937 225.416 108.937C214.762 108.937 207.562 101.795 207.562 91.961C207.562 82.1268 214.762 74.8683 225.357 74.8683C232.791 74.8683 238.586 78.4976 241.103 84.5268L232.323 86.8683C231.328 85.639 229.279 83.3561 225.299 83.3561C220.206 83.3561 216.987 86.8683 216.987 91.9024C216.987 96.9366 220.382 100.449 225.357 100.449C228.87 100.449 231.035 98.8097 232.206 96.9951L241.103 99.3366Z" fill="#FAFAFB"/>
<path d="M261.942 74.8683C272.303 74.8683 279.679 81.9512 279.679 91.9024C279.679 101.854 272.303 108.937 261.942 108.937C251.582 108.937 244.265 101.854 244.265 91.9024C244.265 81.9512 251.64 74.8683 261.942 74.8683ZM261.942 100.449C266.977 100.449 270.255 96.9951 270.255 91.9024C270.255 86.8097 266.977 83.3561 261.942 83.3561C256.908 83.3561 253.689 86.8097 253.689 91.9024C253.689 96.9951 256.967 100.449 261.942 100.449Z" fill="#FAFAFB"/>
<path d="M306.781 108.293L294.02 89.8536H293.786C293.786 89.9121 293.844 93.3657 293.844 97.1121V108.293H284.596V75.5121H294.196L307.015 93.3072H307.191V75.5121H316.498V108.293H306.781Z" fill="#FAFAFB"/>
<path d="M332.302 84.117V89.9121H343.19V97.9901H332.302V108.293H323.054V75.5121H347.346V84.117H332.302Z" fill="#FAFAFB"/>
<path d="M352.731 75.5121H378.545V84.117H361.98V88.0975H373.336V95.356H361.98V99.6877H378.838V108.293H352.731V75.5121Z" fill="#FAFAFB"/>
<path d="M398.148 97.9316L395.162 97.9901H393.816V108.293H384.567V75.5121H398.382C407.279 75.5121 412.372 79.9609 412.372 86.8096C412.372 91.7853 409.855 94.7121 406.87 96.0584L414.304 108.293H404.352L398.148 97.9316ZM398.909 90.9072C401.601 90.9072 402.889 89.6194 402.889 87.395C402.889 85.1706 401.66 83.8828 398.909 83.8828H393.816V90.9072H398.909Z" fill="#FAFAFB"/>
<path d="M418.518 75.5121H444.332V84.117H427.767V88.0975H439.123V95.356H427.767V99.6877H444.625V108.293H418.518V75.5121Z" fill="#FAFAFB"/>
<path d="M472.547 108.293L459.786 89.8536H459.552C459.552 89.9121 459.61 93.3657 459.61 97.1121V108.293H450.362V75.5121H459.962L472.781 93.3072H472.957V75.5121H482.264V108.293H472.547Z" fill="#FAFAFB"/>
<path d="M520.722 99.3366C518.029 105.015 512.761 108.937 505.034 108.937C494.381 108.937 487.181 101.795 487.181 91.961C487.181 82.1268 494.381 74.8683 504.976 74.8683C512.41 74.8683 518.205 78.4976 520.722 84.5268L511.941 86.8683C510.946 85.639 508.897 83.3561 504.917 83.3561C499.824 83.3561 496.605 86.8683 496.605 91.9024C496.605 96.9366 500 100.449 504.976 100.449C508.488 100.449 510.654 98.8097 511.824 96.9951L520.722 99.3366Z" fill="#FAFAFB"/>
<path d="M525.521 75.5121H551.336V84.117H534.77V88.0975H546.126V95.356H534.77V99.6877H551.628V108.293H525.521V75.5121Z" fill="#FAFAFB"/>
<path d="M227.465 136.8V160.976H218.158V136.8H207.738V128.195H237.884V136.8H227.465Z" fill="#FAFAFB"/>
<path d="M259.016 127.551C269.377 127.551 276.752 134.634 276.752 144.585C276.752 154.537 269.377 161.619 259.016 161.619C248.655 161.619 241.338 154.537 241.338 144.585C241.338 134.634 248.713 127.551 259.016 127.551ZM259.016 153.132C264.05 153.132 267.328 149.678 267.328 144.585C267.328 139.493 264.05 136.039 259.016 136.039C253.982 136.039 250.762 139.493 250.762 144.585C250.762 149.678 254.04 153.132 259.016 153.132Z" fill="#FAFAFB"/>
<path d="M295.717 147.395L290.917 152.663V160.976H281.668V128.195H290.917V141.717H291.151C291.444 141.424 292.615 140.019 294.02 138.322L302.683 128.195H314.214L302.449 141.073L314.683 160.976H304.088L295.717 147.395Z" fill="#FAFAFB"/>
<path d="M327.963 160.976V149.795L316.022 128.195H326.617L330.071 134.81C331.71 138.029 333.056 140.898 333.114 140.956H333.29C333.349 140.898 334.695 138.088 336.334 134.81L339.729 128.195H349.329L337.27 149.795V160.976H327.963Z" fill="#FAFAFB"/>
<path d="M369.29 127.551C379.65 127.551 387.026 134.634 387.026 144.585C387.026 154.537 379.65 161.619 369.29 161.619C358.929 161.619 351.612 154.537 351.612 144.585C351.612 134.634 358.987 127.551 369.29 127.551ZM369.29 153.132C374.324 153.132 377.602 149.678 377.602 144.585C377.602 139.493 374.324 136.039 369.29 136.039C364.256 136.039 361.036 139.493 361.036 144.585C361.036 149.678 364.314 153.132 369.29 153.132Z" fill="#FAFAFB"/>
<defs>
<clipPath id="clip0_1735_5822">
<rect width="180" height="180" fill="white"/>
</clipPath>
</defs>
</svg>
