<svg width="552" height="180" fill="none" xmlns="http://www.w3.org/2000/svg">
  <title>Frontend Conference Tokyo</title>
  <g clip-path="url(#a)" fill="#fafafb">
    <path d="M98.6 86.25a42 42 0 0 0-.89-5.6l4.28-.99q.7 3.1 1 6.2z"/>
    <path d="M78 100.34q-.7-3.1-.98-6.2l4.38-.4q.24 2.83.89 5.62z"/>
    <path d="M80.64 82.29 79.66 78q3.1-.7 6.2-1l.4 4.39q-2.83.24-5.62.89"/>
    <path d="M68.45 103.94a50 50 0 0 1-3.42-1.73l2.13-3.84a50 50 0 0 0 3.13 1.58z"/>
    <path d="M77.02 94.13q-.1-1.13-.15-2.18l4.4-.18q.03 1 .13 1.98z"/>
    <path d="M67.22 102.42a56 56 0 0 1-.77-4.21l4.34-.63a56 56 0 0 0 .72 3.9z"/>
    <path d="M72.03 98.39q-.3-1.9-.48-3.9l4.37-.39q.16 1.84.44 3.57l-4.33.7z"/>
    <path d="M82.69 95.43q-.33-2.47-.36-4.94l4.4-.05q.01 2.2.31 4.41z"/>
    <path d="m80.05 70.29-3.99-1.84q.84-1.8 1.73-3.42l3.84 2.13a50 50 0 0 0-1.58 3.13"/>
    <path d="m78.53 71.51-.95-4.29q2.16-.48 4.21-.77l.63 4.34q-1.88.28-3.9.72"/>
    <path d="m82.32 76.36-.7-4.33q1.89-.3 3.89-.48l.38 4.37q-1.84.16-3.57.44"/>
    <path d="m86.25 81.4-.38-4.38q1.11-.1 2.18-.15l.18 4.39q-.96.04-1.97.13"/>
    <path d="m85.16 87.04-.58-4.36q2.47-.32 4.94-.36l.05 4.4q-2.2.01-4.41.32"/>
    <path d="m84.89 92.63-.73-4.33a35 35 0 0 1 5.84-.5v4.4q-2.53 0-5.11.43"/>
    <path d="m43 118.82-4.38-.39a51.4 51.4 0 0 1 9.32-25.36l3.58 2.55a47 47 0 0 0-8.52 23.2"/>
    <path d="m37.87 115.35-4.35-.63a57 57 0 0 1 10.82-26.04l3.51 2.64a53 53 0 0 0-9.98 24.03"/>
    <path d="M39.72 120.53a34 34 0 0 1-5.45-3.83l2.86-3.34a30 30 0 0 0 4.77 3.36z"/>
    <path d="m48.34 121.16-4.4-.19c.36-8.6 3.12-16.9 7.95-23.98l3.63 2.47a41.6 41.6 0 0 0-7.18 21.7"/>
    <path d="M59.27 122.93h-4.4c0-6.98 2.06-13.74 5.93-19.53l3.66 2.45a30.6 30.6 0 0 0-5.18 17.08z"/>
    <path d="m53.8 122.49-4.4-.05a40.5 40.5 0 0 1 6.79-22l3.65 2.43a36 36 0 0 0-6.05 19.62"/>
    <path d="M114.72 146.48a57 57 0 0 1-26.04-10.82l2.63-3.51a52.6 52.6 0 0 0 24.03 9.98z"/>
    <path d="M118.43 141.38c-9.12-.79-17.9-4-25.36-9.32l2.55-3.58a47 47 0 0 0 23.2 8.53z"/>
    <path d="M112.84 81.62a48 48 0 0 0-3.13-1.58l1.84-3.99q1.8.83 3.42 1.73z"/>
    <path d="M109.2 82.42a54 54 0 0 0-.71-3.89l4.29-.95q.47 2.17.77 4.22z"/>
    <path d="M104.08 85.89a49 49 0 0 0-.44-3.57l4.33-.7q.3 1.89.48 3.89z"/>
    <path d="M98.74 88.23a41 41 0 0 0-.13-1.98l4.37-.38q.1 1.13.15 2.18z"/>
    <path d="M93.28 89.57a36 36 0 0 0-.32-4.41l4.35-.58q.33 2.47.36 4.94z"/>
    <path d="m135.66 91.32-3.51-2.64a52.6 52.6 0 0 0 9.98-24.03l4.34.63a57 57 0 0 1-10.82 26.04"/>
    <path d="m128.1 83.02-3.62-2.47a41.6 41.6 0 0 0 7.18-21.7l4.4.18a46 46 0 0 1-7.95 23.99"/>
    <path d="m132.06 86.93-3.58-2.55a47 47 0 0 0 8.53-23.2l4.37.39c-.79 9.12-4 17.9-9.32 25.36"/>
    <path d="m119.2 76.6-3.66-2.45a30.6 30.6 0 0 0 5.18-17.08h4.4c0 7-2.05 13.74-5.93 19.53"/>
    <path d="m123.81 79.57-3.65-2.44a36 36 0 0 0 6.05-19.62l4.4.05a40.5 40.5 0 0 1-6.79 22"/>
    <path d="m120.26 84.15-3.28-2.92a38 38 0 0 0 3.18-4.1l3.65 2.44a41 41 0 0 1-3.55 4.6z"/>
    <path d="m116.7 145.73-3.34-2.85a30 30 0 0 0 3.36-4.77l3.8 2.17a35 35 0 0 1-3.83 5.45z"/>
    <path d="M120.97 136.05a46 46 0 0 1-23.98-7.95l2.47-3.63a41.6 41.6 0 0 0 21.7 7.19z"/>
    <path d="M122.93 125.12a35 35 0 0 1-19.53-5.93l2.45-3.64a30.6 30.6 0 0 0 17.08 5.18z"/>
    <path d="M122.44 130.6a40.4 40.4 0 0 1-22-6.8l2.43-3.65a36 36 0 0 0 19.63 6.05z"/>
    <path d="M4.39 90H0a57.25 57.25 0 0 1 37.64-53.68l1.5 4.13A52.85 52.85 0 0 0 4.38 90"/>
    <path d="M9.88 90h-4.4a51.8 51.8 0 0 1 30.04-46.87l1.84 4A47.4 47.4 0 0 0 9.88 90"/>
    <path d="M15.37 90h-4.4A46.2 46.2 0 0 1 34.3 49.93l2.17 3.81A41.8 41.8 0 0 0 15.36 90"/>
    <path d="M20.85 90h-4.39A40.7 40.7 0 0 1 33.9 56.66l2.51 3.6A36.3 36.3 0 0 0 20.85 90"/>
    <path d="M26.34 90h-4.39a35.1 35.1 0 0 1 12.32-26.7l2.85 3.34A30.7 30.7 0 0 0 26.34 90"/>
    <path d="M88.68 47.85a52.6 52.6 0 0 0-24.03-9.98l.63-4.34a57 57 0 0 1 26.04 10.82z"/>
    <path d="M80.54 55.52a41.6 41.6 0 0 0-21.7-7.18l.19-4.39c8.6.36 16.9 3.11 23.98 7.95z"/>
    <path d="M84.38 51.52A47 47 0 0 0 61.18 43l.39-4.38c9.12.79 17.9 4 25.36 9.32z"/>
    <path d="M74.15 64.45a30.6 30.6 0 0 0-17.08-5.18v-4.4A35 35 0 0 1 76.6 60.8z"/>
    <path d="M77.13 59.84a36 36 0 0 0-19.62-6.05l.05-4.4a40.4 40.4 0 0 1 22 6.8z"/>
    <path d="M78.2 67.69a31 31 0 0 0-4.05-3.24l2.45-3.65a36 36 0 0 1 4.62 3.7z"/>
    <path d="M139.54 39.14A52.8 52.8 0 0 0 90 4.39V0a57.25 57.25 0 0 1 53.68 37.64l-4.13 1.5"/>
    <path d="M132.88 37.36A47.4 47.4 0 0 0 90 9.88v-4.4a51.8 51.8 0 0 1 46.87 30.04z"/>
    <path d="M126.26 36.46A41.8 41.8 0 0 0 90 15.36v-4.38a46.2 46.2 0 0 1 40.07 23.3z"/>
    <path d="M119.74 36.41A36.3 36.3 0 0 0 90 20.85v-4.39a40.7 40.7 0 0 1 33.34 17.44z"/>
    <path d="M113.36 37.12A30.7 30.7 0 0 0 90 26.34v-4.39a35.1 35.1 0 0 1 26.7 12.32z"/>
    <path d="M180 90h-4.39a52.8 52.8 0 0 0-34.75-49.54l1.5-4.13A57.2 57.2 0 0 1 179.98 90z"/>
    <path d="m142.36 143.68-1.5-4.13a52.8 52.8 0 0 0 34.76-49.54H180a57.25 57.25 0 0 1-37.64 53.68z"/>
    <path d="m144.48 136.87-1.84-4A47.4 47.4 0 0 0 170.12 90h4.4a51.8 51.8 0 0 1-30.04 46.87"/>
    <path d="M174.51 90h-4.39a47.4 47.4 0 0 0-27.48-42.88l1.84-3.99A51.7 51.7 0 0 1 174.5 90"/>
    <path d="M169.02 90h-4.39a41.8 41.8 0 0 0-21.1-36.26l2.18-3.8A46.2 46.2 0 0 1 169.02 90"/>
    <path d="m145.71 130.07-2.17-3.81A41.8 41.8 0 0 0 164.64 90h4.38a46.2 46.2 0 0 1-23.3 40.07"/>
    <path d="m146.1 123.34-2.51-3.6A36.3 36.3 0 0 0 159.15 90h4.39a40.7 40.7 0 0 1-17.44 33.34"/>
    <path d="M163.54 90h-4.4a36.3 36.3 0 0 0-15.55-29.74l2.51-3.6A40.7 40.7 0 0 1 163.54 90"/>
    <path d="M158.05 90h-4.4c0-9-3.92-17.51-10.77-23.36l2.85-3.34A35.1 35.1 0 0 1 158.05 90"/>
    <path d="m145.73 116.7-2.85-3.34A30.7 30.7 0 0 0 153.66 90h4.39a35.1 35.1 0 0 1-12.32 26.7"/>
    <path d="M140.86 40.46a51 51 0 0 0-6.47-1.87l.95-4.29a58 58 0 0 1 7.01 2.03z"/>
    <path d="M142.64 47.12a47 47 0 0 0-6-2.29l1.27-4.2q3.31 1.02 6.57 2.5z"/>
    <path d="M143.54 53.74a41 41 0 0 0-5.6-2.65l1.58-4.1q3.19 1.23 6.2 2.94z"/>
    <path d="M143.59 60.26a36 36 0 0 0-5.18-3.01l1.88-3.97q3.03 1.44 5.81 3.38z"/>
    <path d="M142.88 66.64a31 31 0 0 0-4.77-3.35l2.17-3.82a35 35 0 0 1 5.45 3.84z"/>
    <path d="M134.4 38.58a53 53 0 0 0-6.45-1.02l.42-4.37q3.48.34 6.98 1.1z"/>
    <path d="M136.63 44.83a47 47 0 0 0-6.03-1.4l.71-4.33q3.38.55 6.6 1.53z"/>
    <path d="M137.94 51.09a41 41 0 0 0-5.65-1.73l.98-4.28q3.2.75 6.25 1.91z"/>
    <path d="M138.4 57.25a36 36 0 0 0-5.3-2.01l1.23-4.22q3.09.9 5.95 2.26z"/>
    <path d="M138.11 63.29a31 31 0 0 0-4.98-2.28l1.45-4.14q2.96 1.04 5.7 2.6l-2.18 3.8z"/>
    <path d="M127.95 37.56a54 54 0 0 0-5.02-.24v-4.4q2.64 0 5.44.27l-.4 4.37z"/>
    <path d="m121.6 37.35-.11-4.39.44-.01q.5-.03.99-.02v4.39l-.84.02-.5.01z"/>
    <path d="M130.6 43.43a48 48 0 0 0-5.95-.58l.16-4.4q3.3.13 6.5.65z"/>
    <path d="M132.29 49.36a43 43 0 0 0-5.62-.9l.4-4.37q3.1.28 6.2.99z"/>
    <path d="M133.1 55.24q-2.6-.76-5.32-1.13l.58-4.35c2.01.27 4.03.7 5.97 1.26z"/>
    <path d="M133.13 61.01a31 31 0 0 0-5.09-1.31l.73-4.33q2.98.5 5.81 1.5z"/>
    <path d="m115.35 37.87-.63-4.35q3.29-.47 6.77-.56l.1 4.4q-3.21.07-6.24.51"/>
    <path d="M124.65 42.85h-.1q-.8-.04-1.62-.05v-4.39q.9.01 1.78.05h.1z"/>
    <path d="m118.82 43-.38-4.38c1.61-.14 3.08-.2 4.5-.2v4.38c-1.3 0-2.63.06-4.12.2"/>
    <path d="m121.16 48.34-.19-4.39q.97-.05 1.96-.05v4.4q-.9 0-1.77.04"/>
    <path d="M126.67 48.47a42 42 0 0 0-3.74-.18V43.9q1.95 0 4.13.2z"/>
    <path d="M127.77 54.11a37 37 0 0 0-4.84-.33V49.4q2.64 0 5.43.37z"/>
    <path d="m122.49 53.8-.05-4.4h.16l.32-.01v4.4z"/>
    <path d="M128.04 59.7a31 31 0 0 0-5.11-.43v-4.4a36 36 0 0 1 5.84.5z"/>
    <path d="m91.32 47.85-2.64-3.5a57 57 0 0 1 26.04-10.83l.63 4.35a52.6 52.6 0 0 0-24.03 9.98"/>
    <path d="M99.46 55.52 97 51.9a46 46 0 0 1 23.98-7.94l.19 4.38a41.6 41.6 0 0 0-21.7 7.18z"/>
    <path d="m95.62 51.52-2.55-3.58a51.4 51.4 0 0 1 25.36-9.32l.38 4.38a47 47 0 0 0-23.19 8.52"/>
    <path d="m105.85 64.45-2.44-3.65a35 35 0 0 1 19.52-5.92v4.39a30.6 30.6 0 0 0-17.08 5.18"/>
    <path d="m102.87 59.84-2.44-3.65a40.5 40.5 0 0 1 22-6.8l.06 4.4a36 36 0 0 0-19.63 6.05z"/>
    <path d="M116.28 77.28a53 53 0 0 0-8.35-3.9l1.5-4.12a57 57 0 0 1 9.04 4.21z"/>
    <path d="M147.07 122.93h-4.39l-.02-.85-.01-.48 4.39-.11.01.45z"/>
    <path d="m143.68 142.36-4.13-1.5a50 50 0 0 0 1.87-6.46l4.29.95a57 57 0 0 1-2.03 7.01"/>
    <path d="m146.81 128.37-4.37-.4q.24-2.6.24-5.04h4.4q0 2.65-.27 5.45"/>
    <path d="M142.13 115.35c-1.25-8.7-4.7-17-9.98-24.03l3.52-2.64a57 57 0 0 1 10.82 26.04l-4.35.63"/>
    <path d="M90 180v-4.39a52.8 52.8 0 0 0 49.54-34.75l4.13 1.5A57.2 57.2 0 0 1 90 179.98z"/>
    <path d="M90 180a57.2 57.2 0 0 1-53.67-37.64l4.13-1.5A52.8 52.8 0 0 0 90 175.63z"/>
    <path d="M90 174.51a51.8 51.8 0 0 1-46.87-30.03l4-1.84A47.4 47.4 0 0 0 90 170.12z"/>
    <path d="M90 174.51v-4.39a47.4 47.4 0 0 0 42.88-27.48l3.99 1.84A51.8 51.8 0 0 1 90 174.5"/>
    <path d="m145.7 135.35-4.28-.95c.47-2.14.82-4.32 1.02-6.45l4.37.42a58 58 0 0 1-1.1 6.98"/>
    <path d="m139.37 137.9-4.2-1.27a47 47 0 0 0 1.4-6.03l4.33.71a51 51 0 0 1-1.53 6.6"/>
    <path d="M142.65 121.6a52 52 0 0 0-.52-6.25l4.34-.63q.47 3.28.57 6.77z"/>
    <path d="m141.54 124.82-4.39-.16v-.17l.04-1.56h4.4q-.01.87-.05 1.72z"/>
    <path d="M141.59 122.93h-4.4c0-1.3-.05-2.64-.19-4.12l4.38-.38q.2 2.38.2 4.5"/>
    <path d="m130.07 145.71-3.81-2.17a41 41 0 0 0 2.65-5.6l4.1 1.58q-1.23 3.19-2.94 6.2"/>
    <path d="m136.87 144.48-4-1.84c.91-1.97 1.68-4 2.3-6l4.2 1.27a50 50 0 0 1-2.5 6.57"/>
    <path d="m140.9 131.31-4.33-.7q.46-2.94.58-5.96l4.4.16a51 51 0 0 1-.65 6.5"/>
    <path d="m134.92 133.27-4.28-.99q.63-2.78.9-5.6l4.37.38a46 46 0 0 1-.99 6.2"/>
    <path d="M131.66 121.16a41.5 41.5 0 0 0-7.18-21.7L128.1 97a46 46 0 0 1 7.94 23.98z"/>
    <path d="M137 118.82a47 47 0 0 0-8.52-23.2l3.58-2.55a51.4 51.4 0 0 1 9.32 25.36z"/>
    <path d="M90 169.02v-4.39a41.8 41.8 0 0 0 36.26-21.1l3.8 2.18A46.2 46.2 0 0 1 90 169.02"/>
    <path d="M90 169.02a46.2 46.2 0 0 1-40.07-23.3l3.81-2.18A41.8 41.8 0 0 0 90 164.64z"/>
    <path d="M90 163.54a40.7 40.7 0 0 1-33.34-17.44l3.6-2.51A36.3 36.3 0 0 0 90 159.15z"/>
    <path d="M90 163.54v-4.4a36.3 36.3 0 0 0 29.74-15.55l3.6 2.51A40.7 40.7 0 0 1 90 163.54"/>
    <path d="m126.72 140.28-3.97-1.88q1.2-2.55 2.01-5.3l4.22 1.23a41 41 0 0 1-2.26 5.95"/>
    <path d="m133.01 139.52-4.1-1.58a42 42 0 0 0 1.73-5.65l4.28.98a47 47 0 0 1-1.91 6.25"/>
    <path d="M136.1 122.93h-4.4q0-.9-.04-1.77l4.4-.19q.03.97.04 1.96"/>
    <path d="m135.9 127.06-4.37-.39q.18-1.98.18-3.74h4.39q0 1.95-.2 4.13"/>
    <path d="m130.24 128.36-4.36-.58q.33-2.48.33-4.85h4.4q0 2.66-.38 5.43"/>
    <path d="M130.61 122.93h-4.39l-.02-.44 4.4-.05v.15z"/>
    <path d="m123.34 146.1-3.6-2.51a36 36 0 0 0 3.01-5.18l3.97 1.88a40 40 0 0 1-3.38 5.81"/>
    <path d="m123.13 134.58-4.14-1.45a31 31 0 0 0 1.31-5.09l4.33.73a34 34 0 0 1-1.5 5.81"/>
    <path d="m128.97 134.33-4.21-1.23q.76-2.6 1.12-5.32l4.36.58q-.41 3.05-1.27 5.97"/>
    <path d="M125.12 122.93h-4.39a30.6 30.6 0 0 0-5.18-17.08l3.65-2.44a35 35 0 0 1 5.93 19.52"/>
    <path d="M126.2 122.49a36 36 0 0 0-6.05-19.62l3.66-2.44a40.4 40.4 0 0 1 6.78 22z"/>
    <path d="M90 158.05a35.1 35.1 0 0 1-26.7-12.32l3.34-2.85A30.7 30.7 0 0 0 90 153.66z"/>
    <path d="M90 158.05v-4.4c9 0 17.51-3.92 23.36-10.77l3.34 2.85A35.1 35.1 0 0 1 90 158.05"/>
    <path d="m120.53 140.28-3.8-2.18q1.36-2.41 2.27-4.97l4.14 1.45a36 36 0 0 1-2.6 5.7"/>
    <path d="m124.63 128.77-4.33-.73q.42-2.58.43-5.11h4.4q-.01 2.9-.5 5.84"/>
    <path d="m102.21 114.97-3.84-2.13q.82-1.48 1.58-3.13l3.99 1.84a50 50 0 0 1-1.73 3.42"/>
    <path d="m106.53 118.47-3.8-2.2a53 53 0 0 0 3.89-8.34l4.12 1.5a57 57 0 0 1-4.21 9.04"/>
    <path d="M97.68 90H93.3l-.01-.44 4.39-.05v.15z"/>
    <path d="m128.44 91.46-3.27-2.92a48 48 0 0 0 3.3-4.16l3.58 2.55a52 52 0 0 1-3.61 4.53"/>
    <path d="m131.88 95.84-3.22-2.99a52 52 0 0 0 3.49-4.17l3.5 2.64a57 57 0 0 1-3.77 4.51"/>
    <path d="m124.56 87.56-3.3-2.9a42 42 0 0 0 3.22-4.12L128.1 83a46 46 0 0 1-3.55 4.55"/>
    <path d="m115.5 81.21-3.19-3.01q1.81-1.93 3.24-4.05l3.65 2.45a36 36 0 0 1-3.7 4.62"/>
    <path d="m127.74 99.86-2.9-3.29a53 53 0 0 0 3.82-3.72l3.22 2.98a58 58 0 0 1-4.14 4.03"/>
    <path d="m124.38 95.52-2.93-3.27a47 47 0 0 0 3.72-3.71l3.27 2.92a53 53 0 0 1-4.06 4.06"/>
    <path d="m120.48 91.65-2.9-3.3q1.96-1.73 3.69-3.7l3.29 2.91a47 47 0 0 1-4.08 4.09"/>
    <path d="m116.01 88.25-2.82-3.37a36 36 0 0 0 3.79-3.66l3.27 2.93a40 40 0 0 1-4.25 4.1z"/>
    <path d="m112.8 83.77-2.85-3.33q1.23-1.05 2.36-2.24l3.18 3.02q-1.29 1.36-2.69 2.56"/>
    <path d="m119.9 99.1-2.55-3.58a48 48 0 0 0 4.1-3.27l2.93 3.27a51 51 0 0 1-4.48 3.58"/>
    <path d="m123.26 103.43-2.56-3.56a53 53 0 0 0 4.14-3.3l2.9 3.3a59 59 0 0 1-4.48 3.57"/>
    <path d="m113.17 90.42-2.5-3.6a36 36 0 0 0 2.53-1.93l2.82 3.37a40 40 0 0 1-2.85 2.16"/>
    <path d="m115.84 95.25-2.47-3.63a43 43 0 0 0 4.2-3.27l2.9 3.3a47 47 0 0 1-4.63 3.6"/>
    <path d="m118.47 106.53-2.2-3.8a52 52 0 0 0 4.43-2.86l2.56 3.56a57 57 0 0 1-4.79 3.1"/>
    <path d="m114.97 102.21-2.13-3.84q2.28-1.27 4.5-2.85l2.55 3.58a52 52 0 0 1-4.93 3.11"/>
    <path d="m112.79 97.14-2.18-3.81a43 43 0 0 0 2.77-1.71l2.46 3.63q-1.37.94-3.06 1.9"/>
    <path d="m109.43 110.75-1.49-4.13a52 52 0 0 0 8.34-3.89l2.2 3.8a57 57 0 0 1-9.04 4.22"/>
    <path d="m111.55 103.94-1.84-3.99q1.66-.75 3.13-1.58l2.13 3.84q-1.63.9-3.42 1.73"/>
    <path d="m110.81 85.36-2.6-3.53q.86-.65 1.74-1.4l2.86 3.34q-1 .85-2 1.6"/>
    <path d="m110.93 91.88-2.27-3.76q.96-.58 2-1.3l2.51 3.6a40 40 0 0 1-2.24 1.46"/>
    <path d="m107.35 87.6-2.17-3.8q1.6-.92 3.02-1.97l2.61 3.54q-1.64 1.2-3.45 2.24z"/>
    <path d="m107.36 93.79-1.88-3.97q1.65-.79 3.18-1.7l2.27 3.76a40 40 0 0 1-3.57 1.91"/>
    <path d="m110.49 98.37-1.96-3.93q1.03-.5 2.08-1.11l2.17 3.81q-1.17.68-2.3 1.23"/>
    <path d="m102.42 112.77-.95-4.29q3.38-.75 6.47-1.86l1.5 4.12q-3.37 1.22-7.02 2.03"/>
    <path d="m106.6 100.08-1.58-4.1q1.8-.7 3.51-1.54l1.96 3.93q-1.88.94-3.9 1.71"/>
    <path d="m104.98 106.44-1.28-4.2a47 47 0 0 0 6.01-2.29l1.84 3.99a52 52 0 0 1-6.57 2.5"/>
    <path d="m104.58 89.02-1.82-4q1.23-.56 2.42-1.23l2.18 3.81q-1.36.77-2.77 1.42"/>
    <path d="m104.45 95.03-1.56-4.1q1.35-.53 2.6-1.1l1.87 3.96q-1.39.66-2.9 1.24"/>
    <path d="m101.66 90.2-1.46-4.14q1.3-.45 2.56-1.04l1.82 4q-1.44.66-2.92 1.18"/>
    <path d="m98.39 107.97-.71-4.33a48 48 0 0 0 6.02-1.4l1.28 4.2a51 51 0 0 1-6.6 1.53"/>
    <path d="m98.21 113.55-.63-4.34q1.9-.28 3.89-.72l.95 4.29q-2.16.47-4.22.77z"/>
    <path d="m101.4 96.04-1.22-4.21a39 39 0 0 0 2.71-.9l1.57 4.1q-1.49.55-3.05 1.02"/>
    <path d="m100.34 102-.98-4.29A41 41 0 0 0 105 96l1.58 4.1a45 45 0 0 1-6.25 1.9"/>
    <path d="m95.84 91.7-.73-4.33q2.61-.44 5.09-1.3l1.46 4.13a36 36 0 0 1-5.82 1.5"/>
    <path d="m94.5 108.45-.39-4.37a49 49 0 0 0 3.57-.44l.7 4.33q-1.88.3-3.89.48"/>
    <path d="m94.13 102.98-.38-4.38q2.83-.24 5.6-.89l.99 4.28c-2.04.47-4.14.8-6.2.99"/>
    <path d="m95.43 97.31-.58-4.35q2.72-.38 5.33-1.13l1.23 4.21q-2.92.86-5.98 1.27"/>
    <path d="M90 92.2v-4.4q2.53 0 5.11-.43l.73 4.33a35 35 0 0 1-5.84.5"/>
    <path d="m91.96 103.12-.18-4.38q.95-.05 1.97-.14l.38 4.38q-1.11.1-2.18.15z"/>
    <path d="m90.49 97.67-.05-4.4a36 36 0 0 0 4.41-.31l.59 4.35q-2.47.33-4.94.36z"/>
    <path d="m40.46 39.14-4.13-1.5A57.2 57.2 0 0 1 90 0v4.39a52.8 52.8 0 0 0-49.54 34.75"/>
    <path d="m47.12 37.36-3.99-1.84A51.8 51.8 0 0 1 90 5.5v4.39a47.4 47.4 0 0 0-42.88 27.48"/>
    <path d="m53.74 36.46-3.8-2.17A46.2 46.2 0 0 1 90 10.98v4.39a41.8 41.8 0 0 0-36.26 21.1"/>
    <path d="m60.26 36.41-3.6-2.51A40.7 40.7 0 0 1 90 16.46v4.4A36.3 36.3 0 0 0 60.26 36.4"/>
    <path d="m66.64 37.12-3.34-2.85A35.1 35.1 0 0 1 90 21.95v4.4c-9 0-17.51 3.92-23.36 10.77"/>
    <path d="m38.58 45.6-4.29-.95a58 58 0 0 1 2.03-7.01l4.13 1.5a51 51 0 0 0-1.87 6.46"/>
    <path d="m44.83 43.37-4.2-1.27a52 52 0 0 1 2.5-6.58l4 1.84a47 47 0 0 0-2.3 6"/>
    <path d="m51.09 42.06-4.1-1.58a46 46 0 0 1 2.94-6.2l3.81 2.18a41 41 0 0 0-2.65 5.6"/>
    <path d="m57.25 41.6-3.97-1.88c.95-2 2.09-3.97 3.38-5.81l3.6 2.5a37 37 0 0 0-3.01 5.19"/>
    <path d="m63.29 41.89-3.82-2.17a35 35 0 0 1 3.84-5.45l3.33 2.85a30 30 0 0 0-3.35 4.77"/>
    <path d="m43.43 49.4-4.33-.71q.55-3.38 1.53-6.6l4.2 1.28a47 47 0 0 0-1.4 6.03"/>
    <path d="m37.56 52.05-4.37-.42q.34-3.47 1.1-6.98l4.3.95a54 54 0 0 0-1.03 6.45"/>
    <path d="m55.24 46.9-4.21-1.23q.9-3.11 2.25-5.95l3.97 1.88a36 36 0 0 0-2.01 5.3"/>
    <path d="m49.36 47.71-4.28-.98A47 47 0 0 1 47 40.5l4.1 1.58a42 42 0 0 0-1.73 5.64"/>
    <path d="m61.01 46.87-4.14-1.45a35 35 0 0 1 2.6-5.7l3.8 2.18A31 31 0 0 0 61 46.87z"/>
    <path d="M37.32 57.07h-4.4q0-2.64.27-5.44l4.37.4a54 54 0 0 0-.24 5.04"/>
    <path d="m32.96 58.51-.01-.43-.02-1h4.39q0 .43.02.85l.01.48z"/>
    <path d="m42.85 55.35-4.4-.16q.13-3.32.65-6.5l4.33.7a48 48 0 0 0-.58 5.96"/>
    <path d="m48.47 53.33-4.38-.4a46 46 0 0 1 1-6.2l4.27.98a42 42 0 0 0-.9 5.62"/>
    <path d="m59.7 51.96-4.33-.73q.5-2.97 1.5-5.81L61 46.87a31 31 0 0 0-1.31 5.09"/>
    <path d="m54.1 52.23-4.34-.58q.41-3.04 1.26-5.98l4.22 1.23q-.76 2.62-1.13 5.33"/>
    <path d="M33.52 65.28a58 58 0 0 1-.56-6.77l4.39-.1c.05 2.13.22 4.24.52 6.24z"/>
    <path d="M42.8 57.07h-4.39q.01-.85.05-1.7v-.18l4.4.15v.19q-.05.76-.05 1.54"/>
    <path d="M38.62 61.57c-.14-1.61-.2-3.08-.2-4.5h4.38c0 1.3.06 2.64.2 4.12z"/>
    <path d="M43.95 59.03q-.05-.97-.05-1.96h4.4q0 .9.04 1.77z"/>
    <path d="M48.3 57.07h-4.4q0-1.95.2-4.13l4.37.39a43 43 0 0 0-.18 3.74"/>
    <path d="M53.78 57.07h-4.39q0-2.64.37-5.43l4.36.58a37 37 0 0 0-.33 4.85z"/>
    <path d="M49.4 57.56v-.15l-.01-.33h4.39l.02.44z"/>
    <path d="M59.27 57.07h-4.4a36 36 0 0 1 .5-5.84l4.33.73a31 31 0 0 0-.43 5.11"/>
    <path d="M44.34 91.32a57 57 0 0 1-10.82-26.04l4.35-.63a52.6 52.6 0 0 0 9.98 24.03l-3.5 2.63"/>
    <path d="M51.9 83.02a46 46 0 0 1-7.95-23.99l4.39-.18a41.5 41.5 0 0 0 7.18 21.7z"/>
    <path d="M47.94 86.93a51.4 51.4 0 0 1-9.32-25.36l4.38-.38a47 47 0 0 0 8.52 23.2z"/>
    <path d="M60.8 76.6a35 35 0 0 1-5.92-19.53h4.39a30.6 30.6 0 0 0 5.18 17.08z"/>
    <path d="M56.19 79.57a40.4 40.4 0 0 1-6.79-22l4.4-.06a36 36 0 0 0 6.05 19.62z"/>
    <path d="m73.38 72.07-4.12-1.5a56 56 0 0 1 4.21-9.03l3.8 2.2a52 52 0 0 0-3.89 8.33"/>
    <path d="M96.58 55.16a53 53 0 0 0-3.73-3.82l2.99-3.22a58 58 0 0 1 4.03 4.14z"/>
    <path d="M102.72 63.72q-1.31-2.28-2.85-4.42l3.56-2.56a57 57 0 0 1 3.1 4.79z"/>
    <path d="M108.49 78.53a53 53 0 0 0-1.86-6.47l4.12-1.5q1.22 3.37 2.03 7.02z"/>
    <path d="M88.54 54.83a50 50 0 0 0-4.15-3.3l2.54-3.58a52 52 0 0 1 4.54 3.61z"/>
    <path d="M92.85 51.34a54 54 0 0 0-4.17-3.49l2.64-3.5a57 57 0 0 1 4.51 3.77z"/>
    <path d="M95.52 62.65a49 49 0 0 0-3.27-4.1l3.27-2.93q1.89 2.1 3.58 4.48z"/>
    <path d="M99.87 59.3a53 53 0 0 0-3.3-4.14l3.3-2.9a59 59 0 0 1 3.57 4.48z"/>
    <path d="M106.62 72.07a53 53 0 0 0-3.9-8.35l3.8-2.2a57 57 0 0 1 4.22 9.05l-4.12 1.49"/>
    <path d="M99.95 70.29a46 46 0 0 0-1.58-3.13l3.84-2.13q.9 1.61 1.73 3.42z"/>
    <path d="M103.64 82.32a47 47 0 0 0-1.4-6.02l4.2-1.28a52 52 0 0 1 1.53 6.6z"/>
    <path d="M88.35 62.43a42 42 0 0 0-3.7-3.7l2.91-3.29a48 48 0 0 1 4.09 4.08z"/>
    <path d="M92.25 58.55a47 47 0 0 0-3.71-3.72l2.92-3.27a53 53 0 0 1 4.06 4.06z"/>
    <path d="M98.38 67.16a47 47 0 0 0-2.86-4.5l3.58-2.55a52 52 0 0 1 3.12 4.92z"/>
    <path d="M93.33 69.39a43 43 0 0 0-1.71-2.77l3.63-2.46q.93 1.37 1.88 3.05z"/>
    <path d="M95.99 74.99q-.72-1.83-1.55-3.52l3.93-1.96q.94 1.88 1.71 3.9z"/>
    <path d="M102.24 76.3a47 47 0 0 0-2.29-6.01l3.99-1.84a52 52 0 0 1 2.5 6.57z"/>
    <path d="M81.23 63.01a37 37 0 0 0-4.1-3.17l2.44-3.65a41 41 0 0 1 4.6 3.55z"/>
    <path d="M84.66 58.73a43 43 0 0 0-4.12-3.2L83 51.88a48 48 0 0 1 4.55 3.55z"/>
    <path d="M86.82 69.34q-.94-1.35-1.93-2.54l3.36-2.82q1.11 1.33 2.17 2.85z"/>
    <path d="M91.62 66.62a43 43 0 0 0-3.27-4.2l3.3-2.9a47 47 0 0 1 3.6 4.64z"/>
    <path d="M94.44 71.47q-.5-1.02-1.11-2.08l3.81-2.18q.67 1.19 1.23 2.3z"/>
    <path d="M89.82 74.52a35 35 0 0 0-1.7-3.17l3.76-2.27a40 40 0 0 1 1.91 3.57z"/>
    <path d="M97.71 80.64A41 41 0 0 0 96 75l4.1-1.58a46 46 0 0 1 1.9 6.25z"/>
    <path d="M91.84 79.82q-.41-1.4-.91-2.71l4.1-1.57q.57 1.48 1.03 3.05z"/>
    <path d="M80.44 70.05q-1.05-1.23-2.24-2.36l3.02-3.19q1.36 1.29 2.56 2.7z"/>
    <path d="M84.88 66.8a36 36 0 0 0-3.66-3.8l2.93-3.27a41 41 0 0 1 4.1 4.25z"/>
    <path d="M83.79 74.82a33 33 0 0 0-1.96-3.03l3.53-2.6q1.2 1.63 2.24 3.45z"/>
    <path d="M88.12 71.34q-.57-.95-1.3-2l3.6-2.51q.82 1.18 1.46 2.24z"/>
    <path d="M86.06 79.8q-.46-1.29-1.03-2.56l4-1.83q.66 1.46 1.18 2.93l-4.14 1.45z"/>
    <path d="M90.92 77.1q-.52-1.35-1.1-2.58l3.97-1.88q.65 1.38 1.24 2.9z"/>
    <path d="M92.96 85.16q-.36-2.72-1.12-5.33l4.21-1.23q.86 2.94 1.27 5.98z"/>
    <path d="M92.2 90h-4.4q0-2.53-.43-5.11l4.33-.73q.5 2.94.5 5.84"/>
    <path d="m89.56 86.72-.04-4.39h.15l.32-.01v4.39z"/>
    <path d="M81.83 71.8q-.65-.87-1.4-1.75l3.34-2.86q.85 1 1.6 2z"/>
    <path d="M85.03 77.24a31 31 0 0 0-1.24-2.42l3.82-2.18q.75 1.35 1.42 2.77z"/>
    <path d="M87.37 84.89q-.44-2.62-1.3-5.09l4.13-1.46a36 36 0 0 1 1.5 5.82z"/>
    <path d="M44.65 145.7a57 57 0 0 1-7.01-2.03l1.5-4.13q3.08 1.13 6.46 1.87z"/>
    <path d="M57.07 147.07q-2.65 0-5.44-.26l.42-4.37q2.57.24 5.02.24z"/>
    <path d="M57.07 147.07v-4.39q.43 0 .84-.02l.5-.01.1 4.39-.45.01z"/>
    <path d="m65.28 146.48-.63-4.35c8.7-1.25 17-4.7 24.03-9.98l2.64 3.52a57 57 0 0 1-26.04 10.82"/>
    <path d="M37.64 143.68A57.25 57.25 0 0 1 0 90h4.39a52.8 52.8 0 0 0 34.75 49.54z"/>
    <path d="M35.52 136.87A51.8 51.8 0 0 1 5.5 90h4.39a47.4 47.4 0 0 0 27.48 42.88z"/>
    <path d="M51.63 146.81q-3.48-.34-6.98-1.1l.95-4.3q3.23.72 6.44 1.03z"/>
    <path d="M48.69 140.9a51 51 0 0 1-6.6-1.53l1.28-4.2q2.94.9 6.03 1.4z"/>
    <path d="m58.51 147.04-.1-4.4c2.13-.04 4.24-.22 6.24-.51l.63 4.34q-3.28.47-6.77.57"/>
    <path d="m57.07 141.59-1.7-.04h-.18l.15-4.4h.19q.76.03 1.54.04z"/>
    <path d="M57.07 141.59v-4.4c1.3 0 2.63-.05 4.12-.19l.37 4.38c-1.61.14-3.08.2-4.5.2z"/>
    <path d="M40.48 133.01q-3.19-1.23-6.2-2.94l2.18-3.81a41 41 0 0 0 5.6 2.65z"/>
    <path d="M42.1 139.37a52 52 0 0 1-6.58-2.5l1.84-4q2.97 1.37 6 2.3z"/>
    <path d="M55.19 141.54q-3.32-.13-6.5-.64l.7-4.33q2.93.46 5.96.58z"/>
    <path d="M52.94 135.9a46 46 0 0 1-6.2-.98l.97-4.28q2.8.63 5.62.9z"/>
    <path d="m59.03 136.05-.19-4.39a41.6 41.6 0 0 0 21.7-7.18L83 128.1a46 46 0 0 1-23.98 7.94"/>
    <path d="m61.57 141.38-.38-4.37a47 47 0 0 0 23.2-8.53l2.54 3.58a51.4 51.4 0 0 1-25.36 9.32"/>
    <path d="M34.29 130.07A46.2 46.2 0 0 1 10.98 90h4.39a41.8 41.8 0 0 0 21.1 36.26z"/>
    <path d="M33.9 123.34A40.7 40.7 0 0 1 16.46 90h4.4a36.3 36.3 0 0 0 15.55 29.74z"/>
    <path d="M45.67 128.97a41 41 0 0 1-5.95-2.25l1.88-3.97q2.54 1.2 5.3 2.01z"/>
    <path d="M46.73 134.92a46 46 0 0 1-6.24-1.91l1.58-4.1q2.75 1.06 5.64 1.73z"/>
    <path d="M57.07 136.1v-4.4q.9 0 1.77-.04l.19 4.39q-.97.05-1.96.05"/>
    <path d="M57.07 136.1q-1.95 0-4.13-.2l.39-4.37q1.97.18 3.74.18z"/>
    <path d="M57.07 130.61q-2.64 0-5.43-.37l.59-4.36q2.49.33 4.84.34z"/>
    <path d="M57.07 130.61v-4.4h.44l.05 4.39h-.16z"/>
    <path d="M39.72 126.72a41 41 0 0 1-5.82-3.38l2.51-3.6a36 36 0 0 0 5.18 3.01l-1.88 3.97"/>
    <path d="M51.23 124.63a35 35 0 0 1-5.81-1.5l1.45-4.14a31 31 0 0 0 5.09 1.31z"/>
    <path d="M51.64 130.24c-2.02-.27-4.04-.7-5.97-1.27l1.23-4.21q2.6.76 5.32 1.12z"/>
    <path d="M57.07 125.12v-4.39a30.6 30.6 0 0 0 17.08-5.18l2.45 3.64a35 35 0 0 1-19.53 5.93"/>
    <path d="m57.56 130.6-.05-4.4a36 36 0 0 0 19.62-6.05l2.44 3.66a40.5 40.5 0 0 1-22 6.78"/>
    <path d="M34.27 116.7A35 35 0 0 1 21.95 90h4.4c0 9 3.92 17.51 10.77 23.36z"/>
    <path d="M45.42 123.13a35 35 0 0 1-5.7-2.6l2.18-3.8a31 31 0 0 0 4.97 2.27z"/>
    <path d="M57.07 125.12a36 36 0 0 1-5.84-.49l.73-4.33q2.58.42 5.11.43z"/>
    <path d="M70.57 110.75a57 57 0 0 1-9.05-4.21l2.2-3.8a52 52 0 0 0 8.34 3.88z"/>
    <path d="m51.34 87.15-3.22-2.99a57 57 0 0 1 4.14-4.03l2.9 3.3a53 53 0 0 0-3.82 3.72"/>
    <path d="m59.3 80.13-2.56-3.56a58 58 0 0 1 4.79-3.1l2.2 3.8a53 53 0 0 0-4.43 2.86"/>
    <path d="m72.07 73.38-1.5-4.12c2.23-.8 4.6-1.49 7.01-2.03l.95 4.29q-3.36.75-6.46 1.86"/>
    <path d="m47.85 91.32-3.5-2.64a58 58 0 0 1 3.77-4.51l3.22 2.98a53 53 0 0 0-3.49 4.17"/>
    <path d="m51.52 95.62-3.58-2.55a52 52 0 0 1 3.62-4.53l3.27 2.92a47 47 0 0 0-3.31 4.15z"/>
    <path d="m55.16 83.42-2.9-3.3a56 56 0 0 1 4.48-3.56l2.56 3.56a52 52 0 0 0-4.14 3.3"/>
    <path d="m58.55 87.75-2.93-3.27a54 54 0 0 1 4.48-3.58l2.55 3.57a50 50 0 0 0-4.1 3.27"/>
    <path d="m63.72 77.28-2.2-3.8a57 57 0 0 1 9.05-4.22l1.5 4.12a53 53 0 0 0-8.35 3.9"/>
    <path d="m67.16 81.62-2.13-3.84q1.63-.9 3.42-1.73l1.84 4a44 44 0 0 0-3.13 1.57"/>
    <path d="m76.3 77.76-1.28-4.2a51 51 0 0 1 6.6-1.53l.7 4.33q-3.08.5-6.02 1.4"/>
    <path d="m54.83 91.46-3.27-2.92a52 52 0 0 1 4.06-4.06l2.93 3.27a47 47 0 0 0-3.72 3.71"/>
    <path d="m58.73 95.34-3.29-2.9a47 47 0 0 1 4.08-4.09l2.9 3.3a42 42 0 0 0-3.69 3.7"/>
    <path d="M62.65 84.48 60.1 80.9a53 53 0 0 1 4.93-3.12l2.13 3.84q-2.28 1.27-4.51 2.85"/>
    <path d="m66.62 88.38-2.46-3.63q1.37-.94 3.05-1.9l2.18 3.82a40 40 0 0 0-2.77 1.71"/>
    <path d="m70.29 80.05-1.84-3.99a52 52 0 0 1 6.57-2.5l1.28 4.2a47 47 0 0 0-6.01 2.29"/>
    <path d="m71.47 85.56-1.95-3.93q1.87-.94 3.9-1.71l1.57 4.1q-1.81.7-3.52 1.54"/>
    <path d="M55.52 99.46 51.9 97a46 46 0 0 1 3.55-4.55l3.3 2.9a42 42 0 0 0-3.22 4.12"/>
    <path d="m59.84 102.87-3.65-2.44a41 41 0 0 1 3.55-4.58l3.27 2.92a37 37 0 0 0-3.17 4.1"/>
    <path d="m62.43 91.65-2.9-3.3a47 47 0 0 1 4.63-3.6l2.46 3.63a43 43 0 0 0-4.2 3.27"/>
    <path d="m66.8 95.12-2.82-3.37q1.33-1.1 2.85-2.17l2.5 3.6q-1.36.95-2.53 1.93z"/>
    <path d="m69.39 86.67-2.18-3.81q1.19-.67 2.3-1.23l1.96 3.93q-1.02.5-2.08 1.11"/>
    <path d="m71.34 91.88-2.27-3.76a41 41 0 0 1 3.57-1.91l1.88 3.97a36 36 0 0 0-3.19 1.7z"/>
    <path d="m77.1 89.08-1.56-4.1q1.47-.57 3.05-1.03l1.22 4.21q-1.4.4-2.71.92"/>
    <path d="m74.99 84.01-1.59-4.1a46 46 0 0 1 6.25-1.9l.98 4.28A41 41 0 0 0 75 84"/>
    <path d="m63.01 98.78-3.27-2.93a40 40 0 0 1 4.25-4.1l2.82 3.37a36 36 0 0 0-3.79 3.66"/>
    <path d="m67.69 101.8-3.19-3a37 37 0 0 1 2.7-2.56l2.85 3.33a31 31 0 0 0-2.36 2.24"/>
    <path d="m69.34 93.18-2.51-3.6q1.19-.83 2.24-1.47l2.26 3.76q-.93.56-2 1.3z"/>
    <path d="m71.8 98.17-2.61-3.53q1.63-1.2 3.46-2.24l2.17 3.81q-1.6.92-3.02 1.96"/>
    <path d="m74.52 90.18-1.88-3.97q1.4-.66 2.9-1.24l1.57 4.1q-1.35.53-2.6 1.1z"/>
    <path d="m77.24 94.97-1.82-4q1.45-.67 2.92-1.18l1.46 4.14q-1.28.45-2.56 1.03"/>
    <path d="M82.33 90.49v-.15l-.01-.33h4.39l.01.44z"/>
    <path d="m79.82 88.16-1.23-4.21q2.94-.86 5.98-1.27l.58 4.36q-2.72.37-5.33 1.12"/>
    <path d="m64.45 105.85-3.65-2.44a36 36 0 0 1 3.7-4.63l3.2 3.02a31 31 0 0 0-3.24 4.04z"/>
    <path d="m70.05 99.56-2.86-3.33q1.03-.87 2-1.6l2.6 3.54q-.85.62-1.74 1.4"/>
    <path d="m74.82 96.21-2.17-3.81q1.35-.77 2.77-1.42l1.82 4q-1.24.56-2.42 1.23"/>
    <path d="m79.8 93.94-1.46-4.14a36 36 0 0 1 5.82-1.5l.73 4.33q-2.61.44-5.09 1.3"/>
    <path d="M88.68 135.66a59 59 0 0 1-4.51-3.78l2.98-3.22a53 53 0 0 0 4.17 3.49l-2.63 3.5"/>
    <path d="M93.07 132.06a53 53 0 0 1-4.53-3.62l2.92-3.27a50 50 0 0 0 4.15 3.31z"/>
    <path d="M96.99 128.1a47 47 0 0 1-4.55-3.54l2.9-3.3a43 43 0 0 0 4.11 3.22z"/>
    <path d="M100.43 123.81a41 41 0 0 1-4.58-3.55l2.92-3.28a38 38 0 0 0 4.1 3.18z"/>
    <path d="M103.4 119.2a36 36 0 0 1-4.62-3.7l3.02-3.2q1.93 1.82 4.05 3.24l-2.44 3.65"/>
    <path d="M84.16 131.88a58 58 0 0 1-4.03-4.14l3.3-2.9a53 53 0 0 0 3.72 3.82z"/>
    <path d="M92.44 124.56a47 47 0 0 1-4.09-4.08l3.3-2.9q1.72 1.96 3.7 3.69z"/>
    <path d="M88.54 128.44a52 52 0 0 1-4.06-4.06l3.27-2.93a50 50 0 0 0 3.71 3.72z"/>
    <path d="M98.79 115.5q-1.36-1.29-2.56-2.7l3.33-2.85q1.06 1.23 2.24 2.36z"/>
    <path d="M95.85 120.26a41 41 0 0 1-4.1-4.25l3.36-2.82a36 36 0 0 0 3.66 3.79z"/>
    <path d="M96.23 112.8q-.86-1-1.6-1.99l3.54-2.6q.63.85 1.4 1.74z"/>
    <path d="M80.14 127.74a56 56 0 0 1-3.57-4.48l3.56-2.56a54 54 0 0 0 3.3 4.14z"/>
    <path d="M84.48 124.38a52 52 0 0 1-3.58-4.49l3.58-2.55a47 47 0 0 0 3.27 4.1z"/>
    <path d="M88.35 120.48a48 48 0 0 1-3.6-4.64l3.63-2.46a43 43 0 0 0 3.27 4.2z"/>
    <path d="M91.75 116.01a40 40 0 0 1-2.17-2.84l3.6-2.51q.95 1.35 1.93 2.53z"/>
    <path d="M89.58 113.17a40 40 0 0 1-1.46-2.24l3.76-2.27q.57.96 1.31 2l-3.6 2.51"/>
    <path d="M94.64 110.81a35 35 0 0 1-2.24-3.46l3.81-2.17q.91 1.6 1.96 3.02z"/>
    <path d="M92.4 107.35q-.78-1.36-1.43-2.77l4-1.82q.56 1.23 1.23 2.42z"/>
    <path d="M76.57 123.26a58 58 0 0 1-3.1-4.79l3.8-2.2q1.33 2.3 2.86 4.43z"/>
    <path d="M80.9 119.9a53 53 0 0 1-3.12-4.93l3.84-2.13q1.27 2.3 2.86 4.51z"/>
    <path d="M84.75 115.84a43 43 0 0 1-1.9-3.06l3.82-2.17a41 41 0 0 0 1.71 2.76z"/>
    <path d="M82.86 112.79q-.67-1.19-1.23-2.3l3.93-1.96q.5 1.02 1.11 2.08z"/>
    <path d="M88.12 110.93a41 41 0 0 1-1.91-3.57l3.97-1.88q.78 1.66 1.7 3.19z"/>
    <path d="M86.21 107.36q-.65-1.39-1.24-2.9l4.1-1.57q.53 1.36 1.1 2.59z"/>
    <path d="M90.98 104.58q-.66-1.44-1.19-2.92l4.15-1.46q.45 1.29 1.03 2.56l-4 1.83z"/>
    <path d="M89.8 101.66a35 35 0 0 1-1.5-5.82l4.33-.73q.44 2.6 1.3 5.09z"/>
    <path d="M88.3 95.84a35 35 0 0 1-.5-5.84h4.4q0 2.53.43 5.11z"/>
    <path d="M90 97.68V93.3l.44-.01.04 4.39h-.15z"/>
    <path d="M73.47 118.47a57 57 0 0 1-4.21-9.04l4.12-1.5a53 53 0 0 0 3.9 8.35z"/>
    <path d="M77.79 114.97a53 53 0 0 1-1.73-3.42l3.99-1.84q.75 1.66 1.58 3.13z"/>
    <path d="M69.26 109.43a58 58 0 0 1-2.03-7l4.29-.96q.75 3.38 1.86 6.47z"/>
    <path d="M76.06 111.55a52 52 0 0 1-2.5-6.57l4.2-1.28a47 47 0 0 0 2.29 6.01z"/>
    <path d="M81.63 110.48a47 47 0 0 1-1.71-3.9l4.1-1.57q.7 1.81 1.54 3.52z"/>
    <path d="M73.56 104.98a51 51 0 0 1-1.53-6.6l4.33-.7q.5 3.08 1.4 6.02z"/>
    <path d="M79.92 106.6a46 46 0 0 1-1.91-6.25l4.28-.98A41 41 0 0 0 84 105z"/>
    <path d="M84.97 104.45q-.55-1.48-1.02-3.04l4.21-1.23q.41 1.4.91 2.71z"/>
    <path d="M83.96 101.4q-.86-2.92-1.27-5.97l4.35-.58q.38 2.72 1.13 5.33z"/>
  </g>
  <path d="M218.45 31.43v5.8h10.89v8.08h-10.89v10.3h-9.25V22.83h24.3v8.6z" fill="#fafafb"/>
  <path d="m252.46 45.25-2.99.06h-1.34v10.3h-9.25V22.83h13.81c8.9 0 14 4.45 14 11.3 0 4.97-2.52 7.9-5.5 9.25l7.43 12.23h-9.96zm.76-7.03c2.7 0 3.98-1.28 3.98-3.5 0-2.23-1.23-3.52-3.98-3.52h-5.1v7.02z" fill="#fafafb"/>
  <path d="M288.86 22.19c10.36 0 17.74 7.08 17.74 17.03s-7.38 17.03-17.74 17.03-17.68-7.08-17.68-17.03 7.38-17.03 17.68-17.03m0 25.58c5.03 0 8.31-3.46 8.31-8.55s-3.28-8.55-8.3-8.55c-5.04 0-8.26 3.46-8.26 8.55s3.28 8.55 8.25 8.55" fill="#fafafb"/>
  <path d="m333.7 55.61-12.75-18.44h-.24c0 .06.06 3.51.06 7.26V55.6h-9.25V22.83h9.6l12.82 17.8h.18v-17.8h9.3V55.6z" fill="#fafafb"/>
  <path d="M368.24 31.43v24.18h-9.31V31.43H348.5v-8.6h30.14v8.6z" fill="#fafafb"/>
  <path d="M383.75 22.83h25.81v8.6H393v3.98h11.35v7.26H393V47h16.86v8.61h-26.11z" fill="#fafafb"/>
  <path d="m437.78 55.61-12.76-18.44h-.24c0 .06.06 3.51.06 7.26V55.6h-9.25V22.83h9.6l12.82 17.8h.18v-17.8h9.3V55.6z" fill="#fafafb"/>
  <path d="M467.51 22.83c10.42 0 18.32 6.15 18.32 16.5 0 10.37-7.9 16.28-18.38 16.28h-13.4V22.83zM467.34 47c5.73 0 9.07-2.04 9.07-7.66s-3.34-7.9-8.96-7.9h-4.15V47z" fill="#fafafb"/>
  <path d="M241.1 99.34c-2.69 5.67-7.96 9.6-15.68 9.6-10.66 0-17.86-7.14-17.86-16.98s7.2-17.1 17.8-17.1c7.43 0 13.23 3.64 15.74 9.67l-8.78 2.34a8.6 8.6 0 0 0-7.02-3.51c-5.1 0-8.31 3.5-8.31 8.54s3.4 8.55 8.37 8.55c3.51 0 5.67-1.64 6.85-3.45z" fill="#fafafb"/>
  <path d="M261.94 74.87c10.36 0 17.74 7.08 17.74 17.03s-7.38 17.04-17.74 17.04-17.68-7.09-17.68-17.04 7.38-17.03 17.68-17.03m0 25.58c5.04 0 8.31-3.45 8.31-8.55 0-5.09-3.27-8.54-8.3-8.54s-8.26 3.45-8.26 8.54c0 5.1 3.28 8.55 8.25 8.55" fill="#fafafb"/>
  <path d="m306.78 108.3-12.76-18.45h-.23c0 .06.05 3.52.05 7.26v11.18h-9.24V75.51h9.6l12.8 17.8h.18V75.5h9.3v32.78z" fill="#fafafb"/>
  <path d="M332.3 84.12v5.8h10.89v8.07H332.3v10.3h-9.25V75.51h24.3v8.6z" fill="#fafafb"/>
  <path d="M352.73 75.51h25.82v8.6h-16.57v3.99h11.36v7.26h-11.36v4.33h16.86v8.6h-26.1z" fill="#fafafb"/>
  <path d="m398.15 97.93-2.99.06h-1.34v10.3h-9.25V75.51h13.81c8.9 0 14 4.45 14 11.3 0 4.98-2.52 7.9-5.51 9.25l7.43 12.23h-9.95zm.76-7.02c2.7 0 3.98-1.3 3.98-3.52s-1.23-3.5-3.98-3.5h-5.1v7.02z" fill="#fafafb"/>
  <path d="M418.52 75.51h25.81v8.6h-16.56v3.99h11.35v7.26h-11.35v4.33h16.86v8.6h-26.11z" fill="#fafafb"/>
  <path d="m472.55 108.3-12.76-18.45h-.24c0 .06.06 3.52.06 7.26v11.18h-9.25V75.51h9.6l12.82 17.8h.18V75.5h9.3v32.78z" fill="#fafafb"/>
  <path d="M520.72 99.34c-2.7 5.67-7.96 9.6-15.69 9.6-10.65 0-17.85-7.14-17.85-16.98s7.2-17.1 17.8-17.1c7.43 0 13.23 3.64 15.74 9.67l-8.78 2.34a8.6 8.6 0 0 0-7.02-3.51c-5.1 0-8.31 3.5-8.31 8.54s3.39 8.55 8.37 8.55c3.5 0 5.67-1.64 6.84-3.45z" fill="#fafafb"/>
  <path d="M525.52 75.51h25.82v8.6h-16.57v3.99h11.36v7.26h-11.36v4.33h16.86v8.6h-26.1z" fill="#fafafb"/>
  <path d="M227.47 136.8v24.18h-9.31V136.8h-10.42v-8.6h30.14v8.6z" fill="#fafafb"/>
  <path d="M259.02 127.55c10.36 0 17.73 7.08 17.73 17.04s-7.37 17.03-17.73 17.03-17.68-7.08-17.68-17.03 7.37-17.04 17.68-17.04m0 25.58c5.03 0 8.3-3.45 8.3-8.54 0-5.1-3.27-8.55-8.3-8.55s-8.26 3.45-8.26 8.55c0 5.09 3.28 8.54 8.26 8.54" fill="#fafafb"/>
  <path d="m295.72 147.4-4.8 5.26v8.32h-9.25V128.2h9.25v13.52h.23c.3-.3 1.47-1.7 2.87-3.4l8.66-10.12h11.53l-11.76 12.87 12.23 19.9h-10.6z" fill="#fafafb"/>
  <path d="M327.96 160.98v-11.19l-11.94-21.6h10.6l3.45 6.62c1.64 3.22 2.99 6.09 3.04 6.15h.18c.06-.06 1.4-2.87 3.04-6.15l3.4-6.62h9.6l-12.06 21.6v11.19z" fill="#fafafb"/>
  <path d="M369.29 127.55c10.36 0 17.74 7.08 17.74 17.04s-7.38 17.03-17.74 17.03-17.68-7.08-17.68-17.03 7.38-17.04 17.68-17.04m0 25.58c5.03 0 8.31-3.45 8.31-8.54 0-5.1-3.28-8.55-8.31-8.55s-8.25 3.45-8.25 8.55c0 5.09 3.27 8.54 8.25 8.54" fill="#fafafb"/>
  <defs>
    <clipPath id="a">
      <path fill="#fff" d="M0 0h180v180H0z"/>
    </clipPath>
  </defs>
</svg>
