<svg width="172" height="315" viewBox="0 0 172 315" fill="none" xmlns="http://www.w3.org/2000/svg">
<path d="M161.963 282.52C162.356 283.097 162.776 283.74 163.222 284.448C163.668 285.157 164.088 285.865 164.482 286.574C164.902 287.256 165.256 287.899 165.545 288.502L161.491 290.273C161.071 289.355 160.69 288.581 160.349 287.951C160.034 287.322 159.693 286.718 159.326 286.141C158.985 285.537 158.552 284.881 158.027 284.173L161.963 282.52ZM167.355 280.276C167.775 280.827 168.208 281.444 168.654 282.126C169.126 282.808 169.572 283.491 169.992 284.173C170.412 284.855 170.766 285.485 171.055 286.062L167.119 287.991C166.673 287.072 166.266 286.311 165.899 285.708C165.531 285.078 165.164 284.488 164.797 283.937C164.429 283.386 163.983 282.769 163.459 282.087L167.355 280.276ZM145.235 309.008C145.235 308.431 145.235 307.565 145.235 306.411C145.235 305.23 145.235 303.892 145.235 302.396C145.235 300.9 145.235 299.352 145.235 297.752C145.235 296.125 145.235 294.564 145.235 293.068C145.235 291.572 145.235 290.247 145.235 289.093C145.235 287.938 145.235 287.085 145.235 286.534C145.235 285.747 145.196 284.881 145.117 283.937C145.038 282.992 144.92 282.152 144.763 281.418H152.202C152.123 282.152 152.031 282.953 151.926 283.819C151.848 284.684 151.808 285.59 151.808 286.534C151.808 287.085 151.808 287.938 151.808 289.093C151.808 290.247 151.808 291.572 151.808 293.068C151.808 294.564 151.808 296.112 151.808 297.712C151.808 299.313 151.808 300.874 151.808 302.396C151.808 303.892 151.808 305.23 151.808 306.411C151.808 307.565 151.808 308.431 151.808 309.008C151.808 309.349 151.821 309.887 151.848 310.622C151.9 311.331 151.966 312.078 152.044 312.866C152.123 313.653 152.189 314.348 152.241 314.952H144.763C144.894 314.112 144.999 313.115 145.078 311.96C145.183 310.806 145.235 309.822 145.235 309.008ZM150.391 291.533C151.703 291.874 153.186 292.32 154.839 292.871C156.492 293.396 158.158 293.96 159.837 294.564C161.517 295.167 163.078 295.757 164.521 296.335C165.991 296.912 167.171 297.424 168.064 297.87L165.348 304.521C164.246 303.944 163.039 303.38 161.727 302.829C160.441 302.252 159.129 301.701 157.791 301.176C156.479 300.625 155.18 300.126 153.894 299.68C152.635 299.208 151.467 298.788 150.391 298.421V291.533Z" fill="white"/>
<path d="M144.37 235.072C145.052 235.545 145.852 236.135 146.771 236.843C147.689 237.526 148.634 238.273 149.605 239.087C150.602 239.874 151.533 240.661 152.399 241.448C153.291 242.209 154.026 242.905 154.603 243.534L149.723 248.533C149.198 247.956 148.529 247.287 147.715 246.526C146.902 245.739 146.023 244.938 145.078 244.125C144.134 243.285 143.202 242.498 142.284 241.763C141.365 241.029 140.552 240.412 139.844 239.913L144.37 235.072ZM138.545 261.207C140.486 260.944 142.323 260.577 144.055 260.105C145.813 259.632 147.466 259.081 149.014 258.452C150.562 257.822 151.979 257.14 153.265 256.405C155.627 255.04 157.778 253.492 159.72 251.761C161.662 250.002 163.354 248.179 164.797 246.29C166.267 244.374 167.434 242.498 168.3 240.661L172 247.392C170.95 249.255 169.651 251.091 168.103 252.902C166.555 254.686 164.81 256.379 162.869 257.979C160.953 259.58 158.893 261.023 156.689 262.309C155.351 263.096 153.908 263.844 152.36 264.552C150.812 265.234 149.211 265.825 147.558 266.323C145.905 266.848 144.252 267.242 142.599 267.504L138.545 261.207Z" fill="white"/>
<path d="M139.882 190.734C140.407 190.813 141.05 190.879 141.811 190.931C142.572 190.984 143.254 191.01 143.858 191.01H165.19C165.794 191.01 166.437 190.984 167.119 190.931C167.801 190.879 168.444 190.813 169.047 190.734V197.268C168.418 197.215 167.762 197.176 167.08 197.15C166.397 197.097 165.768 197.071 165.19 197.071H143.858C143.254 197.071 142.572 197.097 141.811 197.15C141.05 197.176 140.407 197.215 139.882 197.268V190.734ZM150.785 215.609V194.355H157.476V215.609H150.785ZM137.285 211.634C137.941 211.739 138.623 211.831 139.331 211.909C140.066 211.962 140.748 211.988 141.378 211.988H167.316C168.077 211.988 168.785 211.949 169.441 211.87C170.123 211.791 170.714 211.713 171.212 211.634V218.522C170.635 218.443 169.966 218.391 169.205 218.364C168.444 218.338 167.814 218.325 167.316 218.325H141.378C140.775 218.325 140.105 218.338 139.371 218.364C138.662 218.391 137.967 218.443 137.285 218.522V211.634Z" fill="white"/>
<path d="M146.416 168.201C146.416 167.624 146.416 166.758 146.416 165.604C146.416 164.423 146.416 163.085 146.416 161.589C146.416 160.093 146.416 158.545 146.416 156.945C146.416 155.318 146.416 153.757 146.416 152.261C146.416 150.765 146.416 149.44 146.416 148.286C146.416 147.131 146.416 146.278 146.416 145.727C146.416 144.94 146.377 144.074 146.298 143.13C146.219 142.185 146.101 141.345 145.944 140.611H153.383C153.304 141.345 153.212 142.146 153.107 143.012C153.028 143.877 152.989 144.783 152.989 145.727C152.989 146.278 152.989 147.131 152.989 148.286C152.989 149.44 152.989 150.765 152.989 152.261C152.989 153.757 152.989 155.305 152.989 156.905C152.989 158.506 152.989 160.067 152.989 161.589C152.989 163.085 152.989 164.423 152.989 165.604C152.989 166.758 152.989 167.624 152.989 168.201C152.989 168.542 153.002 169.08 153.028 169.815C153.081 170.524 153.147 171.271 153.225 172.059C153.304 172.846 153.37 173.541 153.422 174.145H145.944C146.075 173.305 146.18 172.308 146.259 171.153C146.364 169.999 146.416 169.015 146.416 168.201ZM151.572 150.726C152.884 151.067 154.367 151.513 156.02 152.064C157.673 152.589 159.339 153.153 161.018 153.757C162.698 154.36 164.259 154.95 165.702 155.528C167.172 156.105 168.352 156.617 169.244 157.063L166.529 163.714C165.427 163.137 164.22 162.573 162.908 162.022C161.622 161.445 160.31 160.894 158.972 160.369C157.66 159.818 156.361 159.319 155.075 158.873C153.816 158.401 152.648 157.981 151.572 157.614V150.726Z" fill="white"/>
<path d="M144.37 94.8556C145.052 95.3279 145.852 95.9183 146.771 96.6267C147.689 97.3089 148.634 98.0568 149.605 98.8702C150.602 99.6574 151.533 100.445 152.399 101.232C153.291 101.993 154.026 102.688 154.603 103.318L149.723 108.316C149.198 107.739 148.529 107.07 147.715 106.309C146.902 105.522 146.023 104.722 145.078 103.908C144.134 103.068 143.202 102.281 142.284 101.547C141.365 100.812 140.552 100.195 139.844 99.6967L144.37 94.8556ZM138.545 120.99C140.486 120.728 142.323 120.36 144.055 119.888C145.813 119.416 147.466 118.865 149.014 118.235C150.562 117.605 151.979 116.923 153.265 116.188C155.627 114.824 157.778 113.276 159.72 111.544C161.662 109.786 163.354 107.962 164.797 106.073C166.267 104.157 167.434 102.281 168.3 100.445L172 107.175C170.95 109.038 169.651 110.875 168.103 112.685C166.555 114.47 164.81 116.162 162.869 117.763C160.953 119.363 158.893 120.806 156.689 122.092C155.351 122.879 153.908 123.627 152.36 124.336C150.812 125.018 149.211 125.608 147.558 126.107C145.905 126.631 144.252 127.025 142.599 127.287L138.545 120.99Z" fill="white"/>
<path d="M139.096 50.2026C139.909 50.2289 140.723 50.2551 141.536 50.2814C142.35 50.2814 143.045 50.2814 143.622 50.2814C144.095 50.2814 144.777 50.2814 145.669 50.2814C146.587 50.2814 147.637 50.2814 148.818 50.2814C149.998 50.2814 151.245 50.2814 152.557 50.2814C153.895 50.2814 155.233 50.2814 156.571 50.2814C157.91 50.2814 159.169 50.2814 160.35 50.2814C161.531 50.2814 162.58 50.2814 163.499 50.2814C164.417 50.2814 165.112 50.2814 165.585 50.2814C166.109 50.2814 166.726 50.2814 167.435 50.2814C168.169 50.2814 168.93 50.2682 169.717 50.242C169.691 50.898 169.665 51.6064 169.639 52.3674C169.639 53.1021 169.639 53.8106 169.639 54.4928C169.639 54.8864 169.639 55.4768 169.639 56.2639C169.639 57.0249 169.639 57.9301 169.639 58.9797C169.639 60.0293 169.639 61.1313 169.639 62.2859C169.639 63.4404 169.639 64.6081 169.639 65.7888C169.639 66.9696 169.639 68.0848 169.639 69.1344C169.639 70.1839 169.639 71.1023 169.639 71.8895C169.639 72.6767 169.639 73.2802 169.639 73.7C169.639 74.1199 169.639 74.6578 169.639 75.3137C169.665 75.9697 169.678 76.6257 169.678 77.2817C169.678 77.9114 169.678 78.4494 169.678 78.8954C169.704 79.3415 169.717 79.5645 169.717 79.5645H163.105C163.105 79.5645 163.105 79.2365 163.105 78.5805C163.131 77.9246 163.158 77.1374 163.184 76.219C163.21 75.3006 163.223 74.4347 163.223 73.6213C163.223 73.2277 163.223 72.6242 163.223 71.8108C163.223 70.9974 163.223 70.0659 163.223 69.0163C163.223 67.9405 163.223 66.8253 163.223 65.6708C163.223 64.5162 163.223 63.3879 163.223 62.2859C163.223 61.1838 163.223 60.1867 163.223 59.2946C163.223 58.4025 163.223 57.694 163.223 57.1692C163.223 56.6444 163.223 56.382 163.223 56.382H145.59C145.59 56.382 145.59 56.6444 145.59 57.1692C145.59 57.694 145.59 58.4025 145.59 59.2946C145.59 60.1867 145.59 61.1838 145.59 62.2859C145.59 63.3879 145.59 64.5162 145.59 65.6708C145.59 66.8253 145.59 67.9405 145.59 69.0163C145.59 70.0659 145.59 70.9974 145.59 71.8108C145.59 72.6242 145.59 73.2277 145.59 73.6213C145.59 74.1723 145.59 74.789 145.59 75.4712C145.59 76.1534 145.59 76.8094 145.59 77.4391C145.616 78.0426 145.63 78.5412 145.63 78.9348C145.63 79.3546 145.63 79.5645 145.63 79.5645H139.057C139.057 79.5645 139.057 79.3546 139.057 78.9348C139.083 78.5412 139.096 78.0295 139.096 77.3998C139.122 76.77 139.135 76.1272 139.135 75.4712C139.162 74.789 139.175 74.1723 139.175 73.6213C139.175 73.2277 139.175 72.6373 139.175 71.8501C139.175 71.063 139.175 70.1446 139.175 69.095C139.175 68.0454 139.175 66.9434 139.175 65.7888C139.175 64.6081 139.175 63.4404 139.175 62.2859C139.175 61.1051 139.175 60.0031 139.175 58.9797C139.175 57.9301 139.175 57.0249 139.175 56.2639C139.175 55.4768 139.175 54.8864 139.175 54.4928C139.175 53.863 139.175 53.1415 139.175 52.328C139.175 51.5146 139.148 50.8061 139.096 50.2026ZM165.545 71.3778V77.4785H142.284V71.3778H165.545Z" fill="white"/>
<path d="M170.189 5.70698C169.979 6.12681 169.783 6.6516 169.599 7.28134C169.441 7.88485 169.297 8.40964 169.166 8.85571C168.93 9.77409 168.641 10.8237 168.3 12.0044C167.985 13.159 167.592 14.3791 167.119 15.6648C166.647 16.9243 166.083 18.1969 165.427 19.4827C164.797 20.7422 164.062 21.9492 163.223 23.1037C162.042 24.6781 160.638 26.1737 159.011 27.5906C157.411 28.9813 155.613 30.2408 153.619 31.3691C151.651 32.4712 149.513 33.4027 147.204 34.1636L142.008 28.4565C144.658 27.853 146.941 27.0921 148.857 26.1737C150.772 25.2553 152.425 24.2189 153.816 23.0643C155.233 21.8836 156.453 20.6503 157.476 19.3646C158.316 18.315 159.024 17.213 159.602 16.0584C160.179 14.8777 160.651 13.71 161.019 12.5555C161.386 11.3747 161.648 10.2595 161.806 9.20994C161.412 9.20994 160.782 9.20994 159.917 9.20994C159.077 9.20994 158.093 9.20994 156.965 9.20994C155.863 9.20994 154.695 9.20994 153.462 9.20994C152.255 9.20994 151.074 9.20994 149.919 9.20994C148.765 9.20994 147.702 9.20994 146.731 9.20994C145.787 9.20994 145.039 9.20994 144.488 9.20994C143.517 9.20994 142.546 9.23618 141.575 9.28866C140.631 9.3149 139.896 9.35426 139.371 9.40674V2.67633C139.791 2.72881 140.316 2.78129 140.945 2.83377C141.575 2.88625 142.218 2.93872 142.874 2.9912C143.53 3.01744 144.068 3.03056 144.488 3.03056C144.96 3.03056 145.577 3.03056 146.338 3.03056C147.125 3.03056 147.991 3.03056 148.935 3.03056C149.906 3.03056 150.903 3.03056 151.927 3.03056C152.976 3.03056 154.013 3.03056 155.036 3.03056C156.059 3.03056 157.017 3.03056 157.909 3.03056C158.828 3.03056 159.628 3.03056 160.31 3.03056C160.992 3.03056 161.504 3.03056 161.845 3.03056C162.291 3.03056 162.855 3.01744 163.538 2.9912C164.22 2.93872 164.863 2.83377 165.466 2.67633L170.189 5.70698Z" fill="white"/>
<path d="M99.2642 285.472C99.0805 285.734 98.8181 286.154 98.477 286.731C98.1359 287.308 97.8603 287.846 97.6504 288.345C97.0994 289.552 96.4172 290.916 95.6038 292.438C94.8166 293.934 93.9113 295.456 92.888 297.004C91.8909 298.552 90.8151 300.008 89.6605 301.373C88.1911 303.078 86.5512 304.758 84.7406 306.411C82.9564 308.037 81.0671 309.546 79.0729 310.937C77.105 312.301 75.1108 313.469 73.0903 314.44L68.1311 309.284C70.2565 308.497 72.3294 307.486 74.3498 306.253C76.3703 305.02 78.2333 303.695 79.9388 302.278C81.6444 300.861 83.0744 299.51 84.229 298.224C85.0949 297.253 85.8821 296.243 86.5905 295.193C87.3252 294.144 87.9681 293.12 88.5191 292.123C89.0701 291.1 89.4769 290.168 89.7392 289.329C89.4506 289.329 88.9914 289.329 88.3617 289.329C87.7319 289.329 87.0104 289.329 86.1969 289.329C85.3835 289.329 84.5307 289.329 83.6386 289.329C82.7727 289.329 81.933 289.329 81.1196 289.329C80.3062 289.329 79.5715 289.329 78.9155 289.329C78.2858 289.329 77.8134 289.329 77.4986 289.329C76.9213 289.329 76.3047 289.355 75.6487 289.407C75.0189 289.434 74.4154 289.473 73.8382 289.526C73.2871 289.578 72.828 289.617 72.4606 289.644V282.874C72.9329 282.926 73.4839 282.979 74.1137 283.031C74.7697 283.084 75.3994 283.123 76.0029 283.149C76.6327 283.176 77.1312 283.189 77.4986 283.189C77.8922 283.189 78.4432 283.189 79.1517 283.189C79.8601 283.189 80.6473 283.189 81.5132 283.189C82.4053 283.189 83.3106 283.189 84.229 283.189C85.1736 283.189 86.0657 283.189 86.9054 283.189C87.7713 283.189 88.5322 283.189 89.1882 283.189C89.8442 283.189 90.3296 283.189 90.6445 283.189C91.6416 283.189 92.56 283.136 93.3996 283.031C94.2655 282.9 94.9215 282.756 95.3676 282.598L99.2642 285.472ZM90.1722 297.437C91.1693 298.224 92.2451 299.155 93.3996 300.231C94.5542 301.307 95.6956 302.435 96.8239 303.616C97.9784 304.771 99.0411 305.886 100.012 306.962C100.983 308.037 101.783 308.956 102.413 309.717L96.942 314.479C95.9711 313.062 94.8691 311.645 93.6358 310.228C92.4288 308.785 91.1431 307.355 89.7786 305.938C88.4404 304.521 87.0628 303.17 85.6459 301.884L90.1722 297.437Z" fill="white"/>
<path d="M75.4916 235.072C76.1739 235.545 76.9742 236.135 77.8926 236.843C78.8109 237.526 79.7556 238.273 80.7264 239.087C81.7235 239.874 82.655 240.661 83.5209 241.448C84.413 242.209 85.1477 242.905 85.725 243.534L80.8445 248.533C80.3197 247.956 79.6506 247.287 78.8372 246.526C78.0238 245.739 77.1447 244.938 76.2001 244.125C75.2555 243.285 74.324 242.498 73.4056 241.763C72.4872 241.029 71.6738 240.412 70.9654 239.913L75.4916 235.072ZM69.6665 261.207C71.6082 260.944 73.445 260.577 75.1768 260.105C76.9348 259.632 78.5879 259.081 80.136 258.452C81.6841 257.822 83.1011 257.14 84.3868 256.405C86.7484 255.04 88.9 253.492 90.8417 251.761C92.7834 250.002 94.4759 248.179 95.919 246.29C97.3884 244.374 98.5561 242.498 99.422 240.661L103.122 247.392C102.072 249.255 100.773 251.091 99.2252 252.902C97.6771 254.686 95.9321 256.379 93.9904 257.979C92.0749 259.58 90.0152 261.023 87.811 262.309C86.4728 263.096 85.0297 263.844 83.4815 264.552C81.9334 265.234 80.3328 265.825 78.6797 266.323C77.0267 266.848 75.3736 267.242 73.7205 267.504L69.6665 261.207Z" fill="white"/>
<path d="M72.7749 217.144C73.0635 216.541 73.2341 216.029 73.2866 215.609C73.339 215.189 73.3653 214.73 73.3653 214.232C73.3653 213.681 73.3653 212.906 73.3653 211.909C73.3653 210.912 73.3653 209.771 73.3653 208.485C73.3653 207.199 73.3653 205.861 73.3653 204.471C73.3653 203.054 73.3653 201.663 73.3653 200.298C73.3653 198.908 73.3653 197.635 73.3653 196.481C73.3653 195.3 73.3653 194.316 73.3653 193.529C73.3653 192.951 73.339 192.361 73.2866 191.758C73.2341 191.154 73.1685 190.577 73.0898 190.026C73.0373 189.475 72.9586 188.989 72.8536 188.569H80.3318C80.2007 189.462 80.0957 190.301 80.017 191.088C79.9383 191.849 79.8989 192.663 79.8989 193.529C79.8989 194.211 79.8989 195.011 79.8989 195.93C79.8989 196.822 79.8989 197.793 79.8989 198.842C79.8989 199.866 79.8989 200.928 79.8989 202.03C79.8989 203.132 79.8989 204.221 79.8989 205.297C79.8989 206.373 79.8989 207.396 79.8989 208.367C79.8989 209.338 79.8989 210.217 79.8989 211.004C79.8989 211.791 79.8989 212.434 79.8989 212.933C81.3421 212.487 82.9164 211.857 84.622 211.044C86.3538 210.23 88.1118 209.272 89.8961 208.17C91.6804 207.042 93.3859 205.809 95.0128 204.471C96.6396 203.106 98.0959 201.663 99.3817 200.141L102.767 205.573C99.9852 208.826 96.6134 211.621 92.6512 213.956C88.7153 216.291 84.5039 218.246 80.017 219.821C79.7283 219.926 79.3348 220.07 78.8362 220.254C78.3639 220.437 77.8522 220.713 77.3012 221.08L72.7749 217.144Z" fill="white"/>
<path d="M101.192 148.965C100.982 149.201 100.733 149.516 100.444 149.909C100.156 150.276 99.9457 150.565 99.8145 150.775C99.4471 151.379 98.9486 152.113 98.3188 152.979C97.6891 153.819 97.0069 154.711 96.2722 155.656C95.5375 156.574 94.8028 157.44 94.0681 158.253C93.3334 159.04 92.6642 159.683 92.0607 160.182L87.3376 156.915C87.9936 156.416 88.6496 155.852 89.3056 155.223C89.9878 154.567 90.6045 153.911 91.1555 153.255C91.7065 152.599 92.1132 152.035 92.3756 151.562C92.087 151.562 91.536 151.562 90.7225 151.562C89.9353 151.562 89.0039 151.562 87.928 151.562C86.8522 151.562 85.7108 151.562 84.5038 151.562C83.323 151.562 82.1685 151.562 81.0402 151.562C79.9381 151.562 78.9673 151.562 78.1276 151.562C77.288 151.562 76.6845 151.562 76.3171 151.562C75.6086 151.562 74.9002 151.588 74.1917 151.641C73.5095 151.667 72.7617 151.72 71.9482 151.798V145.737C72.6305 145.842 73.352 145.934 74.113 146.013C74.8739 146.065 75.6086 146.091 76.3171 146.091C76.6845 146.091 77.3273 146.091 78.2457 146.091C79.1641 146.091 80.2399 146.091 81.4731 146.091C82.7326 146.091 84.0184 146.091 85.3303 146.091C86.6685 146.091 87.928 146.091 89.1088 146.091C90.3158 146.091 91.3392 146.091 92.1788 146.091C93.0447 146.091 93.6089 146.091 93.8713 146.091C94.2124 146.091 94.6322 146.078 95.1307 146.052C95.6555 146.026 96.1541 145.986 96.6264 145.934C97.0987 145.881 97.4529 145.829 97.6891 145.776L101.192 148.965ZM87.5344 153.097C87.482 154.462 87.4164 155.839 87.3376 157.23C87.2852 158.621 87.1146 160.011 86.826 161.402C86.5636 162.766 86.1044 164.118 85.4484 165.456C84.8187 166.768 83.9003 168.027 82.6933 169.234C81.4863 170.441 79.9119 171.583 77.9702 172.659L72.9716 168.683C73.5488 168.447 74.113 168.198 74.664 167.936C75.215 167.647 75.8186 167.267 76.4745 166.794C77.8127 165.876 78.823 164.905 79.5052 163.882C80.2137 162.858 80.686 161.73 80.9221 160.497C81.1845 159.237 81.3157 157.794 81.3157 156.167C81.3157 155.642 81.2763 155.118 81.1976 154.593C81.1452 154.042 81.0664 153.543 80.9615 153.097H87.5344Z" fill="white"/>
<path d="M101.311 99.185C101.101 99.6048 100.904 100.13 100.721 100.759C100.563 101.363 100.419 101.888 100.288 102.334C100.052 103.252 99.763 104.302 99.4219 105.482C99.107 106.637 98.7134 107.857 98.2411 109.143C97.7688 110.402 97.2046 111.675 96.5486 112.961C95.9189 114.22 95.1842 115.427 94.3445 116.582C93.1638 118.156 91.7599 119.652 90.1331 121.069C88.5325 122.459 86.7351 123.719 84.7409 124.847C82.773 125.949 80.6344 126.881 78.3254 127.642L73.13 121.935C75.7802 121.331 78.063 120.57 79.9785 119.652C81.8939 118.733 83.547 117.697 84.9377 116.542C86.3546 115.362 87.5748 114.128 88.5981 112.843C89.4378 111.793 90.1462 110.691 90.7235 109.536C91.3008 108.356 91.7731 107.188 92.1404 106.033C92.5078 104.853 92.7702 103.738 92.9276 102.688C92.534 102.688 91.9043 102.688 91.0384 102.688C90.1987 102.688 89.2147 102.688 88.0864 102.688C86.9844 102.688 85.8167 102.688 84.5835 102.688C83.3765 102.688 82.1957 102.688 81.0412 102.688C79.8866 102.688 78.8239 102.688 77.8531 102.688C76.9085 102.688 76.1606 102.688 75.6096 102.688C74.6387 102.688 73.6679 102.714 72.697 102.767C71.7524 102.793 71.0177 102.832 70.4929 102.885V96.1544C70.9128 96.2068 71.4375 96.2593 72.0673 96.3118C72.697 96.3643 73.3399 96.4167 73.9959 96.4692C74.6519 96.4955 75.1898 96.5086 75.6096 96.5086C76.0819 96.5086 76.6985 96.5086 77.4595 96.5086C78.2467 96.5086 79.1126 96.5086 80.0572 96.5086C81.028 96.5086 82.0251 96.5086 83.0485 96.5086C84.098 96.5086 85.1345 96.5086 86.1578 96.5086C87.1812 96.5086 88.1389 96.5086 89.0311 96.5086C89.9494 96.5086 90.7497 96.5086 91.432 96.5086C92.1142 96.5086 92.6258 96.5086 92.967 96.5086C93.413 96.5086 93.9772 96.4955 94.6594 96.4692C95.3416 96.4167 95.9845 96.3118 96.588 96.1544L101.311 99.185Z" fill="white"/>
<path d="M75.4916 48.1165C76.1739 48.5889 76.9742 49.1792 77.8926 49.8877C78.8109 50.5699 79.7556 51.3178 80.7264 52.1312C81.7235 52.9184 82.655 53.7055 83.5209 54.4927C84.413 55.2537 85.1477 55.949 85.725 56.5787L80.8445 61.5774C80.3197 61.0001 79.6506 60.331 78.8372 59.57C78.0238 58.7829 77.1447 57.9826 76.2001 57.1691C75.2555 56.3295 74.324 55.5423 73.4056 54.8076C72.4872 54.0729 71.6738 53.4563 70.9654 52.9577L75.4916 48.1165ZM69.6665 74.251C71.6082 73.9886 73.445 73.6212 75.1768 73.1489C76.9348 72.6766 78.5879 72.1256 80.136 71.4959C81.6841 70.8661 83.1011 70.1839 84.3868 69.4492C86.7484 68.0847 88.9 66.5366 90.8417 64.8048C92.7834 63.0468 94.4759 61.2231 95.919 59.3339C97.3884 57.4184 98.5561 55.5423 99.422 53.7055L103.122 60.4359C102.072 62.2989 100.773 64.1357 99.2252 65.9462C97.6771 67.7305 95.9321 69.4229 93.9904 71.0235C92.0749 72.6241 90.0152 74.0673 87.811 75.353C86.4728 76.1402 85.0297 76.888 83.4815 77.5965C81.9334 78.2787 80.3328 78.8691 78.6797 79.3677C77.0267 79.8925 75.3736 80.2861 73.7205 80.5484L69.6665 74.251Z" fill="white"/>
<path d="M87.1803 0C87.1279 0.472309 87.0754 1.08894 87.0229 1.84988C86.9704 2.61082 86.9311 3.22745 86.9048 3.69976C86.7999 7.55695 86.485 11.0074 85.9602 14.0512C85.4617 17.0687 84.7138 19.7845 83.7167 22.1985C82.7197 24.5863 81.4077 26.7511 79.7808 28.6928C78.1802 30.6345 76.2254 32.4319 73.9163 34.085L68.3667 29.598C69.2851 29.0733 70.2559 28.4566 71.2793 27.7482C72.3288 27.0135 73.2997 26.1738 74.1918 25.2292C75.5038 23.8647 76.5665 22.4085 77.3799 20.8603C78.2196 19.3122 78.8625 17.6722 79.3085 15.9404C79.7546 14.1824 80.0564 12.3063 80.2138 10.3121C80.3975 8.29165 80.4893 6.1269 80.4893 3.81783C80.4893 3.5292 80.4762 3.14873 80.4499 2.67642C80.4237 2.17787 80.3843 1.69244 80.3319 1.22013C80.2794 0.721584 80.2269 0.314873 80.1744 0H87.1803ZM100.366 8.58028C100.313 8.89516 100.248 9.28875 100.169 9.76106C100.116 10.2071 100.09 10.5351 100.09 10.745C100.064 11.6372 100.011 12.7524 99.9327 14.0906C99.8802 15.4025 99.7884 16.8195 99.6572 18.3413C99.5522 19.837 99.4079 21.3326 99.2242 22.8283C99.0668 24.3239 98.87 25.7146 98.6338 27.0003C98.3977 28.2598 98.1091 29.3094 97.7679 30.1491C97.3481 31.2249 96.6921 32.0514 95.8 32.6287C94.9341 33.2322 93.7533 33.534 92.2577 33.534C91.0507 33.534 89.8699 33.4946 88.7154 33.4159C87.5608 33.3372 86.5244 33.2584 85.606 33.1797L84.8582 26.8036C85.7765 26.9872 86.708 27.1315 87.6527 27.2365C88.6235 27.3415 89.4763 27.3939 90.211 27.3939C90.8932 27.3939 91.3787 27.2759 91.6673 27.0397C91.9559 26.8036 92.1921 26.4362 92.3757 25.9377C92.5594 25.4916 92.73 24.8881 92.8874 24.1271C93.0449 23.3662 93.1761 22.5134 93.281 21.5688C93.4122 20.5979 93.5172 19.5877 93.5959 18.5381C93.7008 17.4886 93.7664 16.4652 93.7927 15.4681C93.8452 14.4448 93.8714 13.5002 93.8714 12.6343H75.5301C74.9265 12.6343 74.0738 12.6474 72.9717 12.6736C71.8959 12.6999 70.8988 12.7524 69.9804 12.8311V6.61233C70.8988 6.71729 71.8697 6.79601 72.893 6.84849C73.9163 6.90096 74.7954 6.9272 75.5301 6.9272H93.0449C93.5434 6.9272 94.0682 6.90096 94.6192 6.84849C95.1965 6.79601 95.7606 6.71729 96.3117 6.61233L100.366 8.58028Z" fill="white"/>
<path d="M20.0342 186.365C19.9293 187.336 19.8505 188.084 19.7981 188.609C19.7456 189.133 19.7193 189.724 19.7193 190.38C19.7193 190.747 19.7193 191.298 19.7193 192.033C19.7193 192.768 19.7193 193.529 19.7193 194.316C19.7193 195.103 19.7193 195.759 19.7193 196.284H13.0283C13.0283 195.68 13.0283 194.985 13.0283 194.198C13.0283 193.411 13.0283 192.676 13.0283 191.994C13.0283 191.285 13.0283 190.747 13.0283 190.38C13.0283 189.724 13.0021 189.133 12.9496 188.609C12.9233 188.084 12.8315 187.336 12.6741 186.365H20.0342ZM33.1801 195.064C32.9965 195.562 32.8259 196.179 32.6685 196.913C32.511 197.648 32.393 198.212 32.3143 198.606C32.1306 199.629 31.9207 200.613 31.6845 201.558C31.4483 202.476 31.186 203.368 30.8973 204.234C30.6087 205.1 30.2807 205.966 29.9133 206.832C29.5722 207.672 29.1786 208.524 28.7326 209.39C27.6568 211.437 26.2792 213.274 24.5999 214.901C22.9205 216.527 21.0444 217.892 18.9715 218.994C16.8986 220.122 14.7076 220.988 12.3985 221.592L7.4393 215.845C8.46264 215.662 9.55157 215.412 10.7061 215.097C11.8869 214.756 12.9365 214.402 13.8548 214.035C14.7995 213.641 15.7441 213.156 16.6887 212.578C17.6595 212.001 18.5779 211.332 19.4438 210.571C20.3097 209.81 21.0969 208.957 21.8054 208.013C22.4351 207.121 22.9599 206.189 23.3797 205.218C23.8258 204.221 24.18 203.172 24.4424 202.07C24.7311 200.967 24.9672 199.826 25.1509 198.645H7.00635C7.00635 198.96 7.00635 199.341 7.00635 199.787C7.00635 200.207 7.00635 200.666 7.00635 201.164C7.00635 201.663 7.00635 202.135 7.00635 202.581C7.00635 203.001 7.00635 203.368 7.00635 203.683C7.00635 204.182 7.01947 204.733 7.04571 205.336C7.07195 205.94 7.11131 206.465 7.16379 206.911H0.59082C0.643299 206.333 0.682658 205.717 0.708898 205.061C0.761377 204.405 0.787616 203.775 0.787616 203.172C0.787616 202.857 0.787616 202.398 0.787616 201.794C0.787616 201.191 0.787616 200.548 0.787616 199.865C0.787616 199.183 0.787616 198.54 0.787616 197.937C0.787616 197.307 0.787616 196.795 0.787616 196.402C0.787616 195.956 0.774496 195.378 0.748257 194.67C0.722017 193.935 0.669539 193.319 0.59082 192.82C1.32552 192.899 2.00775 192.951 2.63749 192.978C3.29348 193.004 4.01506 193.017 4.80224 193.017H25.4658C26.3317 193.017 27.0401 192.978 27.5912 192.899C28.1684 192.794 28.6539 192.676 29.0474 192.545L33.1801 195.064Z" fill="white"/>
<path d="M4.95926 145.855C5.35286 145.881 5.86452 145.921 6.49427 145.973C7.12401 145.999 7.78 146.026 8.46222 146.052C9.14445 146.052 9.76107 146.052 10.3121 146.052C11.073 146.052 11.9521 146.052 12.9492 146.052C13.9725 146.052 15.0483 146.052 16.1766 146.052C17.3049 146.052 18.4201 146.052 19.5221 146.052C20.6242 146.052 21.6475 146.052 22.5921 146.052C23.563 146.052 24.3764 146.052 25.0324 146.052C25.5047 146.052 26.0951 146.052 26.8036 146.052C27.512 146.026 28.0368 145.999 28.3779 145.973C28.3517 146.262 28.3386 146.734 28.3386 147.39C28.3386 148.02 28.3386 148.558 28.3386 149.004C28.3386 149.292 28.3386 149.909 28.3386 150.854C28.3386 151.772 28.3386 152.9 28.3386 154.239C28.3386 155.551 28.3386 156.941 28.3386 158.411C28.3386 159.88 28.3386 161.323 28.3386 162.74C28.3386 164.131 28.3386 165.364 28.3386 166.44C28.3386 167.516 28.3386 168.303 28.3386 168.801C28.3386 169.116 28.3386 169.602 28.3386 170.258C28.3648 170.914 28.3779 171.425 28.3779 171.793H22.3953C22.4216 171.425 22.4347 170.874 22.4347 170.14C22.4347 169.431 22.4347 168.88 22.4347 168.487C22.4347 167.831 22.4347 166.991 22.4347 165.968C22.4347 164.944 22.4347 163.829 22.4347 162.622C22.4347 161.415 22.4347 160.208 22.4347 159.001C22.4347 157.768 22.4347 156.626 22.4347 155.577C22.4347 154.501 22.4347 153.596 22.4347 152.861C22.4347 152.126 22.4347 151.641 22.4347 151.405C22.1723 151.405 21.7656 151.405 21.2146 151.405C20.6898 151.405 20.0732 151.405 19.3647 151.405C18.6825 151.405 17.9478 151.405 17.1606 151.405C16.3734 151.405 15.5731 151.405 14.7597 151.405C13.9463 151.405 13.1591 151.405 12.3981 151.405C11.6372 151.405 10.9418 151.405 10.3121 151.405C9.76107 151.405 9.13133 151.418 8.42286 151.444C7.74064 151.444 7.08466 151.457 6.45491 151.483C5.82516 151.51 5.32662 151.536 4.95926 151.562V145.855ZM6.06132 155.026C6.66483 155.052 7.41265 155.078 8.30479 155.104C9.19693 155.131 10.0366 155.144 10.8238 155.144C11.1386 155.144 11.6765 155.144 12.4375 155.144C13.2247 155.144 14.1299 155.144 15.1533 155.144C16.1766 155.144 17.2262 155.144 18.302 155.144C19.404 155.144 20.4405 155.144 21.4114 155.144C22.3822 155.144 23.2088 155.144 23.891 155.144C24.5732 155.144 24.993 155.144 25.1505 155.144V160.536C24.9668 160.536 24.5339 160.536 23.8516 160.536C23.1956 160.536 22.3822 160.536 21.4114 160.536C20.4405 160.536 19.404 160.536 18.302 160.536C17.2262 160.536 16.1766 160.536 15.1533 160.536C14.1299 160.536 13.2247 160.536 12.4375 160.536C11.6765 160.536 11.1386 160.536 10.8238 160.536C10.0366 160.536 9.17069 160.536 8.22607 160.536C7.30769 160.536 6.58611 160.562 6.06132 160.615V155.026ZM4.56567 164.59C4.90679 164.616 5.39221 164.656 6.02196 164.708C6.65171 164.734 7.33393 164.747 8.06863 164.747C8.48846 164.747 9.15757 164.747 10.0759 164.747C10.9943 164.747 12.0439 164.747 13.2247 164.747C14.4317 164.747 15.6649 164.747 16.9244 164.747C18.2102 164.747 19.4303 164.747 20.5848 164.747C21.7394 164.747 22.7233 164.747 23.5368 164.747C24.3764 164.747 24.9274 164.747 25.1898 164.747V170.258C24.8225 170.258 24.2059 170.258 23.34 170.258C22.4741 170.258 21.4638 170.258 20.3093 170.258C19.1548 170.258 17.9478 170.258 16.6883 170.258C15.455 170.258 14.248 170.258 13.0672 170.258C11.9127 170.258 10.8894 170.258 9.99723 170.258C9.10509 170.258 8.4491 170.258 8.02927 170.258C7.50449 170.258 6.87474 170.271 6.14004 170.297C5.43157 170.323 4.90679 170.35 4.56567 170.376V164.59Z" fill="white"/>
<path d="M10.5482 97.1383C10.417 96.5348 10.2727 95.9838 10.1153 95.4852C9.98409 94.9867 9.83977 94.4881 9.68234 93.9896L16.4127 92.9269C16.4652 93.3205 16.5177 93.8321 16.5702 94.4619C16.6489 95.0916 16.7407 95.6558 16.8457 96.1543C16.9244 96.6004 17.0425 97.3351 17.1999 98.3584C17.3836 99.3555 17.6066 100.563 17.869 101.979C18.1314 103.37 18.4201 104.879 18.7349 106.506C19.0498 108.106 19.3647 109.733 19.6795 111.386C19.9944 113.039 20.2962 114.627 20.5848 116.149C20.8734 117.644 21.1358 118.996 21.372 120.203C21.6081 121.384 21.7918 122.315 21.923 122.997C22.0542 123.574 22.2116 124.217 22.3953 124.926C22.579 125.634 22.7627 126.33 22.9464 127.012L16.0979 128.193C15.9929 127.432 15.9142 126.697 15.8617 125.989C15.8092 125.28 15.7174 124.637 15.5862 124.06C15.4812 123.456 15.3238 122.591 15.1139 121.462C14.9302 120.334 14.6941 119.035 14.4054 117.566C14.143 116.096 13.8544 114.548 13.5395 112.921C13.2247 111.294 12.9098 109.668 12.5949 108.041C12.3063 106.388 12.0176 104.84 11.729 103.396C11.4666 101.953 11.2305 100.694 11.0205 99.6179C10.8106 98.5159 10.6532 97.6893 10.5482 97.1383ZM0 101.783C0.682224 101.73 1.33821 101.691 1.96796 101.665C2.62394 101.612 3.25369 101.547 3.85719 101.468C4.40822 101.389 5.20852 101.284 6.2581 101.153C7.30767 100.995 8.50156 100.825 9.83977 100.641C11.2042 100.431 12.608 100.221 14.0512 100.012C15.5206 99.7754 16.9375 99.5523 18.302 99.3424C19.6664 99.1063 20.8734 98.8963 21.923 98.7127C22.9988 98.529 23.8254 98.3847 24.4026 98.2797C25.0586 98.1485 25.7802 98.0042 26.5674 97.8468C27.3546 97.6631 28.0237 97.4925 28.5747 97.3351L29.7161 103.554C29.2176 103.58 28.5616 103.659 27.7482 103.79C26.961 103.895 26.2525 103.987 25.6228 104.066C24.9143 104.17 23.9828 104.315 22.8283 104.498C21.6737 104.682 20.4011 104.892 19.0104 105.128C17.6198 105.338 16.2028 105.561 14.7597 105.797C13.3165 106.033 11.9389 106.256 10.627 106.466C9.34123 106.676 8.21293 106.86 7.24207 107.017C6.27122 107.175 5.56275 107.293 5.11668 107.372C4.4607 107.503 3.83095 107.634 3.22745 107.765C2.65018 107.896 1.99419 108.067 1.25949 108.277L0 101.783ZM0.118078 113.433C0.669105 113.407 1.37757 113.354 2.24347 113.276C3.10937 113.171 3.87031 113.066 4.5263 112.961C5.23476 112.856 6.17938 112.711 7.36015 112.528C8.54092 112.344 9.86601 112.134 11.3354 111.898C12.8048 111.662 14.3136 111.426 15.8617 111.19C17.4361 110.927 18.958 110.678 20.4274 110.442C21.8968 110.179 23.235 109.943 24.442 109.733C25.6752 109.523 26.6592 109.353 27.3939 109.222C28.1549 109.064 28.9158 108.894 29.6768 108.71C30.4639 108.526 31.1462 108.356 31.7234 108.198L32.9829 114.456C32.4057 114.483 31.6972 114.561 30.8575 114.692C30.0441 114.824 29.2569 114.955 28.496 115.086C27.6826 115.217 26.6461 115.388 25.3866 115.598C24.1534 115.781 22.7889 116.004 21.2933 116.267C19.7976 116.503 18.2626 116.752 16.6883 117.015C15.1401 117.251 13.6445 117.5 12.2013 117.762C10.7582 117.999 9.4593 118.222 8.30477 118.432C7.17648 118.615 6.28434 118.773 5.62835 118.904C4.73621 119.061 3.92279 119.206 3.18809 119.337C2.47962 119.468 1.90236 119.599 1.45629 119.73L0.118078 113.433Z" fill="white"/>
<path d="M20.0342 46.1487C19.9293 47.1195 19.8505 47.8674 19.7981 48.3921C19.7456 48.9169 19.7193 49.5073 19.7193 50.1633C19.7193 50.5307 19.7193 51.0817 19.7193 51.8164C19.7193 52.5511 19.7193 53.312 19.7193 54.0992C19.7193 54.8864 19.7193 55.5424 19.7193 56.0672H13.0283C13.0283 55.4637 13.0283 54.7683 13.0283 53.9811C13.0283 53.194 13.0283 52.4593 13.0283 51.777C13.0283 51.0686 13.0283 50.5307 13.0283 50.1633C13.0283 49.5073 13.0021 48.9169 12.9496 48.3921C12.9233 47.8674 12.8315 47.1195 12.6741 46.1487H20.0342ZM33.1801 54.847C32.9965 55.3456 32.8259 55.9622 32.6685 56.6969C32.511 57.4316 32.393 57.9958 32.3143 58.3894C32.1306 59.4127 31.9207 60.3967 31.6845 61.3413C31.4483 62.2597 31.186 63.1518 30.8973 64.0177C30.6087 64.8836 30.2807 65.7495 29.9133 66.6154C29.5722 67.4551 29.1786 68.3078 28.7326 69.1737C27.6568 71.2204 26.2792 73.0572 24.5999 74.684C22.9205 76.3109 21.0444 77.6753 18.9715 78.7774C16.8986 79.9057 14.7076 80.7716 12.3985 81.3751L7.4393 75.6286C8.46264 75.445 9.55157 75.1957 10.7061 74.8808C11.8869 74.5397 12.9365 74.1855 13.8548 73.8181C14.7995 73.4245 15.7441 72.9391 16.6887 72.3618C17.6595 71.7846 18.5779 71.1155 19.4438 70.3545C20.3097 69.5936 21.0969 68.7408 21.8054 67.7962C22.4351 66.904 22.9599 65.9725 23.3797 65.0017C23.8258 64.0046 24.18 62.955 24.4424 61.853C24.7311 60.7509 24.9672 59.6095 25.1509 58.4287H7.00635C7.00635 58.7436 7.00635 59.1241 7.00635 59.5701C7.00635 59.99 7.00635 60.4492 7.00635 60.9477C7.00635 61.4462 7.00635 61.9186 7.00635 62.3646C7.00635 62.7845 7.00635 63.1518 7.00635 63.4667C7.00635 63.9652 7.01947 64.5163 7.04571 65.1198C7.07195 65.7233 7.11131 66.2481 7.16379 66.6941H0.59082C0.643299 66.1169 0.682658 65.5002 0.708898 64.8442C0.761377 64.1883 0.787616 63.5585 0.787616 62.955C0.787616 62.6401 0.787616 62.181 0.787616 61.5774C0.787616 60.9739 0.787616 60.3311 0.787616 59.6488C0.787616 58.9666 0.787616 58.3238 0.787616 57.7203C0.787616 57.0905 0.787616 56.5788 0.787616 56.1852C0.787616 55.7392 0.774496 55.1619 0.748257 54.4534C0.722017 53.7187 0.669539 53.1021 0.59082 52.6036C1.32552 52.6823 2.00775 52.7348 2.63749 52.761C3.29348 52.7872 4.01506 52.8004 4.80224 52.8004H25.4658C26.3317 52.8004 27.0401 52.761 27.5912 52.6823C28.1684 52.5773 28.6539 52.4593 29.0474 52.3281L33.1801 54.847Z" fill="white"/>
<path d="M8.65932 27.9845C8.65932 27.4072 8.65932 26.5413 8.65932 25.3868C8.65932 24.206 8.65932 22.8678 8.65932 21.3722C8.65932 19.8765 8.65932 18.3284 8.65932 16.7278C8.65932 15.101 8.65932 13.5397 8.65932 12.0441C8.65932 10.5484 8.65932 9.22333 8.65932 8.06879C8.65932 6.91426 8.65932 6.06148 8.65932 5.51045C8.65932 4.72327 8.61996 3.85737 8.54124 2.91275C8.46253 1.96813 8.34445 1.12847 8.18701 0.393768H15.6259C15.5472 1.12847 15.4553 1.92877 15.3504 2.79468C15.2716 3.66058 15.2323 4.56583 15.2323 5.51045C15.2323 6.06148 15.2323 6.91426 15.2323 8.06879C15.2323 9.22333 15.2323 10.5484 15.2323 12.0441C15.2323 13.5397 15.2323 15.0878 15.2323 16.6884C15.2323 18.289 15.2323 19.8503 15.2323 21.3722C15.2323 22.8678 15.2323 24.206 15.2323 25.3868C15.2323 26.5413 15.2323 27.4072 15.2323 27.9845C15.2323 28.3256 15.2454 28.8635 15.2716 29.5982C15.3241 30.3067 15.3897 31.0545 15.4684 31.8417C15.5472 32.6289 15.6128 33.3242 15.6652 33.9277H8.18701C8.31821 33.0881 8.42317 32.091 8.50189 30.9364C8.60684 29.7819 8.65932 28.7979 8.65932 27.9845ZM13.8154 10.5091C15.1273 10.8502 16.6099 11.2962 18.2629 11.8473C19.916 12.3721 21.5822 12.9362 23.2615 13.5397C24.9409 14.1432 26.5021 14.7336 27.9453 15.3109C29.4147 15.8881 30.5955 16.3998 31.4876 16.8459L28.7718 23.4976C27.6698 22.9203 26.4627 22.3561 25.1508 21.8051C23.865 21.2279 22.5531 20.6768 21.2149 20.152C19.9029 19.601 18.6041 19.1025 17.3183 18.6564C16.0588 18.1841 14.8912 17.7643 13.8154 17.3969V10.5091Z" fill="white"/>
</svg>
