<svg width="172" height="315" fill="none" xmlns="http://www.w3.org/2000/svg"><path d="M161.963 282.52c.393.577.813 1.22 1.259 1.928.446.709.866 1.417 1.26 2.126.42.682.774 1.325 1.063 1.928l-4.054 1.771a39.43 39.43 0 00-1.142-2.322 20.348 20.348 0 00-1.023-1.81 19.202 19.202 0 00-1.299-1.968l3.936-1.653zm5.392-2.244a31.5 31.5 0 011.299 1.85c.472.682.918 1.365 1.338 2.047.42.682.774 1.312 1.063 1.889l-3.936 1.929a27.959 27.959 0 00-1.22-2.283c-.368-.63-.735-1.22-1.102-1.771a34.87 34.87 0 00-1.338-1.85l3.896-1.811zm-22.12 28.732v-2.597-4.015-4.644-4.684-3.975-2.559c0-.787-.039-1.653-.118-2.597a20.184 20.184 0 00-.354-2.519h7.439c-.079.734-.171 1.535-.276 2.401a30.26 30.26 0 00-.118 2.715V309.008c0 .341.013.879.04 1.614.052.709.118 1.456.196 2.244.079.787.145 1.482.197 2.086h-7.478c.131-.84.236-1.837.315-2.992.105-1.154.157-2.138.157-2.952zm5.156-17.475c1.312.341 2.795.787 4.448 1.338 1.653.525 3.319 1.089 4.998 1.693a138.16 138.16 0 014.684 1.771c1.47.577 2.65 1.089 3.543 1.535l-2.716 6.651a47.318 47.318 0 00-3.621-1.692 89.244 89.244 0 00-3.936-1.653 65.485 65.485 0 00-3.897-1.496 124.899 124.899 0 00-3.503-1.259v-6.888zM144.37 235.072a60.845 60.845 0 012.401 1.771c.918.683 1.863 1.43 2.834 2.244a52.745 52.745 0 012.794 2.361c.892.761 1.627 1.457 2.204 2.086l-4.88 4.999a35.958 35.958 0 00-2.008-2.007 60.852 60.852 0 00-2.637-2.401 70.364 70.364 0 00-2.794-2.362 51.99 51.99 0 00-2.44-1.85l4.526-4.841zm-5.825 26.135a42.822 42.822 0 005.51-1.102 42.502 42.502 0 004.959-1.653 35.635 35.635 0 004.251-2.047 38.958 38.958 0 006.455-4.644c1.942-1.759 3.634-3.582 5.077-5.471 1.47-1.916 2.637-3.792 3.503-5.629l3.7 6.731c-1.05 1.863-2.349 3.699-3.897 5.51a43.751 43.751 0 01-5.234 5.077 44.924 44.924 0 01-6.18 4.33 47.524 47.524 0 01-4.329 2.243 41.824 41.824 0 01-4.802 1.771 33.902 33.902 0 01-4.959 1.181l-4.054-6.297zM139.882 190.734c.525.079 1.168.145 1.929.197a29.73 29.73 0 002.047.079h21.332c.604 0 1.247-.026 1.929-.079a35.86 35.86 0 001.928-.197v6.534a42.954 42.954 0 00-1.967-.118 24.523 24.523 0 00-1.89-.079h-21.332c-.604 0-1.286.026-2.047.079-.761.026-1.404.065-1.929.118v-6.534zm10.903 24.875v-21.254h6.691v21.254h-6.691zm-13.5-3.975c.656.105 1.338.197 2.046.275.735.053 1.417.079 2.047.079h25.938c.761 0 1.469-.039 2.125-.118a43.528 43.528 0 001.771-.236v6.888a20.305 20.305 0 00-2.007-.158 57.232 57.232 0 00-1.889-.039h-25.938c-.603 0-1.273.013-2.007.039-.709.027-1.404.079-2.086.158v-6.888zM146.416 168.201v-2.597-4.015-4.644-4.684-3.975-2.559c0-.787-.039-1.653-.118-2.597a20.184 20.184 0 00-.354-2.519h7.439c-.079.734-.171 1.535-.276 2.401a29.894 29.894 0 00-.118 2.715V168.201c0 .341.013.879.039 1.614.053.709.119 1.456.197 2.244.079.787.145 1.482.197 2.086h-7.478c.131-.84.236-1.837.315-2.992.105-1.154.157-2.138.157-2.952zm5.156-17.475c1.312.341 2.795.787 4.448 1.338 1.653.525 3.319 1.089 4.998 1.693a138.16 138.16 0 014.684 1.771c1.47.577 2.65 1.089 3.542 1.535l-2.715 6.651a47.318 47.318 0 00-3.621-1.692 89.244 89.244 0 00-3.936-1.653 65.485 65.485 0 00-3.897-1.496 124.899 124.899 0 00-3.503-1.259v-6.888zM144.37 94.856a59.765 59.765 0 012.401 1.77c.918.683 1.863 1.43 2.834 2.244a52.845 52.845 0 012.794 2.362c.892.761 1.627 1.456 2.204 2.086l-4.88 4.998a35.958 35.958 0 00-2.008-2.007 61.504 61.504 0 00-2.637-2.401 69.482 69.482 0 00-2.794-2.361 50.863 50.863 0 00-2.44-1.85l4.526-4.841zm-5.825 26.134a42.652 42.652 0 005.51-1.102 42.13 42.13 0 004.959-1.653 35.635 35.635 0 004.251-2.047 38.842 38.842 0 006.455-4.644c1.942-1.758 3.634-3.582 5.077-5.471 1.47-1.916 2.637-3.792 3.503-5.628l3.7 6.73c-1.05 1.863-2.349 3.7-3.897 5.51a43.758 43.758 0 01-5.234 5.078 45.004 45.004 0 01-6.18 4.329 47.779 47.779 0 01-4.329 2.244 42.012 42.012 0 01-4.802 1.771 34.027 34.027 0 01-4.959 1.18l-4.054-6.297zM139.096 50.203l2.44.078h25.899c.734 0 1.495-.013 2.282-.039a391.02 391.02 0 00-.078 2.125v22.947c.026.656.039 1.312.039 1.968v1.613l.039.67h-6.612v-.984c.026-.656.053-1.444.079-2.362.026-.918.039-1.784.039-2.598v-1.81-2.795-3.345-3.385-2.991-2.126-.787H145.59V77.439c.026.604.04 1.102.04 1.496v.63h-6.573v-.63c.026-.394.039-.906.039-1.535.026-.63.039-1.273.039-1.929.027-.682.04-1.299.04-1.85v-1.77-2.756-3.306-3.503-3.306-2.716-1.771-2.165c0-.813-.027-1.522-.079-2.125zm26.449 21.175v6.1h-23.261v-6.1h23.261zM170.189 5.707c-.21.42-.406.945-.59 1.574a56.245 56.245 0 01-.433 1.575c-.236.918-.525 1.968-.866 3.148a44.752 44.752 0 01-1.181 3.66 36.911 36.911 0 01-1.692 3.819 25.737 25.737 0 01-2.204 3.62c-1.181 1.575-2.585 3.07-4.212 4.488-1.6 1.39-3.398 2.65-5.392 3.778a36.42 36.42 0 01-6.415 2.795l-5.196-5.708c2.65-.603 4.933-1.364 6.849-2.282 1.915-.919 3.568-1.955 4.959-3.11 1.417-1.18 2.637-2.414 3.66-3.7a18.632 18.632 0 002.126-3.306 25.9 25.9 0 001.417-3.502c.367-1.181.629-2.296.787-3.346h-17.318c-.971 0-1.942.026-2.913.079-.944.026-1.679.065-2.204.118v-6.73c.42.052.945.104 1.574.157.63.052 1.273.105 1.929.157.656.026 1.194.04 1.614.04h17.357c.446 0 1.01-.014 1.693-.04a10.952 10.952 0 001.928-.315l4.723 3.031zM99.264 285.472c-.183.262-.446.682-.787 1.259a13.472 13.472 0 00-.827 1.614 74.103 74.103 0 01-2.046 4.093 53.356 53.356 0 01-2.716 4.566 41.819 41.819 0 01-3.228 4.369 58.965 58.965 0 01-4.92 5.038 55.786 55.786 0 01-5.667 4.526 43.863 43.863 0 01-5.983 3.503l-4.959-5.156a35.775 35.775 0 006.219-3.031 47.203 47.203 0 005.589-3.975c1.705-1.417 3.135-2.768 4.29-4.054a28.511 28.511 0 002.362-3.031 34.254 34.254 0 001.928-3.07c.551-1.023.958-1.955 1.22-2.794H77.5c-.578 0-1.194.026-1.85.078-.63.027-1.234.066-1.81.119-.552.052-1.011.091-1.378.118v-6.77c.472.052 1.023.105 1.653.157.656.053 1.285.092 1.889.118.63.027 1.128.04 1.496.04h13.145c.998 0 1.916-.053 2.756-.158.865-.131 1.521-.275 1.968-.433l3.896 2.874zm-9.092 11.965a52.469 52.469 0 013.228 2.794 82.963 82.963 0 013.424 3.385 90.717 90.717 0 013.188 3.346 86.905 86.905 0 012.401 2.755l-5.471 4.762a46.688 46.688 0 00-3.306-4.251 82.496 82.496 0 00-3.857-4.29 75.19 75.19 0 00-4.133-4.054l4.526-4.447zM75.492 235.072a60.183 60.183 0 012.4 1.771c.919.683 1.864 1.43 2.834 2.244a52.681 52.681 0 012.795 2.361c.892.761 1.627 1.457 2.204 2.086l-4.88 4.999a36.055 36.055 0 00-2.008-2.007 61.331 61.331 0 00-2.637-2.401 70.514 70.514 0 00-2.794-2.362 51.467 51.467 0 00-2.44-1.85l4.526-4.841zm-5.826 26.135a42.796 42.796 0 005.51-1.102 42.511 42.511 0 004.96-1.653 35.602 35.602 0 004.25-2.047 38.961 38.961 0 006.456-4.644c1.941-1.759 3.634-3.582 5.077-5.471 1.47-1.916 2.637-3.792 3.503-5.629l3.7 6.731c-1.05 1.863-2.349 3.699-3.897 5.51a43.714 43.714 0 01-5.235 5.077 44.875 44.875 0 01-6.179 4.33 47.534 47.534 0 01-4.33 2.243 41.821 41.821 0 01-4.801 1.771 33.902 33.902 0 01-4.96 1.181l-4.053-6.297zM72.775 217.144c.288-.603.46-1.115.512-1.535.052-.42.078-.879.078-1.377v-2.323-3.424-4.014-4.173-3.817-2.952c0-.578-.026-1.168-.078-1.771a31.627 31.627 0 00-.197-1.732 9.953 9.953 0 00-.236-1.457h7.478a55.24 55.24 0 00-.315 2.519 23.783 23.783 0 00-.118 2.441V212.933c1.443-.446 3.017-1.076 4.723-1.889a52.811 52.811 0 005.274-2.874 50.688 50.688 0 005.117-3.699 35.932 35.932 0 004.369-4.33l3.385 5.432c-2.782 3.253-6.154 6.048-10.116 8.383-3.936 2.335-8.147 4.29-12.634 5.865-.289.105-.682.249-1.18.433-.473.183-.985.459-1.536.826l-4.526-3.936zM101.192 148.965c-.21.236-.459.551-.748.944-.288.367-.498.656-.63.866a33.442 33.442 0 01-1.495 2.204c-.63.84-1.312 1.732-2.047 2.677a56.918 56.918 0 01-2.204 2.597c-.735.787-1.404 1.43-2.007 1.929l-4.723-3.267a22.782 22.782 0 001.968-1.692 25.44 25.44 0 001.85-1.968c.55-.656.957-1.22 1.22-1.693H76.318c-.71 0-1.418.026-2.126.079-.682.026-1.43.079-2.244.157v-6.061a44.39 44.39 0 002.165.276c.76.052 1.496.078 2.204.078h17.554c.341 0 .761-.013 1.26-.039a24.961 24.961 0 001.495-.118c.473-.053.827-.105 1.063-.158l3.503 3.189zm-13.658 4.132a227.06 227.06 0 01-.196 4.133 25.163 25.163 0 01-.512 4.172 16.104 16.104 0 01-1.378 4.054c-.63 1.312-1.548 2.571-2.755 3.778-1.207 1.207-2.781 2.349-4.723 3.425l-4.998-3.976a33.2 33.2 0 001.692-.747 15.278 15.278 0 001.81-1.142c1.339-.918 2.349-1.889 3.031-2.912a8.788 8.788 0 001.417-3.385c.263-1.26.394-2.703.394-4.33 0-.525-.04-1.049-.118-1.574a11.194 11.194 0 00-.236-1.496h6.572zM101.311 99.185c-.21.42-.407.945-.59 1.574a55.816 55.816 0 01-.433 1.575c-.236.918-.525 1.968-.866 3.148a44.978 44.978 0 01-1.18 3.661 37.05 37.05 0 01-1.693 3.818 25.7 25.7 0 01-2.205 3.621c-1.18 1.574-2.584 3.07-4.21 4.487a32.878 32.878 0 01-5.393 3.778 36.438 36.438 0 01-6.416 2.795l-5.195-5.707c2.65-.604 4.933-1.365 6.849-2.283 1.915-.919 3.568-1.955 4.959-3.11 1.417-1.18 2.637-2.414 3.66-3.699a18.612 18.612 0 002.126-3.307 25.71 25.71 0 001.416-3.503c.368-1.18.63-2.295.788-3.345H75.61c-.971 0-1.942.026-2.913.079a32.22 32.22 0 00-2.204.118v-6.73c.42.052.945.104 1.574.157.63.052 1.273.105 1.929.157.656.027 1.194.04 1.614.04h17.357c.446 0 1.01-.013 1.692-.04a10.97 10.97 0 001.929-.315l4.723 3.031zM75.492 48.117a59.14 59.14 0 012.4 1.77c.919.683 1.864 1.43 2.834 2.244a52.684 52.684 0 012.795 2.362c.892.76 1.627 1.456 2.204 2.086l-4.88 4.998a35.944 35.944 0 00-2.008-2.007 61.594 61.594 0 00-2.637-2.4 70.577 70.577 0 00-2.794-2.362 50.721 50.721 0 00-2.44-1.85l4.526-4.841zM69.666 74.25a42.643 42.643 0 005.51-1.102 42.25 42.25 0 004.96-1.653 35.617 35.617 0 004.25-2.047 38.888 38.888 0 006.456-4.644c1.941-1.758 3.634-3.582 5.077-5.471 1.47-1.916 2.637-3.792 3.503-5.629l3.7 6.73c-1.05 1.864-2.349 3.7-3.897 5.511a43.74 43.74 0 01-5.235 5.078 44.88 44.88 0 01-6.179 4.329 47.61 47.61 0 01-4.33 2.244 41.897 41.897 0 01-4.801 1.77 33.965 33.965 0 01-4.96 1.181l-4.053-6.297zM87.18 0a46.513 46.513 0 00-.157 1.85c-.053.76-.092 1.377-.118 1.85-.105 3.857-.42 7.307-.945 10.351-.498 3.018-1.246 5.734-2.243 8.147a25.11 25.11 0 01-3.936 6.495c-1.6 1.941-3.556 3.739-5.865 5.392l-5.55-4.487a40.127 40.127 0 002.913-1.85 18.934 18.934 0 002.913-2.519c1.312-1.364 2.375-2.82 3.188-4.369a21.55 21.55 0 001.928-4.92c.447-1.758.748-3.634.906-5.628.183-2.02.275-4.185.275-6.494 0-.289-.013-.67-.04-1.142a25.204 25.204 0 00-.117-1.456A21.195 21.195 0 0080.174 0h7.006zm13.186 8.58l-.197 1.181a9.262 9.262 0 00-.079.984c-.026.892-.079 2.007-.157 3.346a92.985 92.985 0 01-.276 4.25 86.482 86.482 0 01-.433 4.487 55.038 55.038 0 01-.59 4.172c-.236 1.26-.525 2.31-.866 3.15-.42 1.075-1.076 1.901-1.968 2.479-.866.603-2.047.905-3.542.905-1.207 0-2.388-.04-3.543-.118a180.597 180.597 0 01-3.109-.236l-.748-6.376c.918.183 1.85.328 2.795.433.97.105 1.823.157 2.558.157.682 0 1.168-.118 1.456-.354.289-.236.525-.604.709-1.102.183-.446.354-1.05.511-1.81.158-.762.29-1.615.394-2.56.131-.97.236-1.98.315-3.03.105-1.05.17-2.073.197-3.07.052-1.023.078-1.968.078-2.834h-18.34c-.605 0-1.457.013-2.56.04a49.29 49.29 0 00-2.99.157V6.612c.918.105 1.889.184 2.912.236 1.023.053 1.902.08 2.637.08h17.515c.498 0 1.023-.027 1.574-.08a17.515 17.515 0 001.693-.236l4.054 1.968zM20.034 186.365c-.105.971-.183 1.719-.236 2.244a17.92 17.92 0 00-.079 1.771v5.904h-6.69v-2.086-2.204-1.614c0-.656-.027-1.247-.08-1.771-.026-.525-.117-1.273-.275-2.244h7.36zm13.146 8.699a13.826 13.826 0 00-.511 1.849c-.158.735-.276 1.299-.355 1.693a44.914 44.914 0 01-.63 2.952c-.236.918-.498 1.81-.787 2.676a34.923 34.923 0 01-.984 2.598c-.34.84-.734 1.692-1.18 2.558a21.663 21.663 0 01-4.133 5.511 24.762 24.762 0 01-5.629 4.093 29.11 29.11 0 01-6.572 2.598l-4.96-5.747a37.64 37.64 0 003.267-.748c1.18-.341 2.23-.695 3.149-1.062a20.7 20.7 0 002.834-1.457c.97-.577 1.889-1.246 2.755-2.007a16.893 16.893 0 002.361-2.558 15.516 15.516 0 001.575-2.795c.446-.997.8-2.046 1.062-3.148.29-1.103.525-2.244.709-3.425H7.006v5.038c0 .499.013 1.05.04 1.653.026.604.065 1.129.118 1.575H.59a36.74 36.74 0 00.118-1.85 23.72 23.72 0 00.079-1.889v-1.378-1.929-1.928-1.535a48.7 48.7 0 00-.04-1.732 15.769 15.769 0 00-.157-1.85 32.05 32.05 0 002.046.158c.656.026 1.378.039 2.165.039h20.664c.866 0 1.574-.039 2.125-.118a10.835 10.835 0 001.456-.354l4.133 2.519zM4.96 145.855c.393.026.905.066 1.534.118.63.026 1.286.053 1.968.079h18.342a43.625 43.625 0 001.574-.079c-.026.289-.04.761-.04 1.417V170.258c.027.656.04 1.167.04 1.535h-5.983c.027-.368.04-.919.04-1.653v-1.653-2.519-3.346-3.621-3.424-2.716-1.456H10.312c-.55 0-1.18.013-1.89.039-.681 0-1.337.013-1.967.039-.63.027-1.128.053-1.496.079v-5.707zm1.101 9.171c.604.026 1.352.052 2.244.078.892.027 1.732.04 2.519.04H25.15v5.392H8.226c-.918 0-1.64.026-2.165.079v-5.589zm-1.495 9.564c.34.026.826.066 1.456.118.63.026 1.312.039 2.047.039H25.19v5.511H8.029c-.525 0-1.154.013-1.889.039-.708.026-1.233.053-1.574.079v-5.786zM10.548 97.138a18.725 18.725 0 00-.433-1.653 32.09 32.09 0 00-.433-1.495l6.73-1.063c.053.393.106.905.158 1.535.079.63.17 1.194.276 1.692.078.446.197 1.181.354 2.204l.669 3.621c.262 1.391.551 2.9.866 4.527.315 1.6.63 3.227.945 4.88l.905 4.763c.288 1.495.55 2.847.787 4.054.236 1.181.42 2.112.551 2.794.131.577.289 1.22.472 1.929.184.708.368 1.404.551 2.086l-6.848 1.181a35.176 35.176 0 01-.236-2.204 13.096 13.096 0 00-.276-1.929 243.99 243.99 0 00-.472-2.598c-.184-1.128-.42-2.427-.709-3.896-.262-1.47-.55-3.018-.865-4.645l-.945-4.88a194.102 194.102 0 00-.866-4.645 303.893 303.893 0 00-.708-3.778l-.473-2.48zM0 101.783a54.394 54.394 0 011.968-.118 38.412 38.412 0 001.89-.197c.55-.079 1.35-.184 2.4-.315 1.05-.158 2.244-.328 3.582-.512 1.364-.21 2.768-.42 4.211-.629 1.47-.237 2.886-.46 4.251-.67 1.364-.236 2.571-.446 3.621-.63 1.076-.183 1.902-.327 2.48-.432l2.164-.433a43.218 43.218 0 002.008-.512l1.141 6.219a19.33 19.33 0 00-1.968.236c-.787.105-1.495.197-2.125.276a264.4 264.4 0 00-2.795.432c-1.154.184-2.427.394-3.818.63-1.39.21-2.807.433-4.25.669-1.444.236-2.821.459-4.133.669-1.286.21-2.414.394-3.385.551-.97.158-1.68.276-2.125.355-.656.131-1.286.262-1.89.393-.577.131-1.233.302-1.968.512L0 101.783zm.118 11.65c.551-.026 1.26-.079 2.125-.157.866-.105 1.627-.21 2.283-.315.709-.105 1.653-.25 2.834-.433 1.18-.184 2.506-.394 3.975-.63 1.47-.236 2.979-.472 4.527-.708 1.574-.263 3.096-.512 4.565-.748 1.47-.263 2.808-.499 4.015-.709 1.233-.21 2.217-.38 2.952-.511a71.924 71.924 0 002.283-.512c.787-.184 1.47-.354 2.046-.512l1.26 6.258c-.577.027-1.286.105-2.125.236-.814.132-1.601.263-2.362.394-.813.131-1.85.302-3.11.512-1.233.183-2.597.406-4.093.669-1.495.236-3.03.485-4.605.748-1.548.236-3.043.485-4.487.747-1.443.237-2.742.46-3.896.67a78.53 78.53 0 00-2.677.472c-.892.157-1.705.302-2.44.433-.708.131-1.286.262-1.732.393l-1.338-6.297zM20.034 46.149c-.105.97-.183 1.718-.236 2.243a17.936 17.936 0 00-.079 1.771v5.904h-6.69v-2.086-2.204-1.614c0-.656-.027-1.246-.08-1.77-.026-.526-.117-1.273-.275-2.244h7.36zm13.146 8.698a13.838 13.838 0 00-.511 1.85c-.158.735-.276 1.299-.355 1.692a44.814 44.814 0 01-.63 2.952 39.81 39.81 0 01-.787 2.677 34.916 34.916 0 01-.984 2.597 31.41 31.41 0 01-1.18 2.559 21.661 21.661 0 01-4.133 5.51 24.739 24.739 0 01-5.629 4.093 29.071 29.071 0 01-6.572 2.598l-4.96-5.746a37.896 37.896 0 003.267-.748c1.18-.341 2.23-.695 3.149-1.063.944-.394 1.89-.879 2.834-1.456.97-.577 1.889-1.246 2.755-2.007a16.862 16.862 0 002.361-2.559 15.525 15.525 0 001.575-2.794c.446-.997.8-2.047 1.062-3.149.29-1.102.525-2.244.709-3.424H7.006v5.038c0 .498.013 1.05.04 1.653.026.603.065 1.128.118 1.574H.59c.052-.577.092-1.194.118-1.85.052-.656.079-1.285.079-1.889v-1.378-1.928-1.929-1.535c0-.446-.014-1.023-.04-1.732a15.761 15.761 0 00-.157-1.85c.735.08 1.417.132 2.046.158.656.026 1.378.04 2.165.04h20.664c.866 0 1.574-.04 2.125-.119a10.802 10.802 0 001.456-.354l4.133 2.519zM8.66 27.985v-2.598-4.015-4.644-4.684V8.07 5.51c0-.787-.04-1.653-.119-2.597a20.074 20.074 0 00-.354-2.52h7.439c-.079.735-.17 1.536-.276 2.402a29.987 29.987 0 00-.118 2.715v22.475c0 .34.013.878.04 1.613.052.709.118 1.457.196 2.244.08.787.145 1.482.197 2.086H8.187c.131-.84.236-1.837.315-2.992.105-1.154.157-2.138.157-2.951zm5.155-17.476c1.312.341 2.795.787 4.448 1.338 1.653.525 3.32 1.09 4.998 1.693 1.68.603 3.241 1.194 4.684 1.77 1.47.578 2.65 1.09 3.543 1.536l-2.716 6.652a47.218 47.218 0 00-3.621-1.693 88.56 88.56 0 00-3.936-1.653 65.588 65.588 0 00-3.897-1.496 126.13 126.13 0 00-3.503-1.26V10.51z" fill="#fff"/></svg>