<svg width="48" height="48" viewBox="0 0 48 48" fill="none" xmlns="http://www.w3.org/2000/svg">
<path d="M10.1041 20.6546C8.69222 20.6153 6.71551 20.6937 5.28003 20.6937V28.0358H7.33519V22.4822C7.33519 22.4822 9.16287 22.4194 9.82179 22.4979C10.4415 22.5685 10.669 22.9529 10.6925 23.753C10.7082 24.6628 10.6925 25.1414 10.6925 28.0358H12.7477C12.7477 28.0358 12.7712 24.7256 12.7477 23.5726C12.7163 21.5252 12.0024 20.7016 10.1041 20.6546Z" fill="black"/>
<path d="M19.6112 20.6309C17.5797 20.6309 15.9246 22.2938 15.9246 24.3411C15.9246 26.3885 17.5797 28.0514 19.6112 28.0514C21.6429 28.0514 23.298 26.3885 23.298 24.3411C23.298 22.2938 21.6429 20.6309 19.6112 20.6309ZM19.6112 26.2786C18.5445 26.2786 17.6816 25.4079 17.6816 24.3333C17.6816 23.2586 18.5445 22.3879 19.6112 22.3879C20.6781 22.3879 21.5409 23.2586 21.5409 24.3333C21.5409 25.4158 20.6781 26.2786 19.6112 26.2786Z" fill="black"/>
<path d="M42.7199 24.3411C42.7199 22.2938 41.0648 20.6309 39.0331 20.6309C37.0016 20.6309 35.3464 22.2938 35.3464 24.3411C35.3464 25.5413 35.8956 26.5688 36.7505 27.2513C37.3467 27.7219 38.1781 28.0514 39.292 28.0514C39.8333 28.0514 41.2374 27.9024 42.2492 26.7806L41.4178 25.6667C41.0648 25.9806 40.1784 26.4198 39.4724 26.4198C38.5782 26.4198 38.0369 26.2472 37.6448 25.8785C37.4016 25.659 37.229 25.3216 37.1506 24.9059H42.665C42.6964 24.7176 42.7199 24.5372 42.7199 24.3411ZM37.1663 23.6665C37.3702 22.7959 37.982 22.1526 39.0254 22.1526C40.1156 22.1526 40.6883 22.8429 40.8765 23.6665H37.1663Z" fill="black"/>
<path d="M30.2791 19.9482H28.3574V22.0113H26.3806V23.8154H28.3574V25.9569H30.2791V23.8154H32.2558V22.0113H30.2791V19.9482Z" fill="black"/>
</svg>
